<mxfile host="Electron" agent="Mozilla/5.0 (Windows NT 10.0; Win64; x64) AppleWebKit/537.36 (KHTML, like Gecko) draw.io/24.7.17 Chrome/128.0.6613.36 Electron/32.0.1 Safari/537.36" version="24.7.17" pages="7">
  <diagram name="13" id="y59V1HQlPg4isVTUX6yj">
    <mxGraphModel dx="1434" dy="836" grid="1" gridSize="10" guides="1" tooltips="1" connect="1" arrows="1" fold="1" page="1" pageScale="1" pageWidth="827" pageHeight="1169" math="0" shadow="0">
      <root>
        <mxCell id="0" />
        <mxCell id="1" parent="0" />
        <mxCell id="f2kKjeTjMtvJFFK6bC5a-5" style="edgeStyle=orthogonalEdgeStyle;rounded=0;orthogonalLoop=1;jettySize=auto;html=1;exitX=0.5;exitY=1;exitDx=0;exitDy=0;entryX=0.5;entryY=0;entryDx=0;entryDy=0;fontFamily=JetBrains Mono;fontSize=10;" parent="1" source="f2kKjeTjMtvJFFK6bC5a-1" target="f2kKjeTjMtvJFFK6bC5a-2" edge="1">
          <mxGeometry relative="1" as="geometry" />
        </mxCell>
        <mxCell id="f2kKjeTjMtvJFFK6bC5a-1" value="Начало" style="rounded=1;whiteSpace=wrap;html=1;arcSize=50;container=0;strokeWidth=2;fontFamily=JetBrains Mono;fontSize=10;" parent="1" vertex="1">
          <mxGeometry x="10" y="10" width="200" height="30" as="geometry" />
        </mxCell>
        <mxCell id="f2kKjeTjMtvJFFK6bC5a-8" style="edgeStyle=orthogonalEdgeStyle;rounded=0;orthogonalLoop=1;jettySize=auto;html=1;exitX=0.5;exitY=1;exitDx=0;exitDy=0;entryX=0.5;entryY=0;entryDx=0;entryDy=0;fontFamily=JetBrains Mono;fontSize=10;" parent="1" source="f2kKjeTjMtvJFFK6bC5a-2" target="f2kKjeTjMtvJFFK6bC5a-7" edge="1">
          <mxGeometry relative="1" as="geometry" />
        </mxCell>
        <mxCell id="f2kKjeTjMtvJFFK6bC5a-2" value="Ввод n" style="shape=parallelogram;perimeter=parallelogramPerimeter;whiteSpace=wrap;html=1;fixedSize=1;size=30;container=0;strokeWidth=2;fontFamily=JetBrains Mono;fontSize=10;" parent="1" vertex="1">
          <mxGeometry x="10" y="60" width="200" height="30" as="geometry" />
        </mxCell>
        <mxCell id="f2kKjeTjMtvJFFK6bC5a-3" value="n - кол-во элементов" style="strokeWidth=2;html=1;shape=mxgraph.flowchart.annotation_1;align=left;pointerEvents=1;fontFamily=JetBrains Mono;fontSize=10;" parent="1" vertex="1">
          <mxGeometry x="230" y="60" width="10" height="30" as="geometry" />
        </mxCell>
        <mxCell id="f2kKjeTjMtvJFFK6bC5a-4" style="edgeStyle=orthogonalEdgeStyle;rounded=0;orthogonalLoop=1;jettySize=auto;html=1;exitX=1;exitY=0.5;exitDx=0;exitDy=0;entryX=0;entryY=0.5;entryDx=0;entryDy=0;entryPerimeter=0;endArrow=none;endFill=0;dashed=1;fontFamily=JetBrains Mono;fontSize=10;" parent="1" source="f2kKjeTjMtvJFFK6bC5a-2" target="f2kKjeTjMtvJFFK6bC5a-3" edge="1">
          <mxGeometry relative="1" as="geometry" />
        </mxCell>
        <mxCell id="f2kKjeTjMtvJFFK6bC5a-6" value="i - счётчик цикла А" style="strokeWidth=2;html=1;shape=mxgraph.flowchart.annotation_1;align=left;pointerEvents=1;fontFamily=JetBrains Mono;fontSize=10;" parent="1" vertex="1">
          <mxGeometry x="230" y="110" width="10" height="30" as="geometry" />
        </mxCell>
        <mxCell id="f2kKjeTjMtvJFFK6bC5a-21" style="edgeStyle=orthogonalEdgeStyle;rounded=0;orthogonalLoop=1;jettySize=auto;html=1;exitX=0.5;exitY=1;exitDx=0;exitDy=0;entryX=0.5;entryY=0;entryDx=0;entryDy=0;fontSize=10;fontFamily=JetBrains Mono;" parent="1" source="f2kKjeTjMtvJFFK6bC5a-7" target="f2kKjeTjMtvJFFK6bC5a-13" edge="1">
          <mxGeometry relative="1" as="geometry" />
        </mxCell>
        <mxCell id="f2kKjeTjMtvJFFK6bC5a-7" value="i = 0" style="rounded=0;whiteSpace=wrap;html=1;strokeWidth=2;fontFamily=JetBrains Mono;fontSize=10;" parent="1" vertex="1">
          <mxGeometry x="10" y="110" width="200" height="30" as="geometry" />
        </mxCell>
        <mxCell id="f2kKjeTjMtvJFFK6bC5a-9" style="edgeStyle=orthogonalEdgeStyle;rounded=0;orthogonalLoop=1;jettySize=auto;html=1;exitX=1;exitY=0.5;exitDx=0;exitDy=0;entryX=0;entryY=0.5;entryDx=0;entryDy=0;entryPerimeter=0;endArrow=none;endFill=0;dashed=1;fontFamily=JetBrains Mono;fontSize=10;" parent="1" source="f2kKjeTjMtvJFFK6bC5a-7" target="f2kKjeTjMtvJFFK6bC5a-6" edge="1">
          <mxGeometry relative="1" as="geometry" />
        </mxCell>
        <mxCell id="f2kKjeTjMtvJFFK6bC5a-31" style="edgeStyle=orthogonalEdgeStyle;rounded=0;orthogonalLoop=1;jettySize=auto;html=1;exitX=0.5;exitY=0;exitDx=0;exitDy=0;entryX=0.5;entryY=0;entryDx=0;entryDy=0;fontSize=10;fontFamily=JetBrains Mono;" parent="1" source="f2kKjeTjMtvJFFK6bC5a-12" target="f2kKjeTjMtvJFFK6bC5a-29" edge="1">
          <mxGeometry relative="1" as="geometry" />
        </mxCell>
        <mxCell id="f2kKjeTjMtvJFFK6bC5a-12" value="&lt;div style=&quot;font-size: 10px;&quot;&gt;&lt;br style=&quot;font-size: 10px;&quot;&gt;&lt;/div&gt;&lt;div style=&quot;font-size: 10px;&quot;&gt;А&lt;/div&gt;" style="shape=loopLimit;whiteSpace=wrap;html=1;size=20;direction=west;strokeWidth=2;fontFamily=JetBrains Mono;fontSize=10;" parent="1" vertex="1">
          <mxGeometry x="10" y="320" width="200" height="41" as="geometry" />
        </mxCell>
        <mxCell id="f2kKjeTjMtvJFFK6bC5a-24" style="edgeStyle=orthogonalEdgeStyle;rounded=0;orthogonalLoop=1;jettySize=auto;html=1;exitX=0.5;exitY=1;exitDx=0;exitDy=0;entryX=0.5;entryY=0;entryDx=0;entryDy=0;fontSize=10;fontFamily=JetBrains Mono;" parent="1" source="f2kKjeTjMtvJFFK6bC5a-13" target="f2kKjeTjMtvJFFK6bC5a-22" edge="1">
          <mxGeometry relative="1" as="geometry" />
        </mxCell>
        <mxCell id="f2kKjeTjMtvJFFK6bC5a-13" value="&lt;div style=&quot;font-size: 10px;&quot;&gt;А&lt;/div&gt;&lt;div style=&quot;font-size: 10px;&quot;&gt;i &amp;gt;= n&lt;/div&gt;" style="shape=loopLimit;whiteSpace=wrap;html=1;size=18;direction=east;strokeWidth=2;fontFamily=JetBrains Mono;fontSize=10;" parent="1" vertex="1">
          <mxGeometry x="10" y="160" width="200" height="39" as="geometry" />
        </mxCell>
        <mxCell id="f2kKjeTjMtvJFFK6bC5a-25" style="edgeStyle=orthogonalEdgeStyle;rounded=0;orthogonalLoop=1;jettySize=auto;html=1;exitX=0.5;exitY=1;exitDx=0;exitDy=0;entryX=0.5;entryY=0;entryDx=0;entryDy=0;fontSize=10;fontFamily=JetBrains Mono;" parent="1" source="f2kKjeTjMtvJFFK6bC5a-22" target="f2kKjeTjMtvJFFK6bC5a-23" edge="1">
          <mxGeometry relative="1" as="geometry" />
        </mxCell>
        <mxCell id="f2kKjeTjMtvJFFK6bC5a-22" value="Ввод arr[i]" style="shape=parallelogram;perimeter=parallelogramPerimeter;whiteSpace=wrap;html=1;fixedSize=1;size=30;container=0;strokeWidth=2;fontFamily=JetBrains Mono;fontSize=10;" parent="1" vertex="1">
          <mxGeometry x="10" y="220" width="200" height="30" as="geometry" />
        </mxCell>
        <mxCell id="f2kKjeTjMtvJFFK6bC5a-26" style="edgeStyle=orthogonalEdgeStyle;rounded=0;orthogonalLoop=1;jettySize=auto;html=1;exitX=0.5;exitY=1;exitDx=0;exitDy=0;entryX=0.5;entryY=1;entryDx=0;entryDy=0;fontSize=10;fontFamily=JetBrains Mono;" parent="1" source="f2kKjeTjMtvJFFK6bC5a-23" target="f2kKjeTjMtvJFFK6bC5a-12" edge="1">
          <mxGeometry relative="1" as="geometry" />
        </mxCell>
        <mxCell id="f2kKjeTjMtvJFFK6bC5a-23" value="i = i + 1" style="rounded=0;whiteSpace=wrap;html=1;strokeWidth=2;fontFamily=JetBrains Mono;fontSize=10;" parent="1" vertex="1">
          <mxGeometry x="10" y="270" width="200" height="30" as="geometry" />
        </mxCell>
        <mxCell id="f2kKjeTjMtvJFFK6bC5a-63" style="edgeStyle=orthogonalEdgeStyle;rounded=0;orthogonalLoop=1;jettySize=auto;html=1;exitX=0.5;exitY=0;exitDx=0;exitDy=0;entryX=0.5;entryY=0;entryDx=0;entryDy=0;fontFamily=JetBrains Mono;fontSize=10;" parent="1" source="f2kKjeTjMtvJFFK6bC5a-27" target="f2kKjeTjMtvJFFK6bC5a-62" edge="1">
          <mxGeometry relative="1" as="geometry" />
        </mxCell>
        <mxCell id="f2kKjeTjMtvJFFK6bC5a-27" value="&lt;div style=&quot;font-size: 10px;&quot;&gt;&lt;br style=&quot;font-size: 10px;&quot;&gt;&lt;/div&gt;&lt;div style=&quot;font-size: 10px;&quot;&gt;Б&lt;/div&gt;" style="shape=loopLimit;whiteSpace=wrap;html=1;size=20;direction=west;strokeWidth=2;fontFamily=JetBrains Mono;fontSize=10;" parent="1" vertex="1">
          <mxGeometry x="10" y="1050" width="200" height="41" as="geometry" />
        </mxCell>
        <mxCell id="f2kKjeTjMtvJFFK6bC5a-42" style="edgeStyle=orthogonalEdgeStyle;rounded=0;orthogonalLoop=1;jettySize=auto;html=1;exitX=0.5;exitY=1;exitDx=0;exitDy=0;entryX=0.5;entryY=0;entryDx=0;entryDy=0;fontSize=10;fontFamily=JetBrains Mono;" parent="1" source="f2kKjeTjMtvJFFK6bC5a-28" target="f2kKjeTjMtvJFFK6bC5a-35" edge="1">
          <mxGeometry relative="1" as="geometry" />
        </mxCell>
        <mxCell id="f2kKjeTjMtvJFFK6bC5a-28" value="&lt;div style=&quot;font-size: 10px;&quot;&gt;Б&lt;/div&gt;&lt;div style=&quot;font-size: 10px;&quot;&gt;j &amp;gt;= n&lt;/div&gt;" style="shape=loopLimit;whiteSpace=wrap;html=1;size=18;direction=east;strokeWidth=2;fontFamily=JetBrains Mono;fontSize=10;" parent="1" vertex="1">
          <mxGeometry x="10" y="430" width="200" height="39" as="geometry" />
        </mxCell>
        <mxCell id="f2kKjeTjMtvJFFK6bC5a-32" style="edgeStyle=orthogonalEdgeStyle;rounded=0;orthogonalLoop=1;jettySize=auto;html=1;exitX=0.5;exitY=1;exitDx=0;exitDy=0;entryX=0.5;entryY=0;entryDx=0;entryDy=0;fontSize=10;fontFamily=JetBrains Mono;" parent="1" source="f2kKjeTjMtvJFFK6bC5a-29" target="f2kKjeTjMtvJFFK6bC5a-28" edge="1">
          <mxGeometry relative="1" as="geometry" />
        </mxCell>
        <mxCell id="f2kKjeTjMtvJFFK6bC5a-29" value="j = 0" style="rounded=0;whiteSpace=wrap;html=1;strokeWidth=2;fontFamily=JetBrains Mono;fontSize=10;" parent="1" vertex="1">
          <mxGeometry x="10" y="380" width="200" height="30" as="geometry" />
        </mxCell>
        <mxCell id="f2kKjeTjMtvJFFK6bC5a-30" value="j - счётчик цикла Б" style="strokeWidth=2;html=1;shape=mxgraph.flowchart.annotation_1;align=left;pointerEvents=1;fontFamily=JetBrains Mono;fontSize=10;" parent="1" vertex="1">
          <mxGeometry x="230" y="380" width="10" height="30" as="geometry" />
        </mxCell>
        <mxCell id="f2kKjeTjMtvJFFK6bC5a-34" style="edgeStyle=orthogonalEdgeStyle;rounded=0;orthogonalLoop=1;jettySize=auto;html=1;exitX=0.5;exitY=1;exitDx=0;exitDy=0;entryX=0.5;entryY=1;entryDx=0;entryDy=0;fontSize=10;fontFamily=JetBrains Mono;" parent="1" source="f2kKjeTjMtvJFFK6bC5a-33" target="f2kKjeTjMtvJFFK6bC5a-27" edge="1">
          <mxGeometry relative="1" as="geometry" />
        </mxCell>
        <mxCell id="f2kKjeTjMtvJFFK6bC5a-33" value="j=j+1" style="rounded=0;whiteSpace=wrap;html=1;strokeWidth=2;fontFamily=JetBrains Mono;fontSize=10;" parent="1" vertex="1">
          <mxGeometry x="10" y="1000" width="200" height="30" as="geometry" />
        </mxCell>
        <mxCell id="f2kKjeTjMtvJFFK6bC5a-37" style="edgeStyle=orthogonalEdgeStyle;rounded=0;orthogonalLoop=1;jettySize=auto;html=1;exitX=0.5;exitY=1;exitDx=0;exitDy=0;entryX=0.5;entryY=0;entryDx=0;entryDy=0;fontSize=10;fontFamily=JetBrains Mono;" parent="1" source="f2kKjeTjMtvJFFK6bC5a-35" target="f2kKjeTjMtvJFFK6bC5a-36" edge="1">
          <mxGeometry relative="1" as="geometry" />
        </mxCell>
        <mxCell id="f2kKjeTjMtvJFFK6bC5a-38" value="1" style="edgeLabel;html=1;align=center;verticalAlign=middle;resizable=0;points=[];fontFamily=JetBrains Mono;fontSize=10;" parent="f2kKjeTjMtvJFFK6bC5a-37" vertex="1" connectable="0">
          <mxGeometry x="-0.3524" y="1" relative="1" as="geometry">
            <mxPoint x="9" y="4" as="offset" />
          </mxGeometry>
        </mxCell>
        <mxCell id="f2kKjeTjMtvJFFK6bC5a-47" style="edgeStyle=orthogonalEdgeStyle;rounded=0;orthogonalLoop=1;jettySize=auto;html=1;exitX=1;exitY=0.5;exitDx=0;exitDy=0;entryX=0.5;entryY=0;entryDx=0;entryDy=0;fontSize=10;fontFamily=JetBrains Mono;" parent="1" source="f2kKjeTjMtvJFFK6bC5a-35" target="f2kKjeTjMtvJFFK6bC5a-44" edge="1">
          <mxGeometry relative="1" as="geometry" />
        </mxCell>
        <mxCell id="f2kKjeTjMtvJFFK6bC5a-60" value="0" style="edgeLabel;html=1;align=center;verticalAlign=middle;resizable=0;points=[];fontFamily=JetBrains Mono;fontSize=10;" parent="f2kKjeTjMtvJFFK6bC5a-47" vertex="1" connectable="0">
          <mxGeometry x="-0.5877" y="-4" relative="1" as="geometry">
            <mxPoint x="-134" y="-14" as="offset" />
          </mxGeometry>
        </mxCell>
        <mxCell id="f2kKjeTjMtvJFFK6bC5a-35" value="arr[i] = 0" style="rhombus;whiteSpace=wrap;html=1;strokeWidth=2;fontFamily=JetBrains Mono;fontSize=10;" parent="1" vertex="1">
          <mxGeometry x="10" y="490" width="200" height="60" as="geometry" />
        </mxCell>
        <mxCell id="f2kKjeTjMtvJFFK6bC5a-40" style="edgeStyle=orthogonalEdgeStyle;rounded=0;orthogonalLoop=1;jettySize=auto;html=1;exitX=0.5;exitY=1;exitDx=0;exitDy=0;entryX=0.5;entryY=0;entryDx=0;entryDy=0;fontSize=10;fontFamily=JetBrains Mono;" parent="1" source="f2kKjeTjMtvJFFK6bC5a-36" target="f2kKjeTjMtvJFFK6bC5a-39" edge="1">
          <mxGeometry relative="1" as="geometry" />
        </mxCell>
        <mxCell id="f2kKjeTjMtvJFFK6bC5a-41" value="1" style="edgeLabel;html=1;align=center;verticalAlign=middle;resizable=0;points=[];fontFamily=JetBrains Mono;fontSize=10;" parent="f2kKjeTjMtvJFFK6bC5a-40" vertex="1" connectable="0">
          <mxGeometry x="-0.45" relative="1" as="geometry">
            <mxPoint x="10" y="4" as="offset" />
          </mxGeometry>
        </mxCell>
        <mxCell id="f2kKjeTjMtvJFFK6bC5a-49" style="edgeStyle=orthogonalEdgeStyle;rounded=0;orthogonalLoop=1;jettySize=auto;html=1;exitX=1;exitY=0.5;exitDx=0;exitDy=0;entryX=0.5;entryY=0;entryDx=0;entryDy=0;fontSize=10;fontFamily=JetBrains Mono;" parent="1" source="f2kKjeTjMtvJFFK6bC5a-36" target="f2kKjeTjMtvJFFK6bC5a-48" edge="1">
          <mxGeometry relative="1" as="geometry" />
        </mxCell>
        <mxCell id="f2kKjeTjMtvJFFK6bC5a-59" value="0" style="edgeLabel;html=1;align=center;verticalAlign=middle;resizable=0;points=[];fontFamily=JetBrains Mono;fontSize=10;" parent="f2kKjeTjMtvJFFK6bC5a-49" vertex="1" connectable="0">
          <mxGeometry x="-0.8044" relative="1" as="geometry">
            <mxPoint x="-3" y="-10" as="offset" />
          </mxGeometry>
        </mxCell>
        <mxCell id="f2kKjeTjMtvJFFK6bC5a-36" value="i = 0" style="rhombus;whiteSpace=wrap;html=1;strokeWidth=2;fontFamily=JetBrains Mono;fontSize=10;" parent="1" vertex="1">
          <mxGeometry x="10" y="570" width="200" height="60" as="geometry" />
        </mxCell>
        <mxCell id="f2kKjeTjMtvJFFK6bC5a-55" style="edgeStyle=orthogonalEdgeStyle;rounded=0;orthogonalLoop=1;jettySize=auto;html=1;exitX=0.5;exitY=1;exitDx=0;exitDy=0;entryX=0.5;entryY=0;entryDx=0;entryDy=0;fontFamily=JetBrains Mono;fontSize=10;" parent="1" source="f2kKjeTjMtvJFFK6bC5a-39" target="f2kKjeTjMtvJFFK6bC5a-33" edge="1">
          <mxGeometry relative="1" as="geometry" />
        </mxCell>
        <mxCell id="f2kKjeTjMtvJFFK6bC5a-39" value="narr[0] = arr[n-1] + arr[n-2]" style="rounded=0;whiteSpace=wrap;html=1;strokeWidth=2;fontFamily=JetBrains Mono;fontSize=10;" parent="1" vertex="1">
          <mxGeometry x="10" y="650" width="200" height="30" as="geometry" />
        </mxCell>
        <mxCell id="f2kKjeTjMtvJFFK6bC5a-58" style="edgeStyle=orthogonalEdgeStyle;rounded=0;orthogonalLoop=1;jettySize=auto;html=1;exitX=0.5;exitY=1;exitDx=0;exitDy=0;entryX=0.5;entryY=0;entryDx=0;entryDy=0;fontFamily=JetBrains Mono;fontSize=10;" parent="1" source="f2kKjeTjMtvJFFK6bC5a-44" target="f2kKjeTjMtvJFFK6bC5a-33" edge="1">
          <mxGeometry relative="1" as="geometry" />
        </mxCell>
        <mxCell id="f2kKjeTjMtvJFFK6bC5a-44" value="narr[i] = arr[i]" style="rounded=0;whiteSpace=wrap;html=1;strokeWidth=2;fontFamily=JetBrains Mono;fontSize=10;" parent="1" vertex="1">
          <mxGeometry x="400" y="880" width="200" height="30" as="geometry" />
        </mxCell>
        <mxCell id="f2kKjeTjMtvJFFK6bC5a-51" style="edgeStyle=orthogonalEdgeStyle;rounded=0;orthogonalLoop=1;jettySize=auto;html=1;exitX=0.5;exitY=1;exitDx=0;exitDy=0;entryX=0.5;entryY=0;entryDx=0;entryDy=0;fontFamily=JetBrains Mono;fontSize=10;" parent="1" source="f2kKjeTjMtvJFFK6bC5a-48" target="f2kKjeTjMtvJFFK6bC5a-50" edge="1">
          <mxGeometry relative="1" as="geometry" />
        </mxCell>
        <mxCell id="f2kKjeTjMtvJFFK6bC5a-52" value="1" style="edgeLabel;html=1;align=center;verticalAlign=middle;resizable=0;points=[];fontFamily=JetBrains Mono;fontSize=10;" parent="f2kKjeTjMtvJFFK6bC5a-51" vertex="1" connectable="0">
          <mxGeometry x="-0.2" y="2" relative="1" as="geometry">
            <mxPoint x="4" as="offset" />
          </mxGeometry>
        </mxCell>
        <mxCell id="f2kKjeTjMtvJFFK6bC5a-54" style="edgeStyle=orthogonalEdgeStyle;rounded=0;orthogonalLoop=1;jettySize=auto;html=1;exitX=1;exitY=0.5;exitDx=0;exitDy=0;entryX=0.5;entryY=0;entryDx=0;entryDy=0;fontFamily=JetBrains Mono;fontSize=10;" parent="1" source="f2kKjeTjMtvJFFK6bC5a-48" target="f2kKjeTjMtvJFFK6bC5a-53" edge="1">
          <mxGeometry relative="1" as="geometry" />
        </mxCell>
        <mxCell id="f2kKjeTjMtvJFFK6bC5a-61" value="0" style="edgeLabel;html=1;align=center;verticalAlign=middle;resizable=0;points=[];fontFamily=JetBrains Mono;fontSize=10;" parent="f2kKjeTjMtvJFFK6bC5a-54" vertex="1" connectable="0">
          <mxGeometry x="-0.7353" y="1" relative="1" as="geometry">
            <mxPoint x="-7" y="-9" as="offset" />
          </mxGeometry>
        </mxCell>
        <mxCell id="f2kKjeTjMtvJFFK6bC5a-48" value="&lt;font style=&quot;font-size: 10px;&quot;&gt;i = 1&lt;/font&gt;" style="rhombus;whiteSpace=wrap;html=1;strokeWidth=2;fontFamily=JetBrains Mono;fontSize=10;" parent="1" vertex="1">
          <mxGeometry x="140" y="700" width="200" height="60" as="geometry" />
        </mxCell>
        <mxCell id="f2kKjeTjMtvJFFK6bC5a-56" style="edgeStyle=orthogonalEdgeStyle;rounded=0;orthogonalLoop=1;jettySize=auto;html=1;exitX=0.5;exitY=1;exitDx=0;exitDy=0;entryX=0.5;entryY=0;entryDx=0;entryDy=0;fontFamily=JetBrains Mono;fontSize=10;" parent="1" source="f2kKjeTjMtvJFFK6bC5a-50" target="f2kKjeTjMtvJFFK6bC5a-33" edge="1">
          <mxGeometry relative="1" as="geometry" />
        </mxCell>
        <mxCell id="f2kKjeTjMtvJFFK6bC5a-50" value="narr[1] = arr[0] + arr[n-1]" style="rounded=0;whiteSpace=wrap;html=1;strokeWidth=2;fontFamily=JetBrains Mono;fontSize=10;" parent="1" vertex="1">
          <mxGeometry x="140" y="780" width="200" height="30" as="geometry" />
        </mxCell>
        <mxCell id="f2kKjeTjMtvJFFK6bC5a-57" style="edgeStyle=orthogonalEdgeStyle;rounded=0;orthogonalLoop=1;jettySize=auto;html=1;exitX=0.5;exitY=1;exitDx=0;exitDy=0;entryX=0.5;entryY=0;entryDx=0;entryDy=0;fontFamily=JetBrains Mono;fontSize=10;" parent="1" source="f2kKjeTjMtvJFFK6bC5a-53" target="f2kKjeTjMtvJFFK6bC5a-33" edge="1">
          <mxGeometry relative="1" as="geometry" />
        </mxCell>
        <mxCell id="f2kKjeTjMtvJFFK6bC5a-53" value="narr[1] = arr[0] + arr[n-1]" style="rounded=0;whiteSpace=wrap;html=1;strokeWidth=2;fontFamily=JetBrains Mono;fontSize=10;" parent="1" vertex="1">
          <mxGeometry x="270" y="830" width="200" height="30" as="geometry" />
        </mxCell>
        <mxCell id="f2kKjeTjMtvJFFK6bC5a-62" value="&lt;font style=&quot;font-size: 10px;&quot;&gt;A1&lt;/font&gt;" style="ellipse;whiteSpace=wrap;html=1;aspect=fixed;strokeWidth=2;fontFamily=JetBrains Mono;fontSize=10;" parent="1" vertex="1">
          <mxGeometry x="95" y="1110" width="30" height="30" as="geometry" />
        </mxCell>
        <mxCell id="f2kKjeTjMtvJFFK6bC5a-68" style="edgeStyle=orthogonalEdgeStyle;rounded=0;orthogonalLoop=1;jettySize=auto;html=1;exitX=0.5;exitY=1;exitDx=0;exitDy=0;entryX=0.5;entryY=0;entryDx=0;entryDy=0;fontFamily=JetBrains Mono;fontSize=10;" parent="1" source="f2kKjeTjMtvJFFK6bC5a-64" target="f2kKjeTjMtvJFFK6bC5a-67" edge="1">
          <mxGeometry relative="1" as="geometry" />
        </mxCell>
        <mxCell id="f2kKjeTjMtvJFFK6bC5a-64" value="&lt;font style=&quot;font-size: 10px;&quot;&gt;A1&lt;/font&gt;" style="ellipse;whiteSpace=wrap;html=1;aspect=fixed;strokeWidth=2;fontFamily=JetBrains Mono;fontSize=10;" parent="1" vertex="1">
          <mxGeometry x="485" y="10" width="30" height="30" as="geometry" />
        </mxCell>
        <mxCell id="f2kKjeTjMtvJFFK6bC5a-77" style="edgeStyle=orthogonalEdgeStyle;rounded=0;orthogonalLoop=1;jettySize=auto;html=1;exitX=0.5;exitY=0;exitDx=0;exitDy=0;entryX=0.5;entryY=0;entryDx=0;entryDy=0;fontFamily=JetBrains Mono;fontSize=10;" parent="1" source="f2kKjeTjMtvJFFK6bC5a-65" target="f2kKjeTjMtvJFFK6bC5a-76" edge="1">
          <mxGeometry relative="1" as="geometry" />
        </mxCell>
        <mxCell id="f2kKjeTjMtvJFFK6bC5a-65" value="&lt;div style=&quot;font-size: 10px;&quot;&gt;&lt;br style=&quot;font-size: 10px;&quot;&gt;&lt;/div&gt;&lt;div style=&quot;font-size: 10px;&quot;&gt;В&lt;/div&gt;" style="shape=loopLimit;whiteSpace=wrap;html=1;size=20;direction=west;strokeWidth=2;fontFamily=JetBrains Mono;fontSize=10;" parent="1" vertex="1">
          <mxGeometry x="400" y="271" width="200" height="41" as="geometry" />
        </mxCell>
        <mxCell id="f2kKjeTjMtvJFFK6bC5a-73" style="edgeStyle=orthogonalEdgeStyle;rounded=0;orthogonalLoop=1;jettySize=auto;html=1;exitX=0.5;exitY=1;exitDx=0;exitDy=0;entryX=0.5;entryY=0;entryDx=0;entryDy=0;fontFamily=JetBrains Mono;fontSize=10;" parent="1" source="f2kKjeTjMtvJFFK6bC5a-66" target="f2kKjeTjMtvJFFK6bC5a-72" edge="1">
          <mxGeometry relative="1" as="geometry" />
        </mxCell>
        <mxCell id="f2kKjeTjMtvJFFK6bC5a-66" value="&lt;div style=&quot;font-size: 10px;&quot;&gt;В&lt;/div&gt;&lt;div style=&quot;font-size: 10px;&quot;&gt;&lt;span style=&quot;font-size: 10px;&quot;&gt;k &amp;gt;= n&lt;/span&gt;&lt;br style=&quot;font-size: 10px;&quot;&gt;&lt;/div&gt;" style="shape=loopLimit;whiteSpace=wrap;html=1;size=18;direction=east;strokeWidth=2;fontFamily=JetBrains Mono;fontSize=10;" parent="1" vertex="1">
          <mxGeometry x="400" y="110" width="200" height="39" as="geometry" />
        </mxCell>
        <mxCell id="f2kKjeTjMtvJFFK6bC5a-69" style="edgeStyle=orthogonalEdgeStyle;rounded=0;orthogonalLoop=1;jettySize=auto;html=1;exitX=0.5;exitY=1;exitDx=0;exitDy=0;entryX=0.5;entryY=0;entryDx=0;entryDy=0;fontFamily=JetBrains Mono;fontSize=10;" parent="1" source="f2kKjeTjMtvJFFK6bC5a-67" target="f2kKjeTjMtvJFFK6bC5a-66" edge="1">
          <mxGeometry relative="1" as="geometry" />
        </mxCell>
        <mxCell id="f2kKjeTjMtvJFFK6bC5a-67" value="k = 0" style="rounded=0;whiteSpace=wrap;html=1;strokeWidth=2;fontFamily=JetBrains Mono;fontSize=10;" parent="1" vertex="1">
          <mxGeometry x="400" y="60" width="200" height="30" as="geometry" />
        </mxCell>
        <mxCell id="f2kKjeTjMtvJFFK6bC5a-71" style="edgeStyle=orthogonalEdgeStyle;rounded=0;orthogonalLoop=1;jettySize=auto;html=1;exitX=0.5;exitY=1;exitDx=0;exitDy=0;entryX=0.5;entryY=1;entryDx=0;entryDy=0;fontFamily=JetBrains Mono;fontSize=10;" parent="1" source="f2kKjeTjMtvJFFK6bC5a-70" target="f2kKjeTjMtvJFFK6bC5a-65" edge="1">
          <mxGeometry relative="1" as="geometry" />
        </mxCell>
        <mxCell id="f2kKjeTjMtvJFFK6bC5a-70" value="k = k + 1" style="rounded=0;whiteSpace=wrap;html=1;strokeWidth=2;fontFamily=JetBrains Mono;fontSize=10;" parent="1" vertex="1">
          <mxGeometry x="400" y="220" width="200" height="30" as="geometry" />
        </mxCell>
        <mxCell id="f2kKjeTjMtvJFFK6bC5a-74" style="edgeStyle=orthogonalEdgeStyle;rounded=0;orthogonalLoop=1;jettySize=auto;html=1;exitX=0.5;exitY=1;exitDx=0;exitDy=0;entryX=0.5;entryY=0;entryDx=0;entryDy=0;fontFamily=JetBrains Mono;fontSize=10;" parent="1" source="f2kKjeTjMtvJFFK6bC5a-72" target="f2kKjeTjMtvJFFK6bC5a-70" edge="1">
          <mxGeometry relative="1" as="geometry" />
        </mxCell>
        <mxCell id="f2kKjeTjMtvJFFK6bC5a-72" value="Вывод narr[i]" style="shape=parallelogram;perimeter=parallelogramPerimeter;whiteSpace=wrap;html=1;fixedSize=1;size=30;container=0;strokeWidth=2;fontFamily=JetBrains Mono;fontSize=10;" parent="1" vertex="1">
          <mxGeometry x="400" y="169" width="200" height="30" as="geometry" />
        </mxCell>
        <mxCell id="f2kKjeTjMtvJFFK6bC5a-76" value="Конец" style="rounded=1;whiteSpace=wrap;html=1;arcSize=50;container=0;strokeWidth=2;fontFamily=JetBrains Mono;fontSize=10;" parent="1" vertex="1">
          <mxGeometry x="400" y="331" width="200" height="30" as="geometry" />
        </mxCell>
        <mxCell id="f2kKjeTjMtvJFFK6bC5a-78" style="edgeStyle=orthogonalEdgeStyle;rounded=0;orthogonalLoop=1;jettySize=auto;html=1;exitX=1;exitY=0.5;exitDx=0;exitDy=0;entryX=0;entryY=0.5;entryDx=0;entryDy=0;entryPerimeter=0;dashed=1;endArrow=none;endFill=0;fontFamily=JetBrains Mono;fontSize=10;" parent="1" source="f2kKjeTjMtvJFFK6bC5a-29" target="f2kKjeTjMtvJFFK6bC5a-30" edge="1">
          <mxGeometry relative="1" as="geometry" />
        </mxCell>
        <mxCell id="f2kKjeTjMtvJFFK6bC5a-79" value="k - счётчик цикла В" style="strokeWidth=2;html=1;shape=mxgraph.flowchart.annotation_1;align=right;pointerEvents=1;fontFamily=JetBrains Mono;direction=west;fontSize=10;" parent="1" vertex="1">
          <mxGeometry x="365" y="10" width="10" height="30" as="geometry" />
        </mxCell>
        <mxCell id="f2kKjeTjMtvJFFK6bC5a-80" style="edgeStyle=none;rounded=0;orthogonalLoop=1;jettySize=auto;html=1;exitX=0;exitY=0.5;exitDx=0;exitDy=0;entryX=0;entryY=0.5;entryDx=0;entryDy=0;entryPerimeter=0;endArrow=none;endFill=0;dashed=1;fontFamily=JetBrains Mono;fontSize=10;" parent="1" source="f2kKjeTjMtvJFFK6bC5a-67" target="f2kKjeTjMtvJFFK6bC5a-79" edge="1">
          <mxGeometry relative="1" as="geometry" />
        </mxCell>
      </root>
    </mxGraphModel>
  </diagram>
  <diagram id="y5gYdADrStuWBixT9PHJ" name="14">
    <mxGraphModel dx="1434" dy="836" grid="1" gridSize="10" guides="1" tooltips="1" connect="1" arrows="1" fold="1" page="1" pageScale="1" pageWidth="827" pageHeight="1169" math="0" shadow="0">
      <root>
        <mxCell id="0" />
        <mxCell id="1" parent="0" />
        <mxCell id="_cCR4_YlH0TKeHnu6PQw-21" style="edgeStyle=orthogonalEdgeStyle;rounded=0;orthogonalLoop=1;jettySize=auto;html=1;exitX=0.5;exitY=1;exitDx=0;exitDy=0;entryX=0.5;entryY=0;entryDx=0;entryDy=0;fontSize=10;fontFamily=JetBrains Mono;" edge="1" parent="1" source="_cCR4_YlH0TKeHnu6PQw-4" target="_cCR4_YlH0TKeHnu6PQw-6">
          <mxGeometry relative="1" as="geometry" />
        </mxCell>
        <mxCell id="_cCR4_YlH0TKeHnu6PQw-4" value="Начало" style="rounded=1;whiteSpace=wrap;html=1;arcSize=50;container=0;strokeWidth=2;fontFamily=JetBrains Mono;fontSize=10;" vertex="1" parent="1">
          <mxGeometry x="10" y="10" width="200" height="30" as="geometry" />
        </mxCell>
        <mxCell id="_cCR4_YlH0TKeHnu6PQw-22" style="edgeStyle=orthogonalEdgeStyle;rounded=0;orthogonalLoop=1;jettySize=auto;html=1;exitX=0.5;exitY=1;exitDx=0;exitDy=0;entryX=0.5;entryY=0;entryDx=0;entryDy=0;fontSize=10;fontFamily=JetBrains Mono;" edge="1" parent="1" source="_cCR4_YlH0TKeHnu6PQw-6" target="_cCR4_YlH0TKeHnu6PQw-14">
          <mxGeometry relative="1" as="geometry" />
        </mxCell>
        <mxCell id="_cCR4_YlH0TKeHnu6PQw-6" value="Ввод n" style="shape=parallelogram;perimeter=parallelogramPerimeter;whiteSpace=wrap;html=1;fixedSize=1;size=30;container=0;strokeWidth=2;fontFamily=JetBrains Mono;fontSize=10;" vertex="1" parent="1">
          <mxGeometry x="10" y="60" width="200" height="30" as="geometry" />
        </mxCell>
        <mxCell id="_cCR4_YlH0TKeHnu6PQw-32" style="edgeStyle=orthogonalEdgeStyle;rounded=0;orthogonalLoop=1;jettySize=auto;html=1;exitX=0.5;exitY=0;exitDx=0;exitDy=0;entryX=0.5;entryY=0;entryDx=0;entryDy=0;fontSize=10;fontFamily=JetBrains Mono;" edge="1" parent="1" source="_cCR4_YlH0TKeHnu6PQw-8" target="_cCR4_YlH0TKeHnu6PQw-27">
          <mxGeometry relative="1" as="geometry" />
        </mxCell>
        <mxCell id="_cCR4_YlH0TKeHnu6PQw-8" value="&lt;div style=&quot;font-size: 10px;&quot;&gt;&lt;br style=&quot;font-size: 10px;&quot;&gt;&lt;/div&gt;&lt;div style=&quot;font-size: 10px;&quot;&gt;A&lt;/div&gt;" style="shape=loopLimit;whiteSpace=wrap;html=1;size=20;direction=west;strokeWidth=2;fontFamily=JetBrains Mono;fontSize=10;" vertex="1" parent="1">
          <mxGeometry x="10" y="320" width="200" height="41" as="geometry" />
        </mxCell>
        <mxCell id="_cCR4_YlH0TKeHnu6PQw-24" style="edgeStyle=orthogonalEdgeStyle;rounded=0;orthogonalLoop=1;jettySize=auto;html=1;exitX=0.5;exitY=1;exitDx=0;exitDy=0;entryX=0.5;entryY=0;entryDx=0;entryDy=0;fontSize=10;fontFamily=JetBrains Mono;" edge="1" parent="1" source="_cCR4_YlH0TKeHnu6PQw-9" target="_cCR4_YlH0TKeHnu6PQw-20">
          <mxGeometry relative="1" as="geometry" />
        </mxCell>
        <mxCell id="_cCR4_YlH0TKeHnu6PQw-9" value="&lt;div style=&quot;font-size: 10px;&quot;&gt;A&lt;/div&gt;&lt;div style=&quot;font-size: 10px;&quot;&gt;i &amp;gt;= n&lt;/div&gt;" style="shape=loopLimit;whiteSpace=wrap;html=1;size=18;direction=east;strokeWidth=2;fontFamily=JetBrains Mono;fontSize=10;" vertex="1" parent="1">
          <mxGeometry x="10" y="160" width="200" height="39" as="geometry" />
        </mxCell>
        <mxCell id="_cCR4_YlH0TKeHnu6PQw-23" style="edgeStyle=orthogonalEdgeStyle;rounded=0;orthogonalLoop=1;jettySize=auto;html=1;exitX=0.5;exitY=1;exitDx=0;exitDy=0;entryX=0.5;entryY=0;entryDx=0;entryDy=0;fontSize=10;fontFamily=JetBrains Mono;" edge="1" parent="1" source="_cCR4_YlH0TKeHnu6PQw-14" target="_cCR4_YlH0TKeHnu6PQw-9">
          <mxGeometry relative="1" as="geometry" />
        </mxCell>
        <mxCell id="_cCR4_YlH0TKeHnu6PQw-14" value="i = 0" style="rounded=0;whiteSpace=wrap;html=1;strokeWidth=2;fontFamily=JetBrains Mono;fontSize=10;" vertex="1" parent="1">
          <mxGeometry x="10" y="110" width="200" height="30" as="geometry" />
        </mxCell>
        <mxCell id="_cCR4_YlH0TKeHnu6PQw-15" value="n - кол-во элементов" style="strokeWidth=2;html=1;shape=mxgraph.flowchart.annotation_1;align=left;pointerEvents=1;fontFamily=JetBrains Mono;fontSize=10;" vertex="1" parent="1">
          <mxGeometry x="250" y="60" width="10" height="30" as="geometry" />
        </mxCell>
        <mxCell id="_cCR4_YlH0TKeHnu6PQw-16" style="edgeStyle=orthogonalEdgeStyle;rounded=0;orthogonalLoop=1;jettySize=auto;html=1;exitX=1;exitY=0.5;exitDx=0;exitDy=0;entryX=0;entryY=0.5;entryDx=0;entryDy=0;entryPerimeter=0;endArrow=none;endFill=0;dashed=1;fontSize=10;fontFamily=JetBrains Mono;" edge="1" parent="1" source="_cCR4_YlH0TKeHnu6PQw-6" target="_cCR4_YlH0TKeHnu6PQw-15">
          <mxGeometry relative="1" as="geometry" />
        </mxCell>
        <mxCell id="_cCR4_YlH0TKeHnu6PQw-17" value="i - счётчик цикла А" style="strokeWidth=2;html=1;shape=mxgraph.flowchart.annotation_1;align=left;pointerEvents=1;fontFamily=JetBrains Mono;fontSize=10;" vertex="1" parent="1">
          <mxGeometry x="250" y="110" width="10" height="30" as="geometry" />
        </mxCell>
        <mxCell id="_cCR4_YlH0TKeHnu6PQw-18" style="edgeStyle=none;rounded=0;orthogonalLoop=1;jettySize=auto;html=1;exitX=1;exitY=0.5;exitDx=0;exitDy=0;entryX=0;entryY=0.5;entryDx=0;entryDy=0;entryPerimeter=0;endArrow=none;endFill=0;dashed=1;fontSize=10;fontFamily=JetBrains Mono;" edge="1" parent="1" source="_cCR4_YlH0TKeHnu6PQw-14" target="_cCR4_YlH0TKeHnu6PQw-17">
          <mxGeometry relative="1" as="geometry" />
        </mxCell>
        <mxCell id="_cCR4_YlH0TKeHnu6PQw-26" style="edgeStyle=orthogonalEdgeStyle;rounded=0;orthogonalLoop=1;jettySize=auto;html=1;exitX=0.5;exitY=1;exitDx=0;exitDy=0;entryX=0.5;entryY=1;entryDx=0;entryDy=0;fontSize=10;fontFamily=JetBrains Mono;" edge="1" parent="1" source="_cCR4_YlH0TKeHnu6PQw-19" target="_cCR4_YlH0TKeHnu6PQw-8">
          <mxGeometry relative="1" as="geometry" />
        </mxCell>
        <mxCell id="_cCR4_YlH0TKeHnu6PQw-19" value="i = i + 1" style="rounded=0;whiteSpace=wrap;html=1;strokeWidth=2;fontFamily=JetBrains Mono;fontSize=10;" vertex="1" parent="1">
          <mxGeometry x="10" y="270" width="200" height="30" as="geometry" />
        </mxCell>
        <mxCell id="_cCR4_YlH0TKeHnu6PQw-25" style="edgeStyle=orthogonalEdgeStyle;rounded=0;orthogonalLoop=1;jettySize=auto;html=1;exitX=0.5;exitY=1;exitDx=0;exitDy=0;entryX=0.5;entryY=0;entryDx=0;entryDy=0;fontSize=10;fontFamily=JetBrains Mono;" edge="1" parent="1" source="_cCR4_YlH0TKeHnu6PQw-20" target="_cCR4_YlH0TKeHnu6PQw-19">
          <mxGeometry relative="1" as="geometry" />
        </mxCell>
        <mxCell id="_cCR4_YlH0TKeHnu6PQw-20" value="Ввод arr[i]" style="shape=parallelogram;perimeter=parallelogramPerimeter;whiteSpace=wrap;html=1;fixedSize=1;size=30;container=0;strokeWidth=2;fontFamily=JetBrains Mono;fontSize=10;" vertex="1" parent="1">
          <mxGeometry x="10" y="220" width="200" height="30" as="geometry" />
        </mxCell>
        <mxCell id="_cCR4_YlH0TKeHnu6PQw-33" style="edgeStyle=orthogonalEdgeStyle;rounded=0;orthogonalLoop=1;jettySize=auto;html=1;exitX=0.5;exitY=1;exitDx=0;exitDy=0;entryX=0.5;entryY=0;entryDx=0;entryDy=0;fontSize=10;fontFamily=JetBrains Mono;" edge="1" parent="1" source="_cCR4_YlH0TKeHnu6PQw-27" target="_cCR4_YlH0TKeHnu6PQw-28">
          <mxGeometry relative="1" as="geometry" />
        </mxCell>
        <mxCell id="_cCR4_YlH0TKeHnu6PQw-27" value="j = 1" style="rounded=0;whiteSpace=wrap;html=1;strokeWidth=2;fontFamily=JetBrains Mono;fontSize=10;" vertex="1" parent="1">
          <mxGeometry x="10" y="380" width="200" height="30" as="geometry" />
        </mxCell>
        <mxCell id="_cCR4_YlH0TKeHnu6PQw-34" style="edgeStyle=orthogonalEdgeStyle;rounded=0;orthogonalLoop=1;jettySize=auto;html=1;exitX=0.5;exitY=1;exitDx=0;exitDy=0;entryX=0.5;entryY=0;entryDx=0;entryDy=0;fontSize=10;fontFamily=JetBrains Mono;" edge="1" parent="1" source="_cCR4_YlH0TKeHnu6PQw-28" target="_cCR4_YlH0TKeHnu6PQw-29">
          <mxGeometry relative="1" as="geometry" />
        </mxCell>
        <mxCell id="_cCR4_YlH0TKeHnu6PQw-28" value="flag = 1&lt;div style=&quot;font-size: 10px;&quot;&gt;nneg = 1&lt;/div&gt;" style="rounded=0;whiteSpace=wrap;html=1;strokeWidth=2;fontFamily=JetBrains Mono;fontSize=10;" vertex="1" parent="1">
          <mxGeometry x="10" y="430" width="200" height="40" as="geometry" />
        </mxCell>
        <mxCell id="_cCR4_YlH0TKeHnu6PQw-35" style="edgeStyle=orthogonalEdgeStyle;rounded=0;orthogonalLoop=1;jettySize=auto;html=1;exitX=0.5;exitY=1;exitDx=0;exitDy=0;entryX=0.5;entryY=0;entryDx=0;entryDy=0;fontSize=10;fontFamily=JetBrains Mono;" edge="1" parent="1" source="_cCR4_YlH0TKeHnu6PQw-29" target="_cCR4_YlH0TKeHnu6PQw-30">
          <mxGeometry relative="1" as="geometry" />
        </mxCell>
        <mxCell id="_cCR4_YlH0TKeHnu6PQw-29" value="prev = arr[0]" style="rounded=0;whiteSpace=wrap;html=1;strokeWidth=2;fontFamily=JetBrains Mono;fontSize=10;" vertex="1" parent="1">
          <mxGeometry x="10" y="490" width="200" height="30" as="geometry" />
        </mxCell>
        <mxCell id="_cCR4_YlH0TKeHnu6PQw-36" style="edgeStyle=orthogonalEdgeStyle;rounded=0;orthogonalLoop=1;jettySize=auto;html=1;exitX=0.5;exitY=1;exitDx=0;exitDy=0;entryX=0.5;entryY=0;entryDx=0;entryDy=0;fontSize=10;fontFamily=JetBrains Mono;" edge="1" parent="1" source="_cCR4_YlH0TKeHnu6PQw-30" target="_cCR4_YlH0TKeHnu6PQw-31">
          <mxGeometry relative="1" as="geometry" />
        </mxCell>
        <mxCell id="_cCR4_YlH0TKeHnu6PQw-37" value="1" style="edgeLabel;html=1;align=center;verticalAlign=middle;resizable=0;points=[];fontFamily=JetBrains Mono;fontSize=10;" vertex="1" connectable="0" parent="_cCR4_YlH0TKeHnu6PQw-36">
          <mxGeometry x="-0.2857" relative="1" as="geometry">
            <mxPoint x="10" as="offset" />
          </mxGeometry>
        </mxCell>
        <mxCell id="7TRnRH2afvT816w-54ic-4" style="edgeStyle=orthogonalEdgeStyle;rounded=0;orthogonalLoop=1;jettySize=auto;html=1;exitX=1;exitY=0.5;exitDx=0;exitDy=0;entryX=0.5;entryY=0;entryDx=0;entryDy=0;fontSize=10;fontFamily=JetBrains Mono;" edge="1" parent="1" source="_cCR4_YlH0TKeHnu6PQw-30" target="7TRnRH2afvT816w-54ic-28">
          <mxGeometry relative="1" as="geometry">
            <mxPoint x="110" y="690" as="targetPoint" />
            <Array as="points">
              <mxPoint x="230" y="570" />
              <mxPoint x="230" y="670" />
              <mxPoint x="110" y="670" />
            </Array>
          </mxGeometry>
        </mxCell>
        <mxCell id="7TRnRH2afvT816w-54ic-6" value="0" style="edgeLabel;html=1;align=center;verticalAlign=middle;resizable=0;points=[];fontFamily=JetBrains Mono;fontSize=10;" vertex="1" connectable="0" parent="7TRnRH2afvT816w-54ic-4">
          <mxGeometry x="-0.9046" y="-1" relative="1" as="geometry">
            <mxPoint x="-12" y="-11" as="offset" />
          </mxGeometry>
        </mxCell>
        <mxCell id="_cCR4_YlH0TKeHnu6PQw-30" value="arr[0] &amp;lt; 0" style="rhombus;whiteSpace=wrap;html=1;strokeWidth=2;fontFamily=JetBrains Mono;fontSize=10;" vertex="1" parent="1">
          <mxGeometry x="10" y="540" width="200" height="60" as="geometry" />
        </mxCell>
        <mxCell id="7TRnRH2afvT816w-54ic-5" style="edgeStyle=orthogonalEdgeStyle;rounded=0;orthogonalLoop=1;jettySize=auto;html=1;exitX=0.5;exitY=1;exitDx=0;exitDy=0;entryX=0.5;entryY=0;entryDx=0;entryDy=0;fontSize=10;fontFamily=JetBrains Mono;" edge="1" parent="1" source="_cCR4_YlH0TKeHnu6PQw-31" target="7TRnRH2afvT816w-54ic-28">
          <mxGeometry relative="1" as="geometry">
            <mxPoint x="110" y="690" as="targetPoint" />
          </mxGeometry>
        </mxCell>
        <mxCell id="_cCR4_YlH0TKeHnu6PQw-31" value="nneg = 0" style="rounded=0;whiteSpace=wrap;html=1;strokeWidth=2;fontFamily=JetBrains Mono;fontSize=10;" vertex="1" parent="1">
          <mxGeometry x="10" y="620" width="200" height="30" as="geometry" />
        </mxCell>
        <mxCell id="7TRnRH2afvT816w-54ic-28" value="&lt;font style=&quot;font-size: 10px;&quot;&gt;A1&lt;/font&gt;" style="ellipse;whiteSpace=wrap;html=1;aspect=fixed;strokeWidth=2;fontFamily=JetBrains Mono;fontSize=10;" vertex="1" parent="1">
          <mxGeometry x="95" y="690" width="30" height="30" as="geometry" />
        </mxCell>
        <mxCell id="7TRnRH2afvT816w-54ic-54" style="edgeStyle=orthogonalEdgeStyle;rounded=0;orthogonalLoop=1;jettySize=auto;html=1;exitX=0.5;exitY=1;exitDx=0;exitDy=0;entryX=0.5;entryY=0;entryDx=0;entryDy=0;fontFamily=JetBrains Mono;fontSize=10;" edge="1" parent="1" source="7TRnRH2afvT816w-54ic-29" target="7TRnRH2afvT816w-54ic-34">
          <mxGeometry relative="1" as="geometry" />
        </mxCell>
        <mxCell id="7TRnRH2afvT816w-54ic-29" value="&lt;font style=&quot;font-size: 10px;&quot;&gt;A1&lt;/font&gt;" style="ellipse;whiteSpace=wrap;html=1;aspect=fixed;strokeWidth=2;fontFamily=JetBrains Mono;fontSize=10;" vertex="1" parent="1">
          <mxGeometry x="475" y="10" width="30" height="30" as="geometry" />
        </mxCell>
        <mxCell id="7TRnRH2afvT816w-54ic-30" value="Конец" style="rounded=1;whiteSpace=wrap;html=1;arcSize=50;container=0;strokeWidth=2;fontFamily=JetBrains Mono;fontSize=10;" vertex="1" parent="1">
          <mxGeometry x="390" y="580" width="200" height="30" as="geometry" />
        </mxCell>
        <mxCell id="7TRnRH2afvT816w-54ic-31" style="edgeStyle=orthogonalEdgeStyle;rounded=0;orthogonalLoop=1;jettySize=auto;html=1;exitX=0.5;exitY=0;exitDx=0;exitDy=0;entryX=0.5;entryY=0;entryDx=0;entryDy=0;fontFamily=JetBrains Mono;fontSize=10;" edge="1" parent="1" source="7TRnRH2afvT816w-54ic-32" target="7TRnRH2afvT816w-54ic-49">
          <mxGeometry relative="1" as="geometry" />
        </mxCell>
        <mxCell id="7TRnRH2afvT816w-54ic-32" value="&lt;div style=&quot;font-size: 10px;&quot;&gt;&lt;br style=&quot;font-size: 10px;&quot;&gt;&lt;/div&gt;&lt;div style=&quot;font-size: 10px;&quot;&gt;Б&lt;/div&gt;" style="shape=loopLimit;whiteSpace=wrap;html=1;size=20;direction=west;strokeWidth=2;fontFamily=JetBrains Mono;fontSize=10;" vertex="1" parent="1">
          <mxGeometry x="390" y="370" width="200" height="41" as="geometry" />
        </mxCell>
        <mxCell id="7TRnRH2afvT816w-54ic-33" style="edgeStyle=orthogonalEdgeStyle;rounded=0;orthogonalLoop=1;jettySize=auto;html=1;exitX=0.5;exitY=1;exitDx=0;exitDy=0;entryX=0.5;entryY=0;entryDx=0;entryDy=0;fontFamily=JetBrains Mono;fontSize=10;" edge="1" parent="1" source="7TRnRH2afvT816w-54ic-34" target="7TRnRH2afvT816w-54ic-38">
          <mxGeometry relative="1" as="geometry" />
        </mxCell>
        <mxCell id="7TRnRH2afvT816w-54ic-34" value="&lt;div style=&quot;font-size: 10px;&quot;&gt;Б&lt;/div&gt;&lt;div style=&quot;font-size: 10px;&quot;&gt;arr[j] &amp;lt; 0&lt;/div&gt;" style="shape=loopLimit;whiteSpace=wrap;html=1;size=18;direction=east;strokeWidth=2;fontFamily=JetBrains Mono;fontSize=10;" vertex="1" parent="1">
          <mxGeometry x="390" y="60" width="200" height="39" as="geometry" />
        </mxCell>
        <mxCell id="7TRnRH2afvT816w-54ic-35" style="edgeStyle=orthogonalEdgeStyle;rounded=0;orthogonalLoop=1;jettySize=auto;html=1;exitX=0.5;exitY=1;exitDx=0;exitDy=0;entryX=0.5;entryY=0;entryDx=0;entryDy=0;fontFamily=JetBrains Mono;fontSize=10;" edge="1" parent="1" source="7TRnRH2afvT816w-54ic-38" target="7TRnRH2afvT816w-54ic-40">
          <mxGeometry relative="1" as="geometry" />
        </mxCell>
        <mxCell id="7TRnRH2afvT816w-54ic-36" value="1" style="edgeLabel;html=1;align=center;verticalAlign=middle;resizable=0;points=[];fontFamily=JetBrains Mono;fontSize=10;" vertex="1" connectable="0" parent="7TRnRH2afvT816w-54ic-35">
          <mxGeometry x="-0.2833" relative="1" as="geometry">
            <mxPoint x="10" as="offset" />
          </mxGeometry>
        </mxCell>
        <mxCell id="7TRnRH2afvT816w-54ic-37" style="edgeStyle=orthogonalEdgeStyle;rounded=0;orthogonalLoop=1;jettySize=auto;html=1;exitX=1;exitY=0.5;exitDx=0;exitDy=0;entryX=0.5;entryY=0;entryDx=0;entryDy=0;fontFamily=JetBrains Mono;fontSize=10;" edge="1" parent="1" source="7TRnRH2afvT816w-54ic-38" target="7TRnRH2afvT816w-54ic-42">
          <mxGeometry relative="1" as="geometry">
            <Array as="points">
              <mxPoint x="610" y="150" />
              <mxPoint x="610" y="250" />
              <mxPoint x="490" y="250" />
            </Array>
          </mxGeometry>
        </mxCell>
        <mxCell id="CexVPV8KYLlOb-YDt6a7-1" value="0" style="edgeLabel;html=1;align=center;verticalAlign=middle;resizable=0;points=[];fontFamily=JetBrains Mono;fontSize=10;" vertex="1" connectable="0" parent="7TRnRH2afvT816w-54ic-37">
          <mxGeometry x="-0.918" y="1" relative="1" as="geometry">
            <mxPoint x="-11" y="-9" as="offset" />
          </mxGeometry>
        </mxCell>
        <mxCell id="7TRnRH2afvT816w-54ic-38" value="arr[j] &amp;gt;= prev" style="rhombus;whiteSpace=wrap;html=1;strokeWidth=2;fontFamily=JetBrains Mono;fontSize=10;" vertex="1" parent="1">
          <mxGeometry x="390" y="120" width="200" height="60" as="geometry" />
        </mxCell>
        <mxCell id="7TRnRH2afvT816w-54ic-39" style="edgeStyle=orthogonalEdgeStyle;rounded=0;orthogonalLoop=1;jettySize=auto;html=1;exitX=0.5;exitY=1;exitDx=0;exitDy=0;entryX=0.5;entryY=0;entryDx=0;entryDy=0;fontFamily=JetBrains Mono;fontSize=10;" edge="1" parent="1" source="7TRnRH2afvT816w-54ic-40" target="7TRnRH2afvT816w-54ic-42">
          <mxGeometry relative="1" as="geometry" />
        </mxCell>
        <mxCell id="7TRnRH2afvT816w-54ic-40" value="flag = 0" style="rounded=0;whiteSpace=wrap;html=1;strokeWidth=2;fontFamily=JetBrains Mono;fontSize=10;" vertex="1" parent="1">
          <mxGeometry x="390" y="200" width="200" height="30" as="geometry" />
        </mxCell>
        <mxCell id="7TRnRH2afvT816w-54ic-41" style="edgeStyle=orthogonalEdgeStyle;rounded=0;orthogonalLoop=1;jettySize=auto;html=1;exitX=0.5;exitY=1;exitDx=0;exitDy=0;entryX=0.5;entryY=0;entryDx=0;entryDy=0;fontFamily=JetBrains Mono;fontSize=10;" edge="1" parent="1" source="7TRnRH2afvT816w-54ic-42" target="7TRnRH2afvT816w-54ic-44">
          <mxGeometry relative="1" as="geometry" />
        </mxCell>
        <mxCell id="7TRnRH2afvT816w-54ic-42" value="prev = arr[j]" style="rounded=0;whiteSpace=wrap;html=1;strokeWidth=2;fontFamily=JetBrains Mono;fontSize=10;" vertex="1" parent="1">
          <mxGeometry x="390" y="270" width="200" height="30" as="geometry" />
        </mxCell>
        <mxCell id="7TRnRH2afvT816w-54ic-43" style="edgeStyle=orthogonalEdgeStyle;rounded=0;orthogonalLoop=1;jettySize=auto;html=1;exitX=0.5;exitY=1;exitDx=0;exitDy=0;entryX=0.5;entryY=1;entryDx=0;entryDy=0;fontFamily=JetBrains Mono;fontSize=10;" edge="1" parent="1" source="7TRnRH2afvT816w-54ic-44" target="7TRnRH2afvT816w-54ic-32">
          <mxGeometry relative="1" as="geometry" />
        </mxCell>
        <mxCell id="7TRnRH2afvT816w-54ic-44" value="j = j + 1" style="rounded=0;whiteSpace=wrap;html=1;strokeWidth=2;fontFamily=JetBrains Mono;fontSize=10;" vertex="1" parent="1">
          <mxGeometry x="390" y="320" width="200" height="30" as="geometry" />
        </mxCell>
        <mxCell id="7TRnRH2afvT816w-54ic-45" style="edgeStyle=orthogonalEdgeStyle;rounded=0;orthogonalLoop=1;jettySize=auto;html=1;exitX=0.5;exitY=1;exitDx=0;exitDy=0;entryX=0.5;entryY=0;entryDx=0;entryDy=0;fontFamily=JetBrains Mono;fontSize=10;" edge="1" parent="1" source="7TRnRH2afvT816w-54ic-49" target="7TRnRH2afvT816w-54ic-51">
          <mxGeometry relative="1" as="geometry" />
        </mxCell>
        <mxCell id="7TRnRH2afvT816w-54ic-46" value="1" style="edgeLabel;html=1;align=center;verticalAlign=middle;resizable=0;points=[];fontFamily=JetBrains Mono;fontSize=10;" vertex="1" connectable="0" parent="7TRnRH2afvT816w-54ic-45">
          <mxGeometry x="-0.1158" y="1" relative="1" as="geometry">
            <mxPoint x="9" as="offset" />
          </mxGeometry>
        </mxCell>
        <mxCell id="7TRnRH2afvT816w-54ic-47" style="edgeStyle=orthogonalEdgeStyle;rounded=0;orthogonalLoop=1;jettySize=auto;html=1;exitX=1;exitY=0.5;exitDx=0;exitDy=0;entryX=0.5;entryY=0;entryDx=0;entryDy=0;fontFamily=JetBrains Mono;fontSize=10;" edge="1" parent="1" source="7TRnRH2afvT816w-54ic-49" target="7TRnRH2afvT816w-54ic-53">
          <mxGeometry relative="1" as="geometry" />
        </mxCell>
        <mxCell id="7TRnRH2afvT816w-54ic-48" value="0" style="edgeLabel;html=1;align=center;verticalAlign=middle;resizable=0;points=[];fontFamily=JetBrains Mono;fontSize=10;" vertex="1" connectable="0" parent="7TRnRH2afvT816w-54ic-47">
          <mxGeometry x="-0.7987" relative="1" as="geometry">
            <mxPoint x="-16" y="-10" as="offset" />
          </mxGeometry>
        </mxCell>
        <mxCell id="7TRnRH2afvT816w-54ic-49" value="flag &amp;amp; nneg" style="rhombus;whiteSpace=wrap;html=1;strokeWidth=2;fontFamily=JetBrains Mono;fontSize=10;" vertex="1" parent="1">
          <mxGeometry x="390" y="430" width="200" height="60" as="geometry" />
        </mxCell>
        <mxCell id="7TRnRH2afvT816w-54ic-50" style="edgeStyle=orthogonalEdgeStyle;rounded=0;orthogonalLoop=1;jettySize=auto;html=1;exitX=0.5;exitY=1;exitDx=0;exitDy=0;entryX=0.5;entryY=0;entryDx=0;entryDy=0;fontFamily=JetBrains Mono;fontSize=10;" edge="1" parent="1" source="7TRnRH2afvT816w-54ic-51" target="7TRnRH2afvT816w-54ic-30">
          <mxGeometry relative="1" as="geometry" />
        </mxCell>
        <mxCell id="7TRnRH2afvT816w-54ic-51" value="Вывод Yes" style="shape=parallelogram;perimeter=parallelogramPerimeter;whiteSpace=wrap;html=1;fixedSize=1;size=30;container=0;strokeWidth=2;fontFamily=JetBrains Mono;fontSize=10;" vertex="1" parent="1">
          <mxGeometry x="390" y="509" width="200" height="30" as="geometry" />
        </mxCell>
        <mxCell id="7TRnRH2afvT816w-54ic-52" style="edgeStyle=orthogonalEdgeStyle;rounded=0;orthogonalLoop=1;jettySize=auto;html=1;exitX=0.5;exitY=1;exitDx=0;exitDy=0;entryX=0.5;entryY=0;entryDx=0;entryDy=0;fontFamily=JetBrains Mono;fontSize=10;" edge="1" parent="1" source="7TRnRH2afvT816w-54ic-53" target="7TRnRH2afvT816w-54ic-30">
          <mxGeometry relative="1" as="geometry" />
        </mxCell>
        <mxCell id="7TRnRH2afvT816w-54ic-53" value="Вывод No" style="shape=parallelogram;perimeter=parallelogramPerimeter;whiteSpace=wrap;html=1;fixedSize=1;size=30;container=0;strokeWidth=2;fontFamily=JetBrains Mono;fontSize=10;" vertex="1" parent="1">
          <mxGeometry x="600" y="509" width="200" height="30" as="geometry" />
        </mxCell>
        <mxCell id="7TRnRH2afvT816w-54ic-55" value="j - счётчик цикла Б" style="strokeWidth=2;html=1;shape=mxgraph.flowchart.annotation_1;align=left;pointerEvents=1;fontFamily=JetBrains Mono;fontSize=10;" vertex="1" parent="1">
          <mxGeometry x="250" y="380" width="10" height="30" as="geometry" />
        </mxCell>
        <mxCell id="7TRnRH2afvT816w-54ic-56" style="edgeStyle=orthogonalEdgeStyle;rounded=0;orthogonalLoop=1;jettySize=auto;html=1;exitX=1;exitY=0.5;exitDx=0;exitDy=0;entryX=0;entryY=0.5;entryDx=0;entryDy=0;entryPerimeter=0;endArrow=none;endFill=0;dashed=1;fontFamily=JetBrains Mono;fontSize=10;" edge="1" parent="1" source="_cCR4_YlH0TKeHnu6PQw-27" target="7TRnRH2afvT816w-54ic-55">
          <mxGeometry relative="1" as="geometry" />
        </mxCell>
        <mxCell id="EI27C24pShUZLFbFxGfm-1" value="flag - неубывающая&lt;br&gt;nneg - не отр." style="strokeWidth=2;html=1;shape=mxgraph.flowchart.annotation_1;align=left;pointerEvents=1;fontFamily=JetBrains Mono;fontSize=10;" vertex="1" parent="1">
          <mxGeometry x="250" y="430" width="10" height="40" as="geometry" />
        </mxCell>
        <mxCell id="EI27C24pShUZLFbFxGfm-2" style="edgeStyle=orthogonalEdgeStyle;rounded=0;orthogonalLoop=1;jettySize=auto;html=1;exitX=1;exitY=0.5;exitDx=0;exitDy=0;entryX=0;entryY=0.5;entryDx=0;entryDy=0;entryPerimeter=0;endArrow=none;endFill=0;dashed=1;" edge="1" parent="1" source="_cCR4_YlH0TKeHnu6PQw-28" target="EI27C24pShUZLFbFxGfm-1">
          <mxGeometry relative="1" as="geometry" />
        </mxCell>
      </root>
    </mxGraphModel>
  </diagram>
  <diagram id="GcQh4s3ZVbj0T0Refc6N" name="15">
    <mxGraphModel dx="1793" dy="1045" grid="1" gridSize="10" guides="1" tooltips="1" connect="1" arrows="1" fold="1" page="1" pageScale="1" pageWidth="827" pageHeight="1169" math="0" shadow="0">
      <root>
        <mxCell id="0" />
        <mxCell id="1" parent="0" />
        <mxCell id="RGjODzlygxZsbVwRPPMB-4" style="edgeStyle=orthogonalEdgeStyle;rounded=0;orthogonalLoop=1;jettySize=auto;html=1;exitX=0.5;exitY=1;exitDx=0;exitDy=0;entryX=0.5;entryY=0;entryDx=0;entryDy=0;fontFamily=JetBrains Mono;fontSize=10;" edge="1" parent="1" source="RGjODzlygxZsbVwRPPMB-1" target="RGjODzlygxZsbVwRPPMB-3">
          <mxGeometry relative="1" as="geometry" />
        </mxCell>
        <mxCell id="RGjODzlygxZsbVwRPPMB-1" value="Начало" style="rounded=1;whiteSpace=wrap;html=1;arcSize=50;container=0;strokeWidth=2;fontFamily=JetBrains Mono;fontSize=10;" vertex="1" parent="1">
          <mxGeometry x="10" y="10" width="200" height="30" as="geometry" />
        </mxCell>
        <mxCell id="RGjODzlygxZsbVwRPPMB-2" value="Конец" style="rounded=1;whiteSpace=wrap;html=1;arcSize=50;container=0;strokeWidth=2;fontFamily=JetBrains Mono;fontSize=10;" vertex="1" parent="1">
          <mxGeometry x="380" y="550" width="200" height="30" as="geometry" />
        </mxCell>
        <mxCell id="dB3WEHy9EHLPK5ZnPg3c-12" style="edgeStyle=orthogonalEdgeStyle;rounded=0;orthogonalLoop=1;jettySize=auto;html=1;exitX=0.5;exitY=1;exitDx=0;exitDy=0;entryX=0.5;entryY=0;entryDx=0;entryDy=0;fontFamily=JetBrains Mono;fontSize=10;" edge="1" parent="1" source="RGjODzlygxZsbVwRPPMB-3" target="dB3WEHy9EHLPK5ZnPg3c-3">
          <mxGeometry relative="1" as="geometry" />
        </mxCell>
        <mxCell id="RGjODzlygxZsbVwRPPMB-3" value="Ввод n" style="shape=parallelogram;perimeter=parallelogramPerimeter;whiteSpace=wrap;html=1;fixedSize=1;size=30;container=0;strokeWidth=2;fontFamily=JetBrains Mono;fontSize=10;" vertex="1" parent="1">
          <mxGeometry x="10" y="60" width="200" height="30" as="geometry" />
        </mxCell>
        <mxCell id="dB3WEHy9EHLPK5ZnPg3c-1" value="i - счётчик цикла А" style="strokeWidth=2;html=1;shape=mxgraph.flowchart.annotation_1;align=left;pointerEvents=1;fontFamily=JetBrains Mono;fontSize=10;" vertex="1" parent="1">
          <mxGeometry x="230" y="110" width="10" height="30" as="geometry" />
        </mxCell>
        <mxCell id="dB3WEHy9EHLPK5ZnPg3c-2" style="edgeStyle=orthogonalEdgeStyle;rounded=0;orthogonalLoop=1;jettySize=auto;html=1;exitX=0.5;exitY=1;exitDx=0;exitDy=0;entryX=0.5;entryY=0;entryDx=0;entryDy=0;fontSize=10;fontFamily=JetBrains Mono;" edge="1" parent="1" source="dB3WEHy9EHLPK5ZnPg3c-3" target="dB3WEHy9EHLPK5ZnPg3c-7">
          <mxGeometry relative="1" as="geometry" />
        </mxCell>
        <mxCell id="dB3WEHy9EHLPK5ZnPg3c-3" value="i = 0" style="rounded=0;whiteSpace=wrap;html=1;strokeWidth=2;fontFamily=JetBrains Mono;fontSize=10;" vertex="1" parent="1">
          <mxGeometry x="10" y="110" width="200" height="30" as="geometry" />
        </mxCell>
        <mxCell id="dB3WEHy9EHLPK5ZnPg3c-4" style="edgeStyle=orthogonalEdgeStyle;rounded=0;orthogonalLoop=1;jettySize=auto;html=1;exitX=1;exitY=0.5;exitDx=0;exitDy=0;entryX=0;entryY=0.5;entryDx=0;entryDy=0;entryPerimeter=0;endArrow=none;endFill=0;dashed=1;fontFamily=JetBrains Mono;fontSize=10;" edge="1" parent="1" source="dB3WEHy9EHLPK5ZnPg3c-3" target="dB3WEHy9EHLPK5ZnPg3c-1">
          <mxGeometry relative="1" as="geometry" />
        </mxCell>
        <mxCell id="7npbJnwGkubEfULmBn0G-5" style="edgeStyle=orthogonalEdgeStyle;rounded=0;orthogonalLoop=1;jettySize=auto;html=1;exitX=0.5;exitY=0;exitDx=0;exitDy=0;entryX=0.5;entryY=0;entryDx=0;entryDy=0;fontFamily=JetBrains Mono;fontSize=10;" edge="1" parent="1" source="dB3WEHy9EHLPK5ZnPg3c-5" target="7npbJnwGkubEfULmBn0G-4">
          <mxGeometry relative="1" as="geometry" />
        </mxCell>
        <mxCell id="dB3WEHy9EHLPK5ZnPg3c-5" value="&lt;div style=&quot;font-size: 10px;&quot;&gt;&lt;br style=&quot;font-size: 10px;&quot;&gt;&lt;/div&gt;&lt;div style=&quot;font-size: 10px;&quot;&gt;А&lt;/div&gt;" style="shape=loopLimit;whiteSpace=wrap;html=1;size=20;direction=west;strokeWidth=2;fontFamily=JetBrains Mono;fontSize=10;" vertex="1" parent="1">
          <mxGeometry x="10" y="320" width="200" height="41" as="geometry" />
        </mxCell>
        <mxCell id="dB3WEHy9EHLPK5ZnPg3c-6" style="edgeStyle=orthogonalEdgeStyle;rounded=0;orthogonalLoop=1;jettySize=auto;html=1;exitX=0.5;exitY=1;exitDx=0;exitDy=0;entryX=0.5;entryY=0;entryDx=0;entryDy=0;fontSize=10;fontFamily=JetBrains Mono;" edge="1" parent="1" source="dB3WEHy9EHLPK5ZnPg3c-7" target="dB3WEHy9EHLPK5ZnPg3c-9">
          <mxGeometry relative="1" as="geometry" />
        </mxCell>
        <mxCell id="dB3WEHy9EHLPK5ZnPg3c-7" value="&lt;div style=&quot;font-size: 10px;&quot;&gt;А&lt;/div&gt;&lt;div style=&quot;font-size: 10px;&quot;&gt;i &amp;gt;= n&lt;/div&gt;" style="shape=loopLimit;whiteSpace=wrap;html=1;size=18;direction=east;strokeWidth=2;fontFamily=JetBrains Mono;fontSize=10;" vertex="1" parent="1">
          <mxGeometry x="10" y="160" width="200" height="39" as="geometry" />
        </mxCell>
        <mxCell id="dB3WEHy9EHLPK5ZnPg3c-8" style="edgeStyle=orthogonalEdgeStyle;rounded=0;orthogonalLoop=1;jettySize=auto;html=1;exitX=0.5;exitY=1;exitDx=0;exitDy=0;entryX=0.5;entryY=0;entryDx=0;entryDy=0;fontSize=10;fontFamily=JetBrains Mono;" edge="1" parent="1" source="dB3WEHy9EHLPK5ZnPg3c-9" target="dB3WEHy9EHLPK5ZnPg3c-11">
          <mxGeometry relative="1" as="geometry" />
        </mxCell>
        <mxCell id="dB3WEHy9EHLPK5ZnPg3c-9" value="Ввод arr[i]" style="shape=parallelogram;perimeter=parallelogramPerimeter;whiteSpace=wrap;html=1;fixedSize=1;size=30;container=0;strokeWidth=2;fontFamily=JetBrains Mono;fontSize=10;" vertex="1" parent="1">
          <mxGeometry x="10" y="220" width="200" height="30" as="geometry" />
        </mxCell>
        <mxCell id="dB3WEHy9EHLPK5ZnPg3c-10" style="edgeStyle=orthogonalEdgeStyle;rounded=0;orthogonalLoop=1;jettySize=auto;html=1;exitX=0.5;exitY=1;exitDx=0;exitDy=0;entryX=0.5;entryY=1;entryDx=0;entryDy=0;fontSize=10;fontFamily=JetBrains Mono;" edge="1" parent="1" source="dB3WEHy9EHLPK5ZnPg3c-11" target="dB3WEHy9EHLPK5ZnPg3c-5">
          <mxGeometry relative="1" as="geometry" />
        </mxCell>
        <mxCell id="dB3WEHy9EHLPK5ZnPg3c-11" value="i = i + 1" style="rounded=0;whiteSpace=wrap;html=1;strokeWidth=2;fontFamily=JetBrains Mono;fontSize=10;" vertex="1" parent="1">
          <mxGeometry x="10" y="270" width="200" height="30" as="geometry" />
        </mxCell>
        <mxCell id="7npbJnwGkubEfULmBn0G-1" value="n - кол-во элементов" style="strokeWidth=2;html=1;shape=mxgraph.flowchart.annotation_1;align=left;pointerEvents=1;fontFamily=JetBrains Mono;fontSize=10;" vertex="1" parent="1">
          <mxGeometry x="230" y="60" width="10" height="30" as="geometry" />
        </mxCell>
        <mxCell id="7npbJnwGkubEfULmBn0G-2" style="edgeStyle=orthogonalEdgeStyle;rounded=0;orthogonalLoop=1;jettySize=auto;html=1;exitX=1;exitY=0.5;exitDx=0;exitDy=0;entryX=0;entryY=0.5;entryDx=0;entryDy=0;entryPerimeter=0;endArrow=none;endFill=0;dashed=1;fontFamily=JetBrains Mono;fontSize=10;" edge="1" parent="1" source="RGjODzlygxZsbVwRPPMB-3" target="7npbJnwGkubEfULmBn0G-1">
          <mxGeometry relative="1" as="geometry" />
        </mxCell>
        <mxCell id="7npbJnwGkubEfULmBn0G-7" style="edgeStyle=orthogonalEdgeStyle;rounded=0;orthogonalLoop=1;jettySize=auto;html=1;exitX=0.5;exitY=1;exitDx=0;exitDy=0;entryX=0.5;entryY=0;entryDx=0;entryDy=0;fontFamily=JetBrains Mono;fontSize=10;" edge="1" parent="1" source="7npbJnwGkubEfULmBn0G-4" target="7npbJnwGkubEfULmBn0G-6">
          <mxGeometry relative="1" as="geometry" />
        </mxCell>
        <mxCell id="7npbJnwGkubEfULmBn0G-4" value="cnt = 0&lt;div style=&quot;font-size: 10px;&quot;&gt;res = 0&lt;/div&gt;&lt;div style=&quot;font-size: 10px;&quot;&gt;ind = 0&lt;/div&gt;" style="rounded=0;whiteSpace=wrap;html=1;strokeWidth=2;fontFamily=JetBrains Mono;fontSize=10;" vertex="1" parent="1">
          <mxGeometry x="10" y="380" width="200" height="50" as="geometry" />
        </mxCell>
        <mxCell id="7npbJnwGkubEfULmBn0G-12" style="edgeStyle=orthogonalEdgeStyle;rounded=0;orthogonalLoop=1;jettySize=auto;html=1;exitX=0.5;exitY=1;exitDx=0;exitDy=0;entryX=0.5;entryY=0;entryDx=0;entryDy=0;fontFamily=JetBrains Mono;fontSize=10;" edge="1" parent="1" source="7npbJnwGkubEfULmBn0G-6" target="7npbJnwGkubEfULmBn0G-11">
          <mxGeometry relative="1" as="geometry" />
        </mxCell>
        <mxCell id="7npbJnwGkubEfULmBn0G-6" value="j = 0" style="rounded=0;whiteSpace=wrap;html=1;strokeWidth=2;fontFamily=JetBrains Mono;fontSize=10;" vertex="1" parent="1">
          <mxGeometry x="10" y="450" width="200" height="30" as="geometry" />
        </mxCell>
        <mxCell id="7npbJnwGkubEfULmBn0G-8" value="j - счётчик цикла Б" style="strokeWidth=2;html=1;shape=mxgraph.flowchart.annotation_1;align=left;pointerEvents=1;fontFamily=JetBrains Mono;fontSize=10;" vertex="1" parent="1">
          <mxGeometry x="240" y="450" width="10" height="30" as="geometry" />
        </mxCell>
        <mxCell id="7npbJnwGkubEfULmBn0G-9" style="edgeStyle=orthogonalEdgeStyle;rounded=0;orthogonalLoop=1;jettySize=auto;html=1;exitX=1;exitY=0.5;exitDx=0;exitDy=0;entryX=0;entryY=0.5;entryDx=0;entryDy=0;entryPerimeter=0;endArrow=none;endFill=0;dashed=1;fontFamily=JetBrains Mono;fontSize=10;" edge="1" parent="1" source="7npbJnwGkubEfULmBn0G-6" target="7npbJnwGkubEfULmBn0G-8">
          <mxGeometry relative="1" as="geometry" />
        </mxCell>
        <mxCell id="7npbJnwGkubEfULmBn0G-16" style="edgeStyle=orthogonalEdgeStyle;rounded=0;orthogonalLoop=1;jettySize=auto;html=1;exitX=0.5;exitY=0;exitDx=0;exitDy=0;entryX=0.5;entryY=0;entryDx=0;entryDy=0;fontFamily=JetBrains Mono;fontSize=10;" edge="1" parent="1" source="7npbJnwGkubEfULmBn0G-10" target="7npbJnwGkubEfULmBn0G-15">
          <mxGeometry relative="1" as="geometry" />
        </mxCell>
        <mxCell id="7npbJnwGkubEfULmBn0G-10" value="&lt;div style=&quot;font-size: 10px;&quot;&gt;&lt;br style=&quot;font-size: 10px;&quot;&gt;&lt;/div&gt;&lt;div style=&quot;font-size: 10px;&quot;&gt;Б&lt;/div&gt;" style="shape=loopLimit;whiteSpace=wrap;html=1;size=20;direction=west;strokeWidth=2;fontFamily=JetBrains Mono;fontSize=10;" vertex="1" parent="1">
          <mxGeometry x="380" y="440" width="200" height="41" as="geometry" />
        </mxCell>
        <mxCell id="7npbJnwGkubEfULmBn0G-40" style="edgeStyle=orthogonalEdgeStyle;rounded=0;orthogonalLoop=1;jettySize=auto;html=1;exitX=0.5;exitY=1;exitDx=0;exitDy=0;entryX=0.5;entryY=0;entryDx=0;entryDy=0;fontFamily=JetBrains Mono;fontSize=10;" edge="1" parent="1" source="7npbJnwGkubEfULmBn0G-11" target="7npbJnwGkubEfULmBn0G-39">
          <mxGeometry relative="1" as="geometry" />
        </mxCell>
        <mxCell id="7npbJnwGkubEfULmBn0G-11" value="&lt;div style=&quot;font-size: 10px;&quot;&gt;Б&lt;/div&gt;&lt;div style=&quot;font-size: 10px;&quot;&gt;j &amp;gt;= n&lt;/div&gt;" style="shape=loopLimit;whiteSpace=wrap;html=1;size=18;direction=east;strokeWidth=2;fontFamily=JetBrains Mono;fontSize=10;" vertex="1" parent="1">
          <mxGeometry x="10" y="500" width="200" height="39" as="geometry" />
        </mxCell>
        <mxCell id="7npbJnwGkubEfULmBn0G-14" style="edgeStyle=orthogonalEdgeStyle;rounded=0;orthogonalLoop=1;jettySize=auto;html=1;exitX=0.5;exitY=1;exitDx=0;exitDy=0;entryX=0.5;entryY=1;entryDx=0;entryDy=0;fontFamily=JetBrains Mono;fontSize=10;" edge="1" parent="1" source="7npbJnwGkubEfULmBn0G-13" target="7npbJnwGkubEfULmBn0G-10">
          <mxGeometry relative="1" as="geometry" />
        </mxCell>
        <mxCell id="7npbJnwGkubEfULmBn0G-13" value="j = j + 1" style="rounded=0;whiteSpace=wrap;html=1;strokeWidth=2;fontFamily=JetBrains Mono;fontSize=10;" vertex="1" parent="1">
          <mxGeometry x="380" y="390" width="200" height="30" as="geometry" />
        </mxCell>
        <mxCell id="7npbJnwGkubEfULmBn0G-17" style="edgeStyle=orthogonalEdgeStyle;rounded=0;orthogonalLoop=1;jettySize=auto;html=1;exitX=0.5;exitY=1;exitDx=0;exitDy=0;entryX=0.5;entryY=0;entryDx=0;entryDy=0;fontFamily=JetBrains Mono;fontSize=10;" edge="1" parent="1" source="7npbJnwGkubEfULmBn0G-15" target="RGjODzlygxZsbVwRPPMB-2">
          <mxGeometry relative="1" as="geometry" />
        </mxCell>
        <mxCell id="7npbJnwGkubEfULmBn0G-15" value="Вывод ind, res" style="shape=parallelogram;perimeter=parallelogramPerimeter;whiteSpace=wrap;html=1;fixedSize=1;size=30;container=0;strokeWidth=2;fontFamily=JetBrains Mono;fontSize=10;" vertex="1" parent="1">
          <mxGeometry x="380" y="500" width="200" height="30" as="geometry" />
        </mxCell>
        <mxCell id="7npbJnwGkubEfULmBn0G-20" style="edgeStyle=orthogonalEdgeStyle;rounded=0;orthogonalLoop=1;jettySize=auto;html=1;exitX=0.5;exitY=1;exitDx=0;exitDy=0;entryX=0.5;entryY=0;entryDx=0;entryDy=0;fontFamily=JetBrains Mono;fontSize=10;" edge="1" parent="1" source="7npbJnwGkubEfULmBn0G-18" target="7npbJnwGkubEfULmBn0G-19">
          <mxGeometry relative="1" as="geometry" />
        </mxCell>
        <mxCell id="7npbJnwGkubEfULmBn0G-21" value="1" style="edgeLabel;html=1;align=center;verticalAlign=middle;resizable=0;points=[];fontFamily=JetBrains Mono;fontSize=10;" vertex="1" connectable="0" parent="7npbJnwGkubEfULmBn0G-20">
          <mxGeometry x="-0.4667" relative="1" as="geometry">
            <mxPoint x="10" y="5" as="offset" />
          </mxGeometry>
        </mxCell>
        <mxCell id="7npbJnwGkubEfULmBn0G-24" style="edgeStyle=orthogonalEdgeStyle;rounded=0;orthogonalLoop=1;jettySize=auto;html=1;exitX=1;exitY=0.5;exitDx=0;exitDy=0;entryX=0.5;entryY=0;entryDx=0;entryDy=0;fontFamily=JetBrains Mono;fontSize=10;" edge="1" parent="1" source="7npbJnwGkubEfULmBn0G-18" target="7npbJnwGkubEfULmBn0G-23">
          <mxGeometry relative="1" as="geometry" />
        </mxCell>
        <mxCell id="7npbJnwGkubEfULmBn0G-27" value="0" style="edgeLabel;html=1;align=center;verticalAlign=middle;resizable=0;points=[];fontFamily=JetBrains Mono;fontSize=10;" vertex="1" connectable="0" parent="7npbJnwGkubEfULmBn0G-24">
          <mxGeometry x="-0.3126" relative="1" as="geometry">
            <mxPoint x="-59" y="-10" as="offset" />
          </mxGeometry>
        </mxCell>
        <mxCell id="7npbJnwGkubEfULmBn0G-18" value="arr[i] = 1" style="rhombus;whiteSpace=wrap;html=1;strokeWidth=2;fontFamily=JetBrains Mono;fontSize=10;" vertex="1" parent="1">
          <mxGeometry x="380" y="60" width="200" height="60" as="geometry" />
        </mxCell>
        <mxCell id="7npbJnwGkubEfULmBn0G-26" style="edgeStyle=orthogonalEdgeStyle;rounded=0;orthogonalLoop=1;jettySize=auto;html=1;exitX=0.5;exitY=1;exitDx=0;exitDy=0;entryX=0.5;entryY=0;entryDx=0;entryDy=0;fontFamily=JetBrains Mono;fontSize=10;" edge="1" parent="1" source="7npbJnwGkubEfULmBn0G-19" target="7npbJnwGkubEfULmBn0G-25">
          <mxGeometry relative="1" as="geometry" />
        </mxCell>
        <mxCell id="7npbJnwGkubEfULmBn0G-19" value="cnt = cnt + 1" style="rounded=0;whiteSpace=wrap;html=1;strokeWidth=2;fontFamily=JetBrains Mono;fontSize=10;" vertex="1" parent="1">
          <mxGeometry x="380" y="140" width="200" height="30" as="geometry" />
        </mxCell>
        <mxCell id="7npbJnwGkubEfULmBn0G-38" style="edgeStyle=orthogonalEdgeStyle;rounded=0;orthogonalLoop=1;jettySize=auto;html=1;exitX=0.5;exitY=1;exitDx=0;exitDy=0;entryX=0.5;entryY=0;entryDx=0;entryDy=0;fontFamily=JetBrains Mono;fontSize=10;" edge="1" parent="1" source="7npbJnwGkubEfULmBn0G-23" target="7npbJnwGkubEfULmBn0G-13">
          <mxGeometry relative="1" as="geometry">
            <Array as="points">
              <mxPoint x="700" y="370" />
              <mxPoint x="480" y="370" />
            </Array>
          </mxGeometry>
        </mxCell>
        <mxCell id="7npbJnwGkubEfULmBn0G-23" value="cnt = 0" style="rounded=0;whiteSpace=wrap;html=1;strokeWidth=2;fontFamily=JetBrains Mono;fontSize=10;" vertex="1" parent="1">
          <mxGeometry x="600" y="140" width="200" height="30" as="geometry" />
        </mxCell>
        <mxCell id="7npbJnwGkubEfULmBn0G-31" style="edgeStyle=orthogonalEdgeStyle;rounded=0;orthogonalLoop=1;jettySize=auto;html=1;exitX=0.5;exitY=1;exitDx=0;exitDy=0;entryX=0.5;entryY=0;entryDx=0;entryDy=0;fontFamily=JetBrains Mono;fontSize=10;" edge="1" parent="1" source="7npbJnwGkubEfULmBn0G-25" target="7npbJnwGkubEfULmBn0G-29">
          <mxGeometry relative="1" as="geometry" />
        </mxCell>
        <mxCell id="7npbJnwGkubEfULmBn0G-35" value="1" style="edgeLabel;html=1;align=center;verticalAlign=middle;resizable=0;points=[];fontFamily=JetBrains Mono;fontSize=10;" vertex="1" connectable="0" parent="7npbJnwGkubEfULmBn0G-31">
          <mxGeometry x="-0.6167" y="-1" relative="1" as="geometry">
            <mxPoint x="11" y="6" as="offset" />
          </mxGeometry>
        </mxCell>
        <mxCell id="7npbJnwGkubEfULmBn0G-34" style="edgeStyle=orthogonalEdgeStyle;rounded=0;orthogonalLoop=1;jettySize=auto;html=1;exitX=1;exitY=0.5;exitDx=0;exitDy=0;entryX=0.5;entryY=0;entryDx=0;entryDy=0;fontFamily=JetBrains Mono;fontSize=10;" edge="1" parent="1" source="7npbJnwGkubEfULmBn0G-25" target="7npbJnwGkubEfULmBn0G-13">
          <mxGeometry relative="1" as="geometry">
            <Array as="points">
              <mxPoint x="600" y="220" />
              <mxPoint x="600" y="370" />
              <mxPoint x="480" y="370" />
            </Array>
          </mxGeometry>
        </mxCell>
        <mxCell id="7npbJnwGkubEfULmBn0G-36" value="0" style="edgeLabel;html=1;align=center;verticalAlign=middle;resizable=0;points=[];fontFamily=JetBrains Mono;fontSize=10;" vertex="1" connectable="0" parent="7npbJnwGkubEfULmBn0G-34">
          <mxGeometry x="-0.9244" relative="1" as="geometry">
            <mxPoint x="-12" y="-10" as="offset" />
          </mxGeometry>
        </mxCell>
        <mxCell id="7npbJnwGkubEfULmBn0G-25" value="res &amp;lt;=cnt" style="rhombus;whiteSpace=wrap;html=1;strokeWidth=2;fontFamily=JetBrains Mono;fontSize=10;" vertex="1" parent="1">
          <mxGeometry x="380" y="190" width="200" height="60" as="geometry" />
        </mxCell>
        <mxCell id="7npbJnwGkubEfULmBn0G-32" style="edgeStyle=orthogonalEdgeStyle;rounded=0;orthogonalLoop=1;jettySize=auto;html=1;exitX=0.5;exitY=1;exitDx=0;exitDy=0;entryX=0.5;entryY=0;entryDx=0;entryDy=0;fontFamily=JetBrains Mono;fontSize=10;" edge="1" parent="1" source="7npbJnwGkubEfULmBn0G-29" target="7npbJnwGkubEfULmBn0G-30">
          <mxGeometry relative="1" as="geometry" />
        </mxCell>
        <mxCell id="7npbJnwGkubEfULmBn0G-29" value="ind = i - cnt + 1" style="rounded=0;whiteSpace=wrap;html=1;strokeWidth=2;fontFamily=JetBrains Mono;fontSize=10;" vertex="1" parent="1">
          <mxGeometry x="380" y="270" width="200" height="30" as="geometry" />
        </mxCell>
        <mxCell id="7npbJnwGkubEfULmBn0G-37" style="edgeStyle=orthogonalEdgeStyle;rounded=0;orthogonalLoop=1;jettySize=auto;html=1;exitX=0.5;exitY=1;exitDx=0;exitDy=0;entryX=0.5;entryY=0;entryDx=0;entryDy=0;fontFamily=JetBrains Mono;fontSize=10;" edge="1" parent="1" source="7npbJnwGkubEfULmBn0G-30" target="7npbJnwGkubEfULmBn0G-13">
          <mxGeometry relative="1" as="geometry" />
        </mxCell>
        <mxCell id="7npbJnwGkubEfULmBn0G-30" value="res = cnt" style="rounded=0;whiteSpace=wrap;html=1;strokeWidth=2;fontFamily=JetBrains Mono;fontSize=10;" vertex="1" parent="1">
          <mxGeometry x="380" y="320" width="200" height="30" as="geometry" />
        </mxCell>
        <mxCell id="7npbJnwGkubEfULmBn0G-39" value="&lt;font style=&quot;font-size: 10px;&quot;&gt;A1&lt;/font&gt;" style="ellipse;whiteSpace=wrap;html=1;aspect=fixed;strokeWidth=2;fontFamily=JetBrains Mono;fontSize=10;" vertex="1" parent="1">
          <mxGeometry x="95" y="560" width="30" height="30" as="geometry" />
        </mxCell>
        <mxCell id="7npbJnwGkubEfULmBn0G-42" style="edgeStyle=orthogonalEdgeStyle;rounded=0;orthogonalLoop=1;jettySize=auto;html=1;exitX=0.5;exitY=1;exitDx=0;exitDy=0;entryX=0.5;entryY=0;entryDx=0;entryDy=0;fontFamily=JetBrains Mono;fontSize=10;" edge="1" parent="1" source="7npbJnwGkubEfULmBn0G-41" target="7npbJnwGkubEfULmBn0G-18">
          <mxGeometry relative="1" as="geometry" />
        </mxCell>
        <mxCell id="7npbJnwGkubEfULmBn0G-41" value="&lt;font style=&quot;font-size: 10px;&quot;&gt;A1&lt;/font&gt;" style="ellipse;whiteSpace=wrap;html=1;aspect=fixed;strokeWidth=2;fontFamily=JetBrains Mono;fontSize=10;" vertex="1" parent="1">
          <mxGeometry x="465" y="10" width="30" height="30" as="geometry" />
        </mxCell>
        <mxCell id="hMVzoLyq3d9xP_2Y5cxu-1" value="cnt - счётчик,&lt;br&gt;res - длина посл.,&lt;div&gt;ind - номер элем.&lt;/div&gt;" style="strokeWidth=2;html=1;shape=mxgraph.flowchart.annotation_1;align=left;pointerEvents=1;fontFamily=JetBrains Mono;fontSize=10;" vertex="1" parent="1">
          <mxGeometry x="230" y="380" width="10" height="50" as="geometry" />
        </mxCell>
        <mxCell id="hMVzoLyq3d9xP_2Y5cxu-2" style="edgeStyle=orthogonalEdgeStyle;rounded=0;orthogonalLoop=1;jettySize=auto;html=1;exitX=1;exitY=0.5;exitDx=0;exitDy=0;entryX=0;entryY=0.5;entryDx=0;entryDy=0;entryPerimeter=0;endArrow=none;endFill=0;dashed=1;" edge="1" parent="1" source="7npbJnwGkubEfULmBn0G-4" target="hMVzoLyq3d9xP_2Y5cxu-1">
          <mxGeometry relative="1" as="geometry" />
        </mxCell>
      </root>
    </mxGraphModel>
  </diagram>
  <diagram id="0hQtixiB0hyzuNaDbmoX" name="16">
    <mxGraphModel dx="1434" dy="836" grid="1" gridSize="10" guides="1" tooltips="1" connect="1" arrows="1" fold="1" page="1" pageScale="1" pageWidth="827" pageHeight="1169" math="0" shadow="0">
      <root>
        <mxCell id="0" />
        <mxCell id="1" parent="0" />
        <mxCell id="pW5aCWIbukg0qzRGrfaP-1" style="edgeStyle=orthogonalEdgeStyle;rounded=0;orthogonalLoop=1;jettySize=auto;html=1;exitX=0.5;exitY=1;exitDx=0;exitDy=0;entryX=0.5;entryY=0;entryDx=0;entryDy=0;fontFamily=JetBrains Mono;fontSize=10;" parent="1" source="pW5aCWIbukg0qzRGrfaP-2" target="pW5aCWIbukg0qzRGrfaP-4" edge="1">
          <mxGeometry relative="1" as="geometry" />
        </mxCell>
        <mxCell id="pW5aCWIbukg0qzRGrfaP-2" value="Начало" style="rounded=1;whiteSpace=wrap;html=1;arcSize=50;container=0;strokeWidth=2;fontFamily=JetBrains Mono;fontSize=10;" parent="1" vertex="1">
          <mxGeometry x="10" y="10" width="200" height="30" as="geometry" />
        </mxCell>
        <mxCell id="pW5aCWIbukg0qzRGrfaP-3" style="edgeStyle=orthogonalEdgeStyle;rounded=0;orthogonalLoop=1;jettySize=auto;html=1;exitX=0.5;exitY=1;exitDx=0;exitDy=0;entryX=0.5;entryY=0;entryDx=0;entryDy=0;fontFamily=JetBrains Mono;fontSize=10;" parent="1" source="pW5aCWIbukg0qzRGrfaP-4" target="pW5aCWIbukg0qzRGrfaP-9" edge="1">
          <mxGeometry relative="1" as="geometry" />
        </mxCell>
        <mxCell id="pW5aCWIbukg0qzRGrfaP-4" value="Ввод n" style="shape=parallelogram;perimeter=parallelogramPerimeter;whiteSpace=wrap;html=1;fixedSize=1;size=30;container=0;strokeWidth=2;fontFamily=JetBrains Mono;fontSize=10;" parent="1" vertex="1">
          <mxGeometry x="10" y="60" width="200" height="30" as="geometry" />
        </mxCell>
        <mxCell id="pW5aCWIbukg0qzRGrfaP-5" value="n - кол-во элементов" style="strokeWidth=2;html=1;shape=mxgraph.flowchart.annotation_1;align=left;pointerEvents=1;fontFamily=JetBrains Mono;fontSize=10;" parent="1" vertex="1">
          <mxGeometry x="230" y="60" width="10" height="30" as="geometry" />
        </mxCell>
        <mxCell id="pW5aCWIbukg0qzRGrfaP-6" style="edgeStyle=orthogonalEdgeStyle;rounded=0;orthogonalLoop=1;jettySize=auto;html=1;exitX=1;exitY=0.5;exitDx=0;exitDy=0;entryX=0;entryY=0.5;entryDx=0;entryDy=0;entryPerimeter=0;endArrow=none;endFill=0;dashed=1;fontFamily=JetBrains Mono;fontSize=10;" parent="1" source="pW5aCWIbukg0qzRGrfaP-4" target="pW5aCWIbukg0qzRGrfaP-5" edge="1">
          <mxGeometry relative="1" as="geometry" />
        </mxCell>
        <mxCell id="pW5aCWIbukg0qzRGrfaP-7" value="i - счётчик цикла А" style="strokeWidth=2;html=1;shape=mxgraph.flowchart.annotation_1;align=left;pointerEvents=1;fontFamily=JetBrains Mono;fontSize=10;" parent="1" vertex="1">
          <mxGeometry x="230" y="110" width="10" height="30" as="geometry" />
        </mxCell>
        <mxCell id="pW5aCWIbukg0qzRGrfaP-8" style="edgeStyle=orthogonalEdgeStyle;rounded=0;orthogonalLoop=1;jettySize=auto;html=1;exitX=0.5;exitY=1;exitDx=0;exitDy=0;entryX=0.5;entryY=0;entryDx=0;entryDy=0;fontSize=10;fontFamily=JetBrains Mono;" parent="1" source="pW5aCWIbukg0qzRGrfaP-9" target="pW5aCWIbukg0qzRGrfaP-13" edge="1">
          <mxGeometry relative="1" as="geometry" />
        </mxCell>
        <mxCell id="pW5aCWIbukg0qzRGrfaP-9" value="i = 0" style="rounded=0;whiteSpace=wrap;html=1;strokeWidth=2;fontFamily=JetBrains Mono;fontSize=10;" parent="1" vertex="1">
          <mxGeometry x="10" y="110" width="200" height="30" as="geometry" />
        </mxCell>
        <mxCell id="pW5aCWIbukg0qzRGrfaP-10" style="edgeStyle=orthogonalEdgeStyle;rounded=0;orthogonalLoop=1;jettySize=auto;html=1;exitX=1;exitY=0.5;exitDx=0;exitDy=0;entryX=0;entryY=0.5;entryDx=0;entryDy=0;entryPerimeter=0;endArrow=none;endFill=0;dashed=1;fontFamily=JetBrains Mono;fontSize=10;" parent="1" source="pW5aCWIbukg0qzRGrfaP-9" target="pW5aCWIbukg0qzRGrfaP-7" edge="1">
          <mxGeometry relative="1" as="geometry" />
        </mxCell>
        <mxCell id="pW5aCWIbukg0qzRGrfaP-19" style="edgeStyle=orthogonalEdgeStyle;rounded=0;orthogonalLoop=1;jettySize=auto;html=1;exitX=0.5;exitY=0;exitDx=0;exitDy=0;entryX=0.5;entryY=0;entryDx=0;entryDy=0;fontFamily=JetBrains Mono;fontSize=10;" parent="1" source="pW5aCWIbukg0qzRGrfaP-11" target="pW5aCWIbukg0qzRGrfaP-18" edge="1">
          <mxGeometry relative="1" as="geometry" />
        </mxCell>
        <mxCell id="pW5aCWIbukg0qzRGrfaP-11" value="&lt;div style=&quot;font-size: 10px;&quot;&gt;&lt;br style=&quot;font-size: 10px;&quot;&gt;&lt;/div&gt;&lt;div style=&quot;font-size: 10px;&quot;&gt;А&lt;/div&gt;" style="shape=loopLimit;whiteSpace=wrap;html=1;size=20;direction=west;strokeWidth=2;fontFamily=JetBrains Mono;fontSize=10;" parent="1" vertex="1">
          <mxGeometry x="10" y="320" width="200" height="41" as="geometry" />
        </mxCell>
        <mxCell id="pW5aCWIbukg0qzRGrfaP-12" style="edgeStyle=orthogonalEdgeStyle;rounded=0;orthogonalLoop=1;jettySize=auto;html=1;exitX=0.5;exitY=1;exitDx=0;exitDy=0;entryX=0.5;entryY=0;entryDx=0;entryDy=0;fontSize=10;fontFamily=JetBrains Mono;" parent="1" source="pW5aCWIbukg0qzRGrfaP-13" target="pW5aCWIbukg0qzRGrfaP-15" edge="1">
          <mxGeometry relative="1" as="geometry" />
        </mxCell>
        <mxCell id="pW5aCWIbukg0qzRGrfaP-13" value="&lt;div style=&quot;font-size: 10px;&quot;&gt;А&lt;/div&gt;&lt;div style=&quot;font-size: 10px;&quot;&gt;i &amp;gt;= n&lt;/div&gt;" style="shape=loopLimit;whiteSpace=wrap;html=1;size=18;direction=east;strokeWidth=2;fontFamily=JetBrains Mono;fontSize=10;" parent="1" vertex="1">
          <mxGeometry x="10" y="160" width="200" height="39" as="geometry" />
        </mxCell>
        <mxCell id="pW5aCWIbukg0qzRGrfaP-14" style="edgeStyle=orthogonalEdgeStyle;rounded=0;orthogonalLoop=1;jettySize=auto;html=1;exitX=0.5;exitY=1;exitDx=0;exitDy=0;entryX=0.5;entryY=0;entryDx=0;entryDy=0;fontSize=10;fontFamily=JetBrains Mono;" parent="1" source="pW5aCWIbukg0qzRGrfaP-15" target="pW5aCWIbukg0qzRGrfaP-17" edge="1">
          <mxGeometry relative="1" as="geometry" />
        </mxCell>
        <mxCell id="pW5aCWIbukg0qzRGrfaP-15" value="Ввод arr[i]" style="shape=parallelogram;perimeter=parallelogramPerimeter;whiteSpace=wrap;html=1;fixedSize=1;size=30;container=0;strokeWidth=2;fontFamily=JetBrains Mono;fontSize=10;" parent="1" vertex="1">
          <mxGeometry x="10" y="220" width="200" height="30" as="geometry" />
        </mxCell>
        <mxCell id="pW5aCWIbukg0qzRGrfaP-16" style="edgeStyle=orthogonalEdgeStyle;rounded=0;orthogonalLoop=1;jettySize=auto;html=1;exitX=0.5;exitY=1;exitDx=0;exitDy=0;entryX=0.5;entryY=1;entryDx=0;entryDy=0;fontSize=10;fontFamily=JetBrains Mono;" parent="1" source="pW5aCWIbukg0qzRGrfaP-17" target="pW5aCWIbukg0qzRGrfaP-11" edge="1">
          <mxGeometry relative="1" as="geometry" />
        </mxCell>
        <mxCell id="pW5aCWIbukg0qzRGrfaP-17" value="i = i + 1" style="rounded=0;whiteSpace=wrap;html=1;strokeWidth=2;fontFamily=JetBrains Mono;fontSize=10;" parent="1" vertex="1">
          <mxGeometry x="10" y="270" width="200" height="30" as="geometry" />
        </mxCell>
        <mxCell id="pW5aCWIbukg0qzRGrfaP-23" style="edgeStyle=orthogonalEdgeStyle;rounded=0;orthogonalLoop=1;jettySize=auto;html=1;exitX=0.5;exitY=1;exitDx=0;exitDy=0;entryX=0.5;entryY=0;entryDx=0;entryDy=0;fontFamily=JetBrains Mono;fontSize=10;" parent="1" source="pW5aCWIbukg0qzRGrfaP-18" target="pW5aCWIbukg0qzRGrfaP-22" edge="1">
          <mxGeometry relative="1" as="geometry" />
        </mxCell>
        <mxCell id="pW5aCWIbukg0qzRGrfaP-18" value="cnt = 0" style="rounded=0;whiteSpace=wrap;html=1;strokeWidth=2;fontFamily=JetBrains Mono;fontSize=10;" parent="1" vertex="1">
          <mxGeometry x="10" y="380" width="200" height="30" as="geometry" />
        </mxCell>
        <mxCell id="pW5aCWIbukg0qzRGrfaP-38" style="edgeStyle=orthogonalEdgeStyle;rounded=0;orthogonalLoop=1;jettySize=auto;html=1;exitX=0.5;exitY=0;exitDx=0;exitDy=0;entryX=0.5;entryY=0;entryDx=0;entryDy=0;fontFamily=JetBrains Mono;fontSize=10;" parent="1" source="pW5aCWIbukg0qzRGrfaP-20" target="duXigHyz0z7ZVTYMHCSX-50" edge="1">
          <mxGeometry relative="1" as="geometry">
            <mxPoint x="110" y="850" as="targetPoint" />
          </mxGeometry>
        </mxCell>
        <mxCell id="pW5aCWIbukg0qzRGrfaP-20" value="&lt;div style=&quot;font-size: 10px;&quot;&gt;&lt;br style=&quot;font-size: 10px;&quot;&gt;&lt;/div&gt;&lt;div style=&quot;font-size: 10px;&quot;&gt;Б&lt;/div&gt;" style="shape=loopLimit;whiteSpace=wrap;html=1;size=20;direction=west;strokeWidth=2;fontFamily=JetBrains Mono;fontSize=10;" parent="1" vertex="1">
          <mxGeometry x="10" y="790" width="200" height="41" as="geometry" />
        </mxCell>
        <mxCell id="pW5aCWIbukg0qzRGrfaP-26" style="edgeStyle=orthogonalEdgeStyle;rounded=0;orthogonalLoop=1;jettySize=auto;html=1;exitX=0.5;exitY=1;exitDx=0;exitDy=0;entryX=0.5;entryY=0;entryDx=0;entryDy=0;fontFamily=JetBrains Mono;fontSize=10;" parent="1" source="pW5aCWIbukg0qzRGrfaP-21" target="pW5aCWIbukg0qzRGrfaP-25" edge="1">
          <mxGeometry relative="1" as="geometry" />
        </mxCell>
        <mxCell id="pW5aCWIbukg0qzRGrfaP-21" value="&lt;div style=&quot;font-size: 10px;&quot;&gt;Б&lt;/div&gt;&lt;div style=&quot;font-size: 10px;&quot;&gt;j &amp;gt;= n - 1&lt;/div&gt;" style="shape=loopLimit;whiteSpace=wrap;html=1;size=18;direction=east;strokeWidth=2;fontFamily=JetBrains Mono;fontSize=10;" parent="1" vertex="1">
          <mxGeometry x="10" y="480" width="200" height="39" as="geometry" />
        </mxCell>
        <mxCell id="pW5aCWIbukg0qzRGrfaP-24" style="edgeStyle=orthogonalEdgeStyle;rounded=0;orthogonalLoop=1;jettySize=auto;html=1;exitX=0.5;exitY=1;exitDx=0;exitDy=0;entryX=0.5;entryY=0;entryDx=0;entryDy=0;fontFamily=JetBrains Mono;fontSize=10;" parent="1" source="pW5aCWIbukg0qzRGrfaP-22" target="pW5aCWIbukg0qzRGrfaP-21" edge="1">
          <mxGeometry relative="1" as="geometry" />
        </mxCell>
        <mxCell id="pW5aCWIbukg0qzRGrfaP-22" value="j = 0" style="rounded=0;whiteSpace=wrap;html=1;strokeWidth=2;fontFamily=JetBrains Mono;fontSize=10;" parent="1" vertex="1">
          <mxGeometry x="10" y="430" width="200" height="30" as="geometry" />
        </mxCell>
        <mxCell id="pW5aCWIbukg0qzRGrfaP-29" style="edgeStyle=orthogonalEdgeStyle;rounded=0;orthogonalLoop=1;jettySize=auto;html=1;exitX=0.5;exitY=1;exitDx=0;exitDy=0;entryX=0.5;entryY=0;entryDx=0;entryDy=0;fontFamily=JetBrains Mono;fontSize=10;" parent="1" source="pW5aCWIbukg0qzRGrfaP-25" target="pW5aCWIbukg0qzRGrfaP-27" edge="1">
          <mxGeometry relative="1" as="geometry" />
        </mxCell>
        <mxCell id="pW5aCWIbukg0qzRGrfaP-36" value="1" style="edgeLabel;html=1;align=center;verticalAlign=middle;resizable=0;points=[];fontFamily=JetBrains Mono;fontSize=10;" parent="pW5aCWIbukg0qzRGrfaP-29" vertex="1" connectable="0">
          <mxGeometry x="-0.48" y="1" relative="1" as="geometry">
            <mxPoint x="9" y="5" as="offset" />
          </mxGeometry>
        </mxCell>
        <mxCell id="pW5aCWIbukg0qzRGrfaP-34" style="edgeStyle=orthogonalEdgeStyle;rounded=0;orthogonalLoop=1;jettySize=auto;html=1;exitX=1;exitY=0.5;exitDx=0;exitDy=0;entryX=0.5;entryY=1;entryDx=0;entryDy=0;fontFamily=JetBrains Mono;fontSize=10;" parent="1" source="pW5aCWIbukg0qzRGrfaP-25" target="pW5aCWIbukg0qzRGrfaP-20" edge="1">
          <mxGeometry relative="1" as="geometry">
            <Array as="points">
              <mxPoint x="230" y="570" />
              <mxPoint x="230" y="770" />
              <mxPoint x="110" y="770" />
            </Array>
          </mxGeometry>
        </mxCell>
        <mxCell id="pW5aCWIbukg0qzRGrfaP-35" value="0" style="edgeLabel;html=1;align=center;verticalAlign=middle;resizable=0;points=[];fontFamily=JetBrains Mono;fontSize=10;" parent="pW5aCWIbukg0qzRGrfaP-34" vertex="1" connectable="0">
          <mxGeometry x="-0.9333" y="2" relative="1" as="geometry">
            <mxPoint x="-12" y="-8" as="offset" />
          </mxGeometry>
        </mxCell>
        <mxCell id="pW5aCWIbukg0qzRGrfaP-25" value="arr[i] &amp;lt; arr[i+1]" style="rhombus;whiteSpace=wrap;html=1;strokeWidth=2;fontFamily=JetBrains Mono;fontSize=10;" parent="1" vertex="1">
          <mxGeometry x="10" y="540" width="200" height="60" as="geometry" />
        </mxCell>
        <mxCell id="pW5aCWIbukg0qzRGrfaP-30" style="edgeStyle=orthogonalEdgeStyle;rounded=0;orthogonalLoop=1;jettySize=auto;html=1;exitX=0.5;exitY=1;exitDx=0;exitDy=0;entryX=0.5;entryY=0;entryDx=0;entryDy=0;fontFamily=JetBrains Mono;fontSize=10;" parent="1" source="pW5aCWIbukg0qzRGrfaP-27" target="pW5aCWIbukg0qzRGrfaP-28" edge="1">
          <mxGeometry relative="1" as="geometry" />
        </mxCell>
        <mxCell id="pW5aCWIbukg0qzRGrfaP-27" value="narr[cnt] = arr[i]" style="rounded=0;whiteSpace=wrap;html=1;strokeWidth=2;fontFamily=JetBrains Mono;fontSize=10;" parent="1" vertex="1">
          <mxGeometry x="10" y="620" width="200" height="30" as="geometry" />
        </mxCell>
        <mxCell id="pW5aCWIbukg0qzRGrfaP-32" style="edgeStyle=orthogonalEdgeStyle;rounded=0;orthogonalLoop=1;jettySize=auto;html=1;exitX=0.5;exitY=1;exitDx=0;exitDy=0;entryX=0.5;entryY=0;entryDx=0;entryDy=0;fontFamily=JetBrains Mono;fontSize=10;" parent="1" source="pW5aCWIbukg0qzRGrfaP-28" target="pW5aCWIbukg0qzRGrfaP-31" edge="1">
          <mxGeometry relative="1" as="geometry" />
        </mxCell>
        <mxCell id="pW5aCWIbukg0qzRGrfaP-28" value="cnt = cnt + 1" style="rounded=0;whiteSpace=wrap;html=1;strokeWidth=2;fontFamily=JetBrains Mono;fontSize=10;" parent="1" vertex="1">
          <mxGeometry x="10" y="670" width="200" height="30" as="geometry" />
        </mxCell>
        <mxCell id="pW5aCWIbukg0qzRGrfaP-33" style="edgeStyle=orthogonalEdgeStyle;rounded=0;orthogonalLoop=1;jettySize=auto;html=1;exitX=0.5;exitY=1;exitDx=0;exitDy=0;entryX=0.5;entryY=1;entryDx=0;entryDy=0;fontFamily=JetBrains Mono;fontSize=10;" parent="1" source="pW5aCWIbukg0qzRGrfaP-31" target="pW5aCWIbukg0qzRGrfaP-20" edge="1">
          <mxGeometry relative="1" as="geometry" />
        </mxCell>
        <mxCell id="pW5aCWIbukg0qzRGrfaP-31" value="j = j + 1" style="rounded=0;whiteSpace=wrap;html=1;strokeWidth=2;fontFamily=JetBrains Mono;fontSize=10;" parent="1" vertex="1">
          <mxGeometry x="10" y="720" width="200" height="30" as="geometry" />
        </mxCell>
        <mxCell id="duXigHyz0z7ZVTYMHCSX-33" value="Конец" style="rounded=1;whiteSpace=wrap;html=1;arcSize=50;container=0;strokeWidth=2;fontFamily=JetBrains Mono;fontSize=10;" parent="1" vertex="1">
          <mxGeometry x="290" y="811" width="200" height="30" as="geometry" />
        </mxCell>
        <mxCell id="duXigHyz0z7ZVTYMHCSX-34" style="edgeStyle=orthogonalEdgeStyle;rounded=0;orthogonalLoop=1;jettySize=auto;html=1;exitX=0.5;exitY=1;exitDx=0;exitDy=0;entryX=0.5;entryY=0;entryDx=0;entryDy=0;fontFamily=JetBrains Mono;fontSize=10;" parent="1" source="duXigHyz0z7ZVTYMHCSX-37" target="duXigHyz0z7ZVTYMHCSX-39" edge="1">
          <mxGeometry relative="1" as="geometry" />
        </mxCell>
        <mxCell id="duXigHyz0z7ZVTYMHCSX-35" value="1" style="edgeLabel;html=1;align=center;verticalAlign=middle;resizable=0;points=[];fontFamily=JetBrains Mono;fontSize=10;" parent="duXigHyz0z7ZVTYMHCSX-34" vertex="1" connectable="0">
          <mxGeometry x="0.04" relative="1" as="geometry">
            <mxPoint x="10" as="offset" />
          </mxGeometry>
        </mxCell>
        <mxCell id="duXigHyz0z7ZVTYMHCSX-36" style="edgeStyle=orthogonalEdgeStyle;rounded=0;orthogonalLoop=1;jettySize=auto;html=1;exitX=1;exitY=0.5;exitDx=0;exitDy=0;entryX=0.5;entryY=0;entryDx=0;entryDy=0;fontFamily=JetBrains Mono;fontSize=10;" parent="1" source="duXigHyz0z7ZVTYMHCSX-37" target="duXigHyz0z7ZVTYMHCSX-49" edge="1">
          <mxGeometry relative="1" as="geometry" />
        </mxCell>
        <mxCell id="duXigHyz0z7ZVTYMHCSX-59" value="0" style="edgeLabel;html=1;align=center;verticalAlign=middle;resizable=0;points=[];fontFamily=JetBrains Mono;fontSize=10;" parent="duXigHyz0z7ZVTYMHCSX-36" vertex="1" connectable="0">
          <mxGeometry x="-0.0077" y="-1" relative="1" as="geometry">
            <mxPoint x="-80" y="-12" as="offset" />
          </mxGeometry>
        </mxCell>
        <mxCell id="duXigHyz0z7ZVTYMHCSX-37" value="cnt = 0" style="rhombus;whiteSpace=wrap;html=1;strokeWidth=2;fontFamily=JetBrains Mono;fontSize=10;" parent="1" vertex="1">
          <mxGeometry x="290" y="461" width="200" height="60" as="geometry" />
        </mxCell>
        <mxCell id="duXigHyz0z7ZVTYMHCSX-38" style="edgeStyle=orthogonalEdgeStyle;rounded=0;orthogonalLoop=1;jettySize=auto;html=1;exitX=0.5;exitY=1;exitDx=0;exitDy=0;entryX=0.5;entryY=0;entryDx=0;entryDy=0;fontFamily=JetBrains Mono;fontSize=10;" parent="1" source="duXigHyz0z7ZVTYMHCSX-39" target="duXigHyz0z7ZVTYMHCSX-33" edge="1">
          <mxGeometry relative="1" as="geometry" />
        </mxCell>
        <mxCell id="duXigHyz0z7ZVTYMHCSX-39" value="Вывод NO" style="shape=parallelogram;perimeter=parallelogramPerimeter;whiteSpace=wrap;html=1;fixedSize=1;size=30;container=0;strokeWidth=2;fontFamily=JetBrains Mono;fontSize=10;" parent="1" vertex="1">
          <mxGeometry x="290" y="541" width="200" height="30" as="geometry" />
        </mxCell>
        <mxCell id="duXigHyz0z7ZVTYMHCSX-40" style="edgeStyle=orthogonalEdgeStyle;rounded=0;orthogonalLoop=1;jettySize=auto;html=1;exitX=0.5;exitY=0;exitDx=0;exitDy=0;entryX=0.5;entryY=0;entryDx=0;entryDy=0;fontFamily=JetBrains Mono;fontSize=10;" parent="1" source="duXigHyz0z7ZVTYMHCSX-41" target="duXigHyz0z7ZVTYMHCSX-33" edge="1">
          <mxGeometry relative="1" as="geometry">
            <Array as="points">
              <mxPoint x="620" y="791" />
              <mxPoint x="390" y="791" />
            </Array>
          </mxGeometry>
        </mxCell>
        <mxCell id="duXigHyz0z7ZVTYMHCSX-41" value="&lt;div style=&quot;font-size: 10px;&quot;&gt;&lt;br style=&quot;font-size: 10px;&quot;&gt;&lt;/div&gt;&lt;div style=&quot;font-size: 10px;&quot;&gt;В&lt;/div&gt;" style="shape=loopLimit;whiteSpace=wrap;html=1;size=20;direction=west;strokeWidth=2;fontFamily=JetBrains Mono;fontSize=10;" parent="1" vertex="1">
          <mxGeometry x="520" y="732" width="200" height="41" as="geometry" />
        </mxCell>
        <mxCell id="duXigHyz0z7ZVTYMHCSX-42" style="edgeStyle=orthogonalEdgeStyle;rounded=0;orthogonalLoop=1;jettySize=auto;html=1;exitX=0.5;exitY=1;exitDx=0;exitDy=0;entryX=0.5;entryY=0;entryDx=0;entryDy=0;fontFamily=JetBrains Mono;fontSize=10;" parent="1" source="duXigHyz0z7ZVTYMHCSX-43" target="duXigHyz0z7ZVTYMHCSX-47" edge="1">
          <mxGeometry relative="1" as="geometry" />
        </mxCell>
        <mxCell id="duXigHyz0z7ZVTYMHCSX-43" value="&lt;div style=&quot;font-size: 10px;&quot;&gt;В&lt;/div&gt;&lt;div style=&quot;font-size: 10px;&quot;&gt;&lt;span style=&quot;font-size: 10px;&quot;&gt;k &amp;gt;= cnt&lt;/span&gt;&lt;br style=&quot;font-size: 10px;&quot;&gt;&lt;/div&gt;" style="shape=loopLimit;whiteSpace=wrap;html=1;size=18;direction=east;strokeWidth=2;fontFamily=JetBrains Mono;fontSize=10;" parent="1" vertex="1">
          <mxGeometry x="520" y="571" width="200" height="39" as="geometry" />
        </mxCell>
        <mxCell id="duXigHyz0z7ZVTYMHCSX-44" style="edgeStyle=orthogonalEdgeStyle;rounded=0;orthogonalLoop=1;jettySize=auto;html=1;exitX=0.5;exitY=1;exitDx=0;exitDy=0;entryX=0.5;entryY=1;entryDx=0;entryDy=0;fontFamily=JetBrains Mono;fontSize=10;" parent="1" source="duXigHyz0z7ZVTYMHCSX-45" target="duXigHyz0z7ZVTYMHCSX-41" edge="1">
          <mxGeometry relative="1" as="geometry" />
        </mxCell>
        <mxCell id="duXigHyz0z7ZVTYMHCSX-45" value="k = k + 1" style="rounded=0;whiteSpace=wrap;html=1;strokeWidth=2;fontFamily=JetBrains Mono;fontSize=10;" parent="1" vertex="1">
          <mxGeometry x="520" y="681" width="200" height="30" as="geometry" />
        </mxCell>
        <mxCell id="duXigHyz0z7ZVTYMHCSX-46" style="edgeStyle=orthogonalEdgeStyle;rounded=0;orthogonalLoop=1;jettySize=auto;html=1;exitX=0.5;exitY=1;exitDx=0;exitDy=0;entryX=0.5;entryY=0;entryDx=0;entryDy=0;fontFamily=JetBrains Mono;fontSize=10;" parent="1" source="duXigHyz0z7ZVTYMHCSX-47" target="duXigHyz0z7ZVTYMHCSX-45" edge="1">
          <mxGeometry relative="1" as="geometry" />
        </mxCell>
        <mxCell id="duXigHyz0z7ZVTYMHCSX-47" value="Вывод narr[i]" style="shape=parallelogram;perimeter=parallelogramPerimeter;whiteSpace=wrap;html=1;fixedSize=1;size=30;container=0;strokeWidth=2;fontFamily=JetBrains Mono;fontSize=10;" parent="1" vertex="1">
          <mxGeometry x="520" y="630" width="200" height="30" as="geometry" />
        </mxCell>
        <mxCell id="duXigHyz0z7ZVTYMHCSX-48" style="edgeStyle=orthogonalEdgeStyle;rounded=0;orthogonalLoop=1;jettySize=auto;html=1;exitX=0.5;exitY=1;exitDx=0;exitDy=0;entryX=0.5;entryY=0;entryDx=0;entryDy=0;fontFamily=JetBrains Mono;fontSize=10;" parent="1" source="duXigHyz0z7ZVTYMHCSX-49" target="duXigHyz0z7ZVTYMHCSX-43" edge="1">
          <mxGeometry relative="1" as="geometry" />
        </mxCell>
        <mxCell id="duXigHyz0z7ZVTYMHCSX-49" value="k = 0" style="rounded=0;whiteSpace=wrap;html=1;strokeWidth=2;fontFamily=JetBrains Mono;fontSize=10;" parent="1" vertex="1">
          <mxGeometry x="520" y="521" width="200" height="30" as="geometry" />
        </mxCell>
        <mxCell id="duXigHyz0z7ZVTYMHCSX-50" value="&lt;font style=&quot;font-size: 10px;&quot;&gt;A1&lt;/font&gt;" style="ellipse;whiteSpace=wrap;html=1;aspect=fixed;strokeWidth=2;fontFamily=JetBrains Mono;fontSize=10;" parent="1" vertex="1">
          <mxGeometry x="95" y="850" width="30" height="30" as="geometry" />
        </mxCell>
        <mxCell id="duXigHyz0z7ZVTYMHCSX-52" style="edgeStyle=orthogonalEdgeStyle;rounded=0;orthogonalLoop=1;jettySize=auto;html=1;exitX=0.5;exitY=1;exitDx=0;exitDy=0;entryX=0.5;entryY=0;entryDx=0;entryDy=0;fontFamily=JetBrains Mono;fontSize=10;" parent="1" source="duXigHyz0z7ZVTYMHCSX-51" target="duXigHyz0z7ZVTYMHCSX-37" edge="1">
          <mxGeometry relative="1" as="geometry" />
        </mxCell>
        <mxCell id="duXigHyz0z7ZVTYMHCSX-51" value="&lt;font style=&quot;font-size: 10px;&quot;&gt;A1&lt;/font&gt;" style="ellipse;whiteSpace=wrap;html=1;aspect=fixed;strokeWidth=2;fontFamily=JetBrains Mono;fontSize=10;" parent="1" vertex="1">
          <mxGeometry x="375" y="410" width="30" height="30" as="geometry" />
        </mxCell>
        <mxCell id="duXigHyz0z7ZVTYMHCSX-53" value="j - счётчик цикла Б&amp;nbsp;" style="strokeWidth=2;html=1;shape=mxgraph.flowchart.annotation_1;align=left;pointerEvents=1;fontFamily=JetBrains Mono;fontSize=10;" parent="1" vertex="1">
          <mxGeometry x="230" y="430" width="10" height="30" as="geometry" />
        </mxCell>
        <mxCell id="duXigHyz0z7ZVTYMHCSX-54" style="edgeStyle=orthogonalEdgeStyle;rounded=0;orthogonalLoop=1;jettySize=auto;html=1;exitX=1;exitY=0.5;exitDx=0;exitDy=0;entryX=0;entryY=0.5;entryDx=0;entryDy=0;entryPerimeter=0;endArrow=none;endFill=0;dashed=1;fontFamily=JetBrains Mono;fontSize=10;" parent="1" source="pW5aCWIbukg0qzRGrfaP-22" target="duXigHyz0z7ZVTYMHCSX-53" edge="1">
          <mxGeometry relative="1" as="geometry" />
        </mxCell>
      </root>
    </mxGraphModel>
  </diagram>
  <diagram id="Y-xiAbu7lWXNOYtJRyT_" name="17">
    <mxGraphModel dx="2206" dy="1286" grid="1" gridSize="10" guides="1" tooltips="1" connect="1" arrows="1" fold="1" page="1" pageScale="1" pageWidth="827" pageHeight="1169" math="0" shadow="0">
      <root>
        <mxCell id="0" />
        <mxCell id="1" parent="0" />
        <mxCell id="omxRsnT6lhaYIYhHnLtV-4" style="edgeStyle=orthogonalEdgeStyle;rounded=0;orthogonalLoop=1;jettySize=auto;html=1;exitX=0.5;exitY=1;exitDx=0;exitDy=0;entryX=0.5;entryY=0;entryDx=0;entryDy=0;" edge="1" parent="1" source="omxRsnT6lhaYIYhHnLtV-1" target="omxRsnT6lhaYIYhHnLtV-3">
          <mxGeometry relative="1" as="geometry" />
        </mxCell>
        <mxCell id="omxRsnT6lhaYIYhHnLtV-1" value="Начало" style="rounded=1;whiteSpace=wrap;html=1;arcSize=50;container=0;strokeWidth=2;fontFamily=JetBrains Mono;fontSize=10;" vertex="1" parent="1">
          <mxGeometry x="10" y="10" width="200" height="30" as="geometry" />
        </mxCell>
        <mxCell id="omxRsnT6lhaYIYhHnLtV-2" value="Конец" style="rounded=1;whiteSpace=wrap;html=1;arcSize=50;container=0;strokeWidth=2;fontFamily=JetBrains Mono;fontSize=10;" vertex="1" parent="1">
          <mxGeometry x="400" y="590" width="200" height="30" as="geometry" />
        </mxCell>
        <mxCell id="YyZnbG36pzi7Z6GdzZfX-12" style="edgeStyle=orthogonalEdgeStyle;rounded=0;orthogonalLoop=1;jettySize=auto;html=1;exitX=0.5;exitY=1;exitDx=0;exitDy=0;entryX=0.5;entryY=0;entryDx=0;entryDy=0;" edge="1" parent="1" source="omxRsnT6lhaYIYhHnLtV-3" target="YyZnbG36pzi7Z6GdzZfX-3">
          <mxGeometry relative="1" as="geometry" />
        </mxCell>
        <mxCell id="omxRsnT6lhaYIYhHnLtV-3" value="Ввод n, k" style="shape=parallelogram;perimeter=parallelogramPerimeter;whiteSpace=wrap;html=1;fixedSize=1;size=30;container=0;strokeWidth=2;fontFamily=JetBrains Mono;fontSize=10;" vertex="1" parent="1">
          <mxGeometry x="10" y="60" width="200" height="30" as="geometry" />
        </mxCell>
        <mxCell id="YyZnbG36pzi7Z6GdzZfX-1" value="i - счётчик цикла А" style="strokeWidth=2;html=1;shape=mxgraph.flowchart.annotation_1;align=left;pointerEvents=1;fontFamily=JetBrains Mono;fontSize=10;" vertex="1" parent="1">
          <mxGeometry x="230" y="110" width="10" height="30" as="geometry" />
        </mxCell>
        <mxCell id="YyZnbG36pzi7Z6GdzZfX-2" style="edgeStyle=orthogonalEdgeStyle;rounded=0;orthogonalLoop=1;jettySize=auto;html=1;exitX=0.5;exitY=1;exitDx=0;exitDy=0;entryX=0.5;entryY=0;entryDx=0;entryDy=0;fontSize=10;fontFamily=JetBrains Mono;" edge="1" parent="1" source="YyZnbG36pzi7Z6GdzZfX-3" target="YyZnbG36pzi7Z6GdzZfX-7">
          <mxGeometry relative="1" as="geometry" />
        </mxCell>
        <mxCell id="YyZnbG36pzi7Z6GdzZfX-3" value="i = 0" style="rounded=0;whiteSpace=wrap;html=1;strokeWidth=2;fontFamily=JetBrains Mono;fontSize=10;" vertex="1" parent="1">
          <mxGeometry x="10" y="110" width="200" height="30" as="geometry" />
        </mxCell>
        <mxCell id="YyZnbG36pzi7Z6GdzZfX-4" style="edgeStyle=orthogonalEdgeStyle;rounded=0;orthogonalLoop=1;jettySize=auto;html=1;exitX=1;exitY=0.5;exitDx=0;exitDy=0;entryX=0;entryY=0.5;entryDx=0;entryDy=0;entryPerimeter=0;endArrow=none;endFill=0;dashed=1;fontFamily=JetBrains Mono;fontSize=10;" edge="1" parent="1" source="YyZnbG36pzi7Z6GdzZfX-3" target="YyZnbG36pzi7Z6GdzZfX-1">
          <mxGeometry relative="1" as="geometry" />
        </mxCell>
        <mxCell id="-RM1IFaxTZnxcSph_e6p-2" style="edgeStyle=orthogonalEdgeStyle;rounded=0;orthogonalLoop=1;jettySize=auto;html=1;exitX=0.5;exitY=0;exitDx=0;exitDy=0;entryX=0.5;entryY=0;entryDx=0;entryDy=0;" edge="1" parent="1" source="YyZnbG36pzi7Z6GdzZfX-5" target="-RM1IFaxTZnxcSph_e6p-1">
          <mxGeometry relative="1" as="geometry" />
        </mxCell>
        <mxCell id="YyZnbG36pzi7Z6GdzZfX-5" value="&lt;div style=&quot;font-size: 10px;&quot;&gt;&lt;br style=&quot;font-size: 10px;&quot;&gt;&lt;/div&gt;&lt;div style=&quot;font-size: 10px;&quot;&gt;А&lt;/div&gt;" style="shape=loopLimit;whiteSpace=wrap;html=1;size=20;direction=west;strokeWidth=2;fontFamily=JetBrains Mono;fontSize=10;" vertex="1" parent="1">
          <mxGeometry x="10" y="320" width="200" height="41" as="geometry" />
        </mxCell>
        <mxCell id="YyZnbG36pzi7Z6GdzZfX-6" style="edgeStyle=orthogonalEdgeStyle;rounded=0;orthogonalLoop=1;jettySize=auto;html=1;exitX=0.5;exitY=1;exitDx=0;exitDy=0;entryX=0.5;entryY=0;entryDx=0;entryDy=0;fontSize=10;fontFamily=JetBrains Mono;" edge="1" parent="1" source="YyZnbG36pzi7Z6GdzZfX-7" target="YyZnbG36pzi7Z6GdzZfX-9">
          <mxGeometry relative="1" as="geometry" />
        </mxCell>
        <mxCell id="YyZnbG36pzi7Z6GdzZfX-7" value="&lt;div style=&quot;font-size: 10px;&quot;&gt;А&lt;/div&gt;&lt;div style=&quot;font-size: 10px;&quot;&gt;i &amp;gt;= n&lt;/div&gt;" style="shape=loopLimit;whiteSpace=wrap;html=1;size=18;direction=east;strokeWidth=2;fontFamily=JetBrains Mono;fontSize=10;" vertex="1" parent="1">
          <mxGeometry x="10" y="160" width="200" height="39" as="geometry" />
        </mxCell>
        <mxCell id="YyZnbG36pzi7Z6GdzZfX-8" style="edgeStyle=orthogonalEdgeStyle;rounded=0;orthogonalLoop=1;jettySize=auto;html=1;exitX=0.5;exitY=1;exitDx=0;exitDy=0;entryX=0.5;entryY=0;entryDx=0;entryDy=0;fontSize=10;fontFamily=JetBrains Mono;" edge="1" parent="1" source="YyZnbG36pzi7Z6GdzZfX-9" target="YyZnbG36pzi7Z6GdzZfX-11">
          <mxGeometry relative="1" as="geometry" />
        </mxCell>
        <mxCell id="YyZnbG36pzi7Z6GdzZfX-9" value="Ввод arr[i]" style="shape=parallelogram;perimeter=parallelogramPerimeter;whiteSpace=wrap;html=1;fixedSize=1;size=30;container=0;strokeWidth=2;fontFamily=JetBrains Mono;fontSize=10;" vertex="1" parent="1">
          <mxGeometry x="10" y="220" width="200" height="30" as="geometry" />
        </mxCell>
        <mxCell id="YyZnbG36pzi7Z6GdzZfX-10" style="edgeStyle=orthogonalEdgeStyle;rounded=0;orthogonalLoop=1;jettySize=auto;html=1;exitX=0.5;exitY=1;exitDx=0;exitDy=0;entryX=0.5;entryY=1;entryDx=0;entryDy=0;fontSize=10;fontFamily=JetBrains Mono;" edge="1" parent="1" source="YyZnbG36pzi7Z6GdzZfX-11" target="YyZnbG36pzi7Z6GdzZfX-5">
          <mxGeometry relative="1" as="geometry" />
        </mxCell>
        <mxCell id="YyZnbG36pzi7Z6GdzZfX-11" value="i = i + 1" style="rounded=0;whiteSpace=wrap;html=1;strokeWidth=2;fontFamily=JetBrains Mono;fontSize=10;" vertex="1" parent="1">
          <mxGeometry x="10" y="270" width="200" height="30" as="geometry" />
        </mxCell>
        <mxCell id="31awnWITNHd9Lhs_6neu-1" style="edgeStyle=orthogonalEdgeStyle;rounded=0;orthogonalLoop=1;jettySize=auto;html=1;exitX=0.5;exitY=1;exitDx=0;exitDy=0;entryX=0.5;entryY=0;entryDx=0;entryDy=0;" edge="1" parent="1" source="-RM1IFaxTZnxcSph_e6p-1" target="MQtKJIGDhRxx7jn5IuPH-3">
          <mxGeometry relative="1" as="geometry" />
        </mxCell>
        <mxCell id="-RM1IFaxTZnxcSph_e6p-1" value="cnt = 1" style="rounded=0;whiteSpace=wrap;html=1;strokeWidth=2;fontFamily=JetBrains Mono;fontSize=10;" vertex="1" parent="1">
          <mxGeometry x="10" y="380" width="200" height="30" as="geometry" />
        </mxCell>
        <mxCell id="SVgKzMoErgAWajqsETWM-2" style="edgeStyle=orthogonalEdgeStyle;rounded=0;orthogonalLoop=1;jettySize=auto;html=1;exitX=0.5;exitY=0;exitDx=0;exitDy=0;entryX=0.5;entryY=0;entryDx=0;entryDy=0;" edge="1" parent="1" source="MQtKJIGDhRxx7jn5IuPH-1" target="SVgKzMoErgAWajqsETWM-1">
          <mxGeometry relative="1" as="geometry" />
        </mxCell>
        <mxCell id="MQtKJIGDhRxx7jn5IuPH-1" value="&lt;div style=&quot;font-size: 10px;&quot;&gt;&lt;br style=&quot;font-size: 10px;&quot;&gt;&lt;/div&gt;&lt;div style=&quot;font-size: 10px;&quot;&gt;Б&lt;/div&gt;" style="shape=loopLimit;whiteSpace=wrap;html=1;size=20;direction=west;strokeWidth=2;fontFamily=JetBrains Mono;fontSize=10;" vertex="1" parent="1">
          <mxGeometry x="400" y="480" width="200" height="41" as="geometry" />
        </mxCell>
        <mxCell id="31awnWITNHd9Lhs_6neu-3" style="edgeStyle=orthogonalEdgeStyle;rounded=0;orthogonalLoop=1;jettySize=auto;html=1;exitX=0.5;exitY=1;exitDx=0;exitDy=0;entryX=0.5;entryY=0;entryDx=0;entryDy=0;" edge="1" parent="1" source="MQtKJIGDhRxx7jn5IuPH-2" target="MQtKJIGDhRxx7jn5IuPH-6">
          <mxGeometry relative="1" as="geometry" />
        </mxCell>
        <mxCell id="MQtKJIGDhRxx7jn5IuPH-2" value="&lt;div style=&quot;font-size: 10px;&quot;&gt;Б&lt;/div&gt;&lt;div style=&quot;font-size: 10px;&quot;&gt;j &amp;gt;= n&lt;/div&gt;" style="shape=loopLimit;whiteSpace=wrap;html=1;size=18;direction=east;strokeWidth=2;fontFamily=JetBrains Mono;fontSize=10;" vertex="1" parent="1">
          <mxGeometry x="10" y="480" width="200" height="39" as="geometry" />
        </mxCell>
        <mxCell id="31awnWITNHd9Lhs_6neu-2" style="edgeStyle=orthogonalEdgeStyle;rounded=0;orthogonalLoop=1;jettySize=auto;html=1;exitX=0.5;exitY=1;exitDx=0;exitDy=0;entryX=0.5;entryY=0;entryDx=0;entryDy=0;" edge="1" parent="1" source="MQtKJIGDhRxx7jn5IuPH-3" target="MQtKJIGDhRxx7jn5IuPH-2">
          <mxGeometry relative="1" as="geometry" />
        </mxCell>
        <mxCell id="MQtKJIGDhRxx7jn5IuPH-3" value="j = 0" style="rounded=0;whiteSpace=wrap;html=1;strokeWidth=2;fontFamily=JetBrains Mono;fontSize=10;" vertex="1" parent="1">
          <mxGeometry x="10" y="430" width="200" height="30" as="geometry" />
        </mxCell>
        <mxCell id="MQtKJIGDhRxx7jn5IuPH-4" value="j - счётчик цикла Б" style="strokeWidth=2;html=1;shape=mxgraph.flowchart.annotation_1;align=left;pointerEvents=1;fontFamily=JetBrains Mono;fontSize=10;" vertex="1" parent="1">
          <mxGeometry x="240" y="430" width="10" height="30" as="geometry" />
        </mxCell>
        <mxCell id="MQtKJIGDhRxx7jn5IuPH-5" style="edgeStyle=orthogonalEdgeStyle;rounded=0;orthogonalLoop=1;jettySize=auto;html=1;exitX=1;exitY=0.5;exitDx=0;exitDy=0;entryX=0;entryY=0.5;entryDx=0;entryDy=0;entryPerimeter=0;endArrow=none;endFill=0;dashed=1;" edge="1" parent="1" source="MQtKJIGDhRxx7jn5IuPH-3" target="MQtKJIGDhRxx7jn5IuPH-4">
          <mxGeometry relative="1" as="geometry" />
        </mxCell>
        <mxCell id="SVgKzMoErgAWajqsETWM-7" style="edgeStyle=orthogonalEdgeStyle;rounded=0;orthogonalLoop=1;jettySize=auto;html=1;exitX=0.5;exitY=1;exitDx=0;exitDy=0;entryX=0.5;entryY=0;entryDx=0;entryDy=0;" edge="1" parent="1" source="MQtKJIGDhRxx7jn5IuPH-6" target="SVgKzMoErgAWajqsETWM-4">
          <mxGeometry relative="1" as="geometry" />
        </mxCell>
        <mxCell id="MQtKJIGDhRxx7jn5IuPH-6" value="sum = 0&lt;div&gt;l = j&lt;/div&gt;" style="rounded=0;whiteSpace=wrap;html=1;strokeWidth=2;fontFamily=JetBrains Mono;fontSize=10;" vertex="1" parent="1">
          <mxGeometry x="10" y="540" width="200" height="40" as="geometry" />
        </mxCell>
        <mxCell id="31awnWITNHd9Lhs_6neu-16" style="edgeStyle=orthogonalEdgeStyle;rounded=0;orthogonalLoop=1;jettySize=auto;html=1;exitX=0.5;exitY=0;exitDx=0;exitDy=0;entryX=0.5;entryY=0;entryDx=0;entryDy=0;" edge="1" parent="1" source="MQtKJIGDhRxx7jn5IuPH-7" target="31awnWITNHd9Lhs_6neu-15">
          <mxGeometry relative="1" as="geometry" />
        </mxCell>
        <mxCell id="MQtKJIGDhRxx7jn5IuPH-7" value="&lt;div style=&quot;font-size: 10px;&quot;&gt;&lt;br style=&quot;font-size: 10px;&quot;&gt;&lt;/div&gt;&lt;div style=&quot;font-size: 10px;&quot;&gt;В&lt;/div&gt;" style="shape=loopLimit;whiteSpace=wrap;html=1;size=20;direction=west;strokeWidth=2;fontFamily=JetBrains Mono;fontSize=10;" vertex="1" parent="1">
          <mxGeometry x="400" y="370" width="200" height="41" as="geometry" />
        </mxCell>
        <mxCell id="31awnWITNHd9Lhs_6neu-5" style="edgeStyle=orthogonalEdgeStyle;rounded=0;orthogonalLoop=1;jettySize=auto;html=1;exitX=0.5;exitY=1;exitDx=0;exitDy=0;entryX=0.5;entryY=0;entryDx=0;entryDy=0;" edge="1" parent="1" source="MQtKJIGDhRxx7jn5IuPH-8" target="GjUPeemt1VxtnJ49mbay-1">
          <mxGeometry relative="1" as="geometry" />
        </mxCell>
        <mxCell id="MQtKJIGDhRxx7jn5IuPH-8" value="&lt;div style=&quot;font-size: 10px;&quot;&gt;В&lt;/div&gt;&lt;div style=&quot;font-size: 10px;&quot;&gt;l &amp;lt;= n&lt;/div&gt;" style="shape=loopLimit;whiteSpace=wrap;html=1;size=18;direction=east;strokeWidth=2;fontFamily=JetBrains Mono;fontSize=10;" vertex="1" parent="1">
          <mxGeometry x="400" y="60" width="200" height="39" as="geometry" />
        </mxCell>
        <mxCell id="31awnWITNHd9Lhs_6neu-6" style="edgeStyle=orthogonalEdgeStyle;rounded=0;orthogonalLoop=1;jettySize=auto;html=1;exitX=0.5;exitY=1;exitDx=0;exitDy=0;entryX=0.5;entryY=0;entryDx=0;entryDy=0;" edge="1" parent="1" source="GjUPeemt1VxtnJ49mbay-1" target="GjUPeemt1VxtnJ49mbay-2">
          <mxGeometry relative="1" as="geometry" />
        </mxCell>
        <mxCell id="GjUPeemt1VxtnJ49mbay-1" value="sum = sum + arr[j]" style="rounded=0;whiteSpace=wrap;html=1;strokeWidth=2;fontFamily=JetBrains Mono;fontSize=10;" vertex="1" parent="1">
          <mxGeometry x="400" y="120" width="200" height="30" as="geometry" />
        </mxCell>
        <mxCell id="31awnWITNHd9Lhs_6neu-8" style="edgeStyle=orthogonalEdgeStyle;rounded=0;orthogonalLoop=1;jettySize=auto;html=1;exitX=0.5;exitY=1;exitDx=0;exitDy=0;entryX=0.5;entryY=0;entryDx=0;entryDy=0;" edge="1" parent="1" source="GjUPeemt1VxtnJ49mbay-2" target="31awnWITNHd9Lhs_6neu-7">
          <mxGeometry relative="1" as="geometry" />
        </mxCell>
        <mxCell id="31awnWITNHd9Lhs_6neu-9" value="1" style="edgeLabel;html=1;align=center;verticalAlign=middle;resizable=0;points=[];" vertex="1" connectable="0" parent="31awnWITNHd9Lhs_6neu-8">
          <mxGeometry x="-0.3556" y="1" relative="1" as="geometry">
            <mxPoint x="9" y="4" as="offset" />
          </mxGeometry>
        </mxCell>
        <mxCell id="31awnWITNHd9Lhs_6neu-11" style="edgeStyle=orthogonalEdgeStyle;rounded=0;orthogonalLoop=1;jettySize=auto;html=1;exitX=1;exitY=0.5;exitDx=0;exitDy=0;entryX=0.5;entryY=0;entryDx=0;entryDy=0;" edge="1" parent="1" source="GjUPeemt1VxtnJ49mbay-2" target="31awnWITNHd9Lhs_6neu-10">
          <mxGeometry relative="1" as="geometry">
            <Array as="points">
              <mxPoint x="620" y="200" />
              <mxPoint x="620" y="300" />
              <mxPoint x="500" y="300" />
            </Array>
          </mxGeometry>
        </mxCell>
        <mxCell id="31awnWITNHd9Lhs_6neu-13" value="0" style="edgeLabel;html=1;align=center;verticalAlign=middle;resizable=0;points=[];" vertex="1" connectable="0" parent="31awnWITNHd9Lhs_6neu-11">
          <mxGeometry x="-0.941" y="1" relative="1" as="geometry">
            <mxPoint y="-9" as="offset" />
          </mxGeometry>
        </mxCell>
        <mxCell id="GjUPeemt1VxtnJ49mbay-2" value="(sum &amp;lt;= k)и(l - j + 1 &amp;gt; cnt)" style="rhombus;whiteSpace=wrap;html=1;strokeWidth=2;fontFamily=JetBrains Mono;fontSize=10;" vertex="1" parent="1">
          <mxGeometry x="400" y="170" width="200" height="60" as="geometry" />
        </mxCell>
        <mxCell id="31awnWITNHd9Lhs_6neu-12" style="edgeStyle=orthogonalEdgeStyle;rounded=0;orthogonalLoop=1;jettySize=auto;html=1;exitX=0.5;exitY=1;exitDx=0;exitDy=0;" edge="1" parent="1" source="31awnWITNHd9Lhs_6neu-7">
          <mxGeometry relative="1" as="geometry">
            <mxPoint x="500.1111111111111" y="320" as="targetPoint" />
          </mxGeometry>
        </mxCell>
        <mxCell id="31awnWITNHd9Lhs_6neu-7" value="cnt = l - j + 1" style="rounded=0;whiteSpace=wrap;html=1;strokeWidth=2;fontFamily=JetBrains Mono;fontSize=10;" vertex="1" parent="1">
          <mxGeometry x="400" y="250" width="200" height="30" as="geometry" />
        </mxCell>
        <mxCell id="31awnWITNHd9Lhs_6neu-14" style="edgeStyle=orthogonalEdgeStyle;rounded=0;orthogonalLoop=1;jettySize=auto;html=1;exitX=0.5;exitY=1;exitDx=0;exitDy=0;entryX=0.5;entryY=1;entryDx=0;entryDy=0;" edge="1" parent="1" source="31awnWITNHd9Lhs_6neu-10" target="MQtKJIGDhRxx7jn5IuPH-7">
          <mxGeometry relative="1" as="geometry" />
        </mxCell>
        <mxCell id="31awnWITNHd9Lhs_6neu-10" value="l = l + 1" style="rounded=0;whiteSpace=wrap;html=1;strokeWidth=2;fontFamily=JetBrains Mono;fontSize=10;" vertex="1" parent="1">
          <mxGeometry x="400" y="320" width="200" height="30" as="geometry" />
        </mxCell>
        <mxCell id="31awnWITNHd9Lhs_6neu-17" style="edgeStyle=orthogonalEdgeStyle;rounded=0;orthogonalLoop=1;jettySize=auto;html=1;exitX=0.5;exitY=1;exitDx=0;exitDy=0;entryX=0.5;entryY=1;entryDx=0;entryDy=0;" edge="1" parent="1" source="31awnWITNHd9Lhs_6neu-15" target="MQtKJIGDhRxx7jn5IuPH-1">
          <mxGeometry relative="1" as="geometry" />
        </mxCell>
        <mxCell id="31awnWITNHd9Lhs_6neu-15" value="j = j + 1" style="rounded=0;whiteSpace=wrap;html=1;strokeWidth=2;fontFamily=JetBrains Mono;fontSize=10;" vertex="1" parent="1">
          <mxGeometry x="400" y="430" width="200" height="30" as="geometry" />
        </mxCell>
        <mxCell id="SVgKzMoErgAWajqsETWM-3" style="edgeStyle=orthogonalEdgeStyle;rounded=0;orthogonalLoop=1;jettySize=auto;html=1;exitX=0.5;exitY=1;exitDx=0;exitDy=0;entryX=0.5;entryY=0;entryDx=0;entryDy=0;" edge="1" parent="1" source="SVgKzMoErgAWajqsETWM-1" target="omxRsnT6lhaYIYhHnLtV-2">
          <mxGeometry relative="1" as="geometry" />
        </mxCell>
        <mxCell id="SVgKzMoErgAWajqsETWM-1" value="Вывод cnt" style="shape=parallelogram;perimeter=parallelogramPerimeter;whiteSpace=wrap;html=1;fixedSize=1;size=30;container=0;strokeWidth=2;fontFamily=JetBrains Mono;fontSize=10;" vertex="1" parent="1">
          <mxGeometry x="400" y="540" width="200" height="30" as="geometry" />
        </mxCell>
        <mxCell id="SVgKzMoErgAWajqsETWM-4" value="&lt;font style=&quot;font-size: 10px;&quot;&gt;A1&lt;/font&gt;" style="ellipse;whiteSpace=wrap;html=1;aspect=fixed;strokeWidth=2;fontFamily=JetBrains Mono;fontSize=10;" vertex="1" parent="1">
          <mxGeometry x="95" y="600" width="30" height="30" as="geometry" />
        </mxCell>
        <mxCell id="SVgKzMoErgAWajqsETWM-6" style="edgeStyle=orthogonalEdgeStyle;rounded=0;orthogonalLoop=1;jettySize=auto;html=1;exitX=0.5;exitY=1;exitDx=0;exitDy=0;entryX=0.5;entryY=0;entryDx=0;entryDy=0;" edge="1" parent="1" source="SVgKzMoErgAWajqsETWM-5" target="MQtKJIGDhRxx7jn5IuPH-8">
          <mxGeometry relative="1" as="geometry" />
        </mxCell>
        <mxCell id="SVgKzMoErgAWajqsETWM-5" value="&lt;font style=&quot;font-size: 10px;&quot;&gt;A1&lt;/font&gt;" style="ellipse;whiteSpace=wrap;html=1;aspect=fixed;strokeWidth=2;fontFamily=JetBrains Mono;fontSize=10;" vertex="1" parent="1">
          <mxGeometry x="485" y="10" width="30" height="30" as="geometry" />
        </mxCell>
      </root>
    </mxGraphModel>
  </diagram>
  <diagram id="_nMmMSat1SAkRsGi2tbY" name="18">
    <mxGraphModel dx="956" dy="557" grid="1" gridSize="10" guides="1" tooltips="1" connect="1" arrows="1" fold="1" page="1" pageScale="1" pageWidth="827" pageHeight="1169" math="0" shadow="0">
      <root>
        <mxCell id="0" />
        <mxCell id="1" parent="0" />
        <mxCell id="PM8lRCLhzHqhRHAJKFOG-14" style="edgeStyle=orthogonalEdgeStyle;rounded=0;orthogonalLoop=1;jettySize=auto;html=1;exitX=0.5;exitY=1;exitDx=0;exitDy=0;entryX=0.5;entryY=0;entryDx=0;entryDy=0;" edge="1" parent="1" source="XOkHH5ZPfgzeeH3KS9h4-1" target="PM8lRCLhzHqhRHAJKFOG-2">
          <mxGeometry relative="1" as="geometry" />
        </mxCell>
        <mxCell id="XOkHH5ZPfgzeeH3KS9h4-1" value="Начало" style="rounded=1;whiteSpace=wrap;html=1;arcSize=50;container=0;strokeWidth=2;fontFamily=JetBrains Mono;fontSize=10;" vertex="1" parent="1">
          <mxGeometry x="10" y="10" width="200" height="30" as="geometry" />
        </mxCell>
        <mxCell id="XOkHH5ZPfgzeeH3KS9h4-2" value="Конец" style="rounded=1;whiteSpace=wrap;html=1;arcSize=50;container=0;strokeWidth=2;fontFamily=JetBrains Mono;fontSize=10;" vertex="1" parent="1">
          <mxGeometry x="400" y="900" width="200" height="30" as="geometry" />
        </mxCell>
        <mxCell id="PM8lRCLhzHqhRHAJKFOG-1" style="edgeStyle=orthogonalEdgeStyle;rounded=0;orthogonalLoop=1;jettySize=auto;html=1;exitX=0.5;exitY=1;exitDx=0;exitDy=0;entryX=0.5;entryY=0;entryDx=0;entryDy=0;" edge="1" parent="1" source="PM8lRCLhzHqhRHAJKFOG-2" target="PM8lRCLhzHqhRHAJKFOG-5">
          <mxGeometry relative="1" as="geometry" />
        </mxCell>
        <mxCell id="PM8lRCLhzHqhRHAJKFOG-2" value="Ввод n" style="shape=parallelogram;perimeter=parallelogramPerimeter;whiteSpace=wrap;html=1;fixedSize=1;size=30;container=0;strokeWidth=2;fontFamily=JetBrains Mono;fontSize=10;" vertex="1" parent="1">
          <mxGeometry x="10" y="60" width="200" height="30" as="geometry" />
        </mxCell>
        <mxCell id="PM8lRCLhzHqhRHAJKFOG-3" value="i - счётчик цикла А" style="strokeWidth=2;html=1;shape=mxgraph.flowchart.annotation_1;align=left;pointerEvents=1;fontFamily=JetBrains Mono;fontSize=10;" vertex="1" parent="1">
          <mxGeometry x="230" y="125" width="10" height="30" as="geometry" />
        </mxCell>
        <mxCell id="PM8lRCLhzHqhRHAJKFOG-4" style="edgeStyle=orthogonalEdgeStyle;rounded=0;orthogonalLoop=1;jettySize=auto;html=1;exitX=0.5;exitY=1;exitDx=0;exitDy=0;entryX=0.5;entryY=0;entryDx=0;entryDy=0;fontSize=10;fontFamily=JetBrains Mono;" edge="1" parent="1" source="PM8lRCLhzHqhRHAJKFOG-5" target="PM8lRCLhzHqhRHAJKFOG-9">
          <mxGeometry relative="1" as="geometry" />
        </mxCell>
        <mxCell id="PM8lRCLhzHqhRHAJKFOG-5" value="i = 0&lt;div&gt;cnt = 0&lt;/div&gt;&lt;div&gt;sum = 0&lt;br&gt;evenCnt = 0&lt;/div&gt;" style="rounded=0;whiteSpace=wrap;html=1;strokeWidth=2;fontFamily=JetBrains Mono;fontSize=10;" vertex="1" parent="1">
          <mxGeometry x="10" y="110" width="200" height="60" as="geometry" />
        </mxCell>
        <mxCell id="PM8lRCLhzHqhRHAJKFOG-6" style="edgeStyle=orthogonalEdgeStyle;rounded=0;orthogonalLoop=1;jettySize=auto;html=1;exitX=1;exitY=0.5;exitDx=0;exitDy=0;entryX=0;entryY=0.5;entryDx=0;entryDy=0;entryPerimeter=0;endArrow=none;endFill=0;dashed=1;fontFamily=JetBrains Mono;fontSize=10;" edge="1" parent="1" source="PM8lRCLhzHqhRHAJKFOG-5" target="PM8lRCLhzHqhRHAJKFOG-3">
          <mxGeometry relative="1" as="geometry" />
        </mxCell>
        <mxCell id="PM8lRCLhzHqhRHAJKFOG-80" style="edgeStyle=orthogonalEdgeStyle;rounded=0;orthogonalLoop=1;jettySize=auto;html=1;exitX=0.5;exitY=0;exitDx=0;exitDy=0;entryX=0.5;entryY=0;entryDx=0;entryDy=0;" edge="1" parent="1" source="PM8lRCLhzHqhRHAJKFOG-7" target="PM8lRCLhzHqhRHAJKFOG-78">
          <mxGeometry relative="1" as="geometry" />
        </mxCell>
        <mxCell id="PM8lRCLhzHqhRHAJKFOG-7" value="&lt;div style=&quot;font-size: 10px;&quot;&gt;&lt;br style=&quot;font-size: 10px;&quot;&gt;&lt;/div&gt;&lt;div style=&quot;font-size: 10px;&quot;&gt;А&lt;/div&gt;" style="shape=loopLimit;whiteSpace=wrap;html=1;size=20;direction=west;strokeWidth=2;fontFamily=JetBrains Mono;fontSize=10;" vertex="1" parent="1">
          <mxGeometry x="10" y="700" width="200" height="41" as="geometry" />
        </mxCell>
        <mxCell id="PM8lRCLhzHqhRHAJKFOG-8" style="edgeStyle=orthogonalEdgeStyle;rounded=0;orthogonalLoop=1;jettySize=auto;html=1;exitX=0.5;exitY=1;exitDx=0;exitDy=0;entryX=0.5;entryY=0;entryDx=0;entryDy=0;fontSize=10;fontFamily=JetBrains Mono;" edge="1" parent="1" source="PM8lRCLhzHqhRHAJKFOG-9" target="PM8lRCLhzHqhRHAJKFOG-11">
          <mxGeometry relative="1" as="geometry" />
        </mxCell>
        <mxCell id="PM8lRCLhzHqhRHAJKFOG-9" value="&lt;div style=&quot;font-size: 10px;&quot;&gt;А&lt;/div&gt;&lt;div style=&quot;font-size: 10px;&quot;&gt;i &amp;gt;= n&lt;/div&gt;" style="shape=loopLimit;whiteSpace=wrap;html=1;size=18;direction=east;strokeWidth=2;fontFamily=JetBrains Mono;fontSize=10;" vertex="1" parent="1">
          <mxGeometry x="10" y="190" width="200" height="39" as="geometry" />
        </mxCell>
        <mxCell id="PM8lRCLhzHqhRHAJKFOG-18" style="edgeStyle=orthogonalEdgeStyle;rounded=0;orthogonalLoop=1;jettySize=auto;html=1;exitX=0.5;exitY=1;exitDx=0;exitDy=0;entryX=0.5;entryY=0;entryDx=0;entryDy=0;" edge="1" parent="1" source="PM8lRCLhzHqhRHAJKFOG-11" target="PM8lRCLhzHqhRHAJKFOG-15">
          <mxGeometry relative="1" as="geometry" />
        </mxCell>
        <mxCell id="PM8lRCLhzHqhRHAJKFOG-11" value="Ввод arr[i]" style="shape=parallelogram;perimeter=parallelogramPerimeter;whiteSpace=wrap;html=1;fixedSize=1;size=30;container=0;strokeWidth=2;fontFamily=JetBrains Mono;fontSize=10;" vertex="1" parent="1">
          <mxGeometry x="10" y="250" width="200" height="30" as="geometry" />
        </mxCell>
        <mxCell id="PM8lRCLhzHqhRHAJKFOG-12" style="edgeStyle=orthogonalEdgeStyle;rounded=0;orthogonalLoop=1;jettySize=auto;html=1;exitX=0.5;exitY=1;exitDx=0;exitDy=0;entryX=0.5;entryY=1;entryDx=0;entryDy=0;fontSize=10;fontFamily=JetBrains Mono;" edge="1" parent="1" source="PM8lRCLhzHqhRHAJKFOG-13" target="PM8lRCLhzHqhRHAJKFOG-7">
          <mxGeometry relative="1" as="geometry" />
        </mxCell>
        <mxCell id="PM8lRCLhzHqhRHAJKFOG-13" value="i = i + 1" style="rounded=0;whiteSpace=wrap;html=1;strokeWidth=2;fontFamily=JetBrains Mono;fontSize=10;" vertex="1" parent="1">
          <mxGeometry x="10" y="650" width="200" height="30" as="geometry" />
        </mxCell>
        <mxCell id="PM8lRCLhzHqhRHAJKFOG-20" style="edgeStyle=orthogonalEdgeStyle;rounded=0;orthogonalLoop=1;jettySize=auto;html=1;exitX=0.5;exitY=1;exitDx=0;exitDy=0;entryX=0.5;entryY=0;entryDx=0;entryDy=0;" edge="1" parent="1" source="PM8lRCLhzHqhRHAJKFOG-15" target="PM8lRCLhzHqhRHAJKFOG-19">
          <mxGeometry relative="1" as="geometry" />
        </mxCell>
        <mxCell id="PM8lRCLhzHqhRHAJKFOG-21" value="1" style="edgeLabel;html=1;align=center;verticalAlign=middle;resizable=0;points=[];" vertex="1" connectable="0" parent="PM8lRCLhzHqhRHAJKFOG-20">
          <mxGeometry x="-0.1714" y="2" relative="1" as="geometry">
            <mxPoint x="8" as="offset" />
          </mxGeometry>
        </mxCell>
        <mxCell id="PM8lRCLhzHqhRHAJKFOG-23" style="edgeStyle=orthogonalEdgeStyle;rounded=0;orthogonalLoop=1;jettySize=auto;html=1;exitX=1;exitY=0.5;exitDx=0;exitDy=0;entryX=0.5;entryY=0;entryDx=0;entryDy=0;" edge="1" parent="1" source="PM8lRCLhzHqhRHAJKFOG-15" target="PM8lRCLhzHqhRHAJKFOG-22">
          <mxGeometry relative="1" as="geometry">
            <Array as="points">
              <mxPoint x="230" y="330" />
              <mxPoint x="230" y="430" />
              <mxPoint x="110" y="430" />
            </Array>
          </mxGeometry>
        </mxCell>
        <mxCell id="PM8lRCLhzHqhRHAJKFOG-25" value="0" style="edgeLabel;html=1;align=center;verticalAlign=middle;resizable=0;points=[];" vertex="1" connectable="0" parent="PM8lRCLhzHqhRHAJKFOG-23">
          <mxGeometry x="-0.8831" y="-1" relative="1" as="geometry">
            <mxPoint x="-15" y="-11" as="offset" />
          </mxGeometry>
        </mxCell>
        <mxCell id="PM8lRCLhzHqhRHAJKFOG-15" value="arr[i] % 3 = 0" style="rhombus;whiteSpace=wrap;html=1;strokeWidth=2;fontFamily=JetBrains Mono;fontSize=10;" vertex="1" parent="1">
          <mxGeometry x="10" y="300" width="200" height="60" as="geometry" />
        </mxCell>
        <mxCell id="PM8lRCLhzHqhRHAJKFOG-17" style="rounded=0;orthogonalLoop=1;jettySize=auto;html=1;exitX=0;exitY=0.5;exitDx=0;exitDy=0;exitPerimeter=0;entryX=1;entryY=0;entryDx=0;entryDy=0;endArrow=none;endFill=0;dashed=1;" edge="1" parent="1" source="PM8lRCLhzHqhRHAJKFOG-16" target="PM8lRCLhzHqhRHAJKFOG-15">
          <mxGeometry relative="1" as="geometry" />
        </mxCell>
        <mxCell id="PM8lRCLhzHqhRHAJKFOG-16" value="% - остаток от деления" style="strokeWidth=2;html=1;shape=mxgraph.flowchart.annotation_1;align=left;pointerEvents=1;fontFamily=JetBrains Mono;fontSize=10;" vertex="1" parent="1">
          <mxGeometry x="240" y="260" width="10" height="30" as="geometry" />
        </mxCell>
        <mxCell id="PM8lRCLhzHqhRHAJKFOG-24" style="edgeStyle=orthogonalEdgeStyle;rounded=0;orthogonalLoop=1;jettySize=auto;html=1;exitX=0.5;exitY=1;exitDx=0;exitDy=0;entryX=0.5;entryY=0;entryDx=0;entryDy=0;" edge="1" parent="1" source="PM8lRCLhzHqhRHAJKFOG-19" target="PM8lRCLhzHqhRHAJKFOG-22">
          <mxGeometry relative="1" as="geometry">
            <mxPoint x="110.14285714285711" y="450" as="targetPoint" />
          </mxGeometry>
        </mxCell>
        <mxCell id="PM8lRCLhzHqhRHAJKFOG-19" value="cnt = cnt + 1" style="rounded=0;whiteSpace=wrap;html=1;strokeWidth=2;fontFamily=JetBrains Mono;fontSize=10;" vertex="1" parent="1">
          <mxGeometry x="10" y="380" width="200" height="30" as="geometry" />
        </mxCell>
        <mxCell id="PM8lRCLhzHqhRHAJKFOG-27" style="edgeStyle=orthogonalEdgeStyle;rounded=0;orthogonalLoop=1;jettySize=auto;html=1;exitX=0.5;exitY=1;exitDx=0;exitDy=0;entryX=0.5;entryY=0;entryDx=0;entryDy=0;" edge="1" parent="1" source="PM8lRCLhzHqhRHAJKFOG-22" target="PM8lRCLhzHqhRHAJKFOG-26">
          <mxGeometry relative="1" as="geometry" />
        </mxCell>
        <mxCell id="PM8lRCLhzHqhRHAJKFOG-28" value="1" style="edgeLabel;html=1;align=center;verticalAlign=middle;resizable=0;points=[];" vertex="1" connectable="0" parent="PM8lRCLhzHqhRHAJKFOG-27">
          <mxGeometry x="-0.56" y="2" relative="1" as="geometry">
            <mxPoint x="8" as="offset" />
          </mxGeometry>
        </mxCell>
        <mxCell id="PM8lRCLhzHqhRHAJKFOG-31" style="edgeStyle=orthogonalEdgeStyle;rounded=0;orthogonalLoop=1;jettySize=auto;html=1;exitX=1;exitY=0.5;exitDx=0;exitDy=0;entryX=0.5;entryY=0;entryDx=0;entryDy=0;" edge="1" parent="1" source="PM8lRCLhzHqhRHAJKFOG-22" target="PM8lRCLhzHqhRHAJKFOG-13">
          <mxGeometry relative="1" as="geometry">
            <Array as="points">
              <mxPoint x="230" y="480" />
              <mxPoint x="230" y="630" />
              <mxPoint x="110" y="630" />
            </Array>
          </mxGeometry>
        </mxCell>
        <mxCell id="PM8lRCLhzHqhRHAJKFOG-33" value="0" style="edgeLabel;html=1;align=center;verticalAlign=middle;resizable=0;points=[];" vertex="1" connectable="0" parent="PM8lRCLhzHqhRHAJKFOG-31">
          <mxGeometry x="-0.9333" y="1" relative="1" as="geometry">
            <mxPoint x="-10" y="-9" as="offset" />
          </mxGeometry>
        </mxCell>
        <mxCell id="PM8lRCLhzHqhRHAJKFOG-22" value="arr[i] % 2 = 0" style="rhombus;whiteSpace=wrap;html=1;strokeWidth=2;fontFamily=JetBrains Mono;fontSize=10;" vertex="1" parent="1">
          <mxGeometry x="10" y="450" width="200" height="60" as="geometry" />
        </mxCell>
        <mxCell id="PM8lRCLhzHqhRHAJKFOG-30" style="edgeStyle=orthogonalEdgeStyle;rounded=0;orthogonalLoop=1;jettySize=auto;html=1;exitX=0.5;exitY=1;exitDx=0;exitDy=0;entryX=0.5;entryY=0;entryDx=0;entryDy=0;" edge="1" parent="1" source="PM8lRCLhzHqhRHAJKFOG-26" target="PM8lRCLhzHqhRHAJKFOG-29">
          <mxGeometry relative="1" as="geometry" />
        </mxCell>
        <mxCell id="PM8lRCLhzHqhRHAJKFOG-26" value="sum = sum + arr[i]" style="rounded=0;whiteSpace=wrap;html=1;strokeWidth=2;fontFamily=JetBrains Mono;fontSize=10;" vertex="1" parent="1">
          <mxGeometry x="10" y="530" width="200" height="30" as="geometry" />
        </mxCell>
        <mxCell id="PM8lRCLhzHqhRHAJKFOG-32" style="edgeStyle=orthogonalEdgeStyle;rounded=0;orthogonalLoop=1;jettySize=auto;html=1;exitX=0.5;exitY=1;exitDx=0;exitDy=0;entryX=0.5;entryY=0;entryDx=0;entryDy=0;" edge="1" parent="1" source="PM8lRCLhzHqhRHAJKFOG-29" target="PM8lRCLhzHqhRHAJKFOG-13">
          <mxGeometry relative="1" as="geometry" />
        </mxCell>
        <mxCell id="PM8lRCLhzHqhRHAJKFOG-29" value="evenCnt = evenCnt + 1" style="rounded=0;whiteSpace=wrap;html=1;strokeWidth=2;fontFamily=JetBrains Mono;fontSize=10;" vertex="1" parent="1">
          <mxGeometry x="10" y="580" width="200" height="30" as="geometry" />
        </mxCell>
        <mxCell id="PM8lRCLhzHqhRHAJKFOG-37" style="edgeStyle=orthogonalEdgeStyle;rounded=0;orthogonalLoop=1;jettySize=auto;html=1;exitX=0.5;exitY=1;exitDx=0;exitDy=0;entryX=0.5;entryY=0;entryDx=0;entryDy=0;" edge="1" parent="1" source="PM8lRCLhzHqhRHAJKFOG-34" target="PM8lRCLhzHqhRHAJKFOG-36">
          <mxGeometry relative="1" as="geometry" />
        </mxCell>
        <mxCell id="PM8lRCLhzHqhRHAJKFOG-34" value="narr[0] = cnt" style="rounded=0;whiteSpace=wrap;html=1;strokeWidth=2;fontFamily=JetBrains Mono;fontSize=10;" vertex="1" parent="1">
          <mxGeometry x="400" y="60" width="200" height="30" as="geometry" />
        </mxCell>
        <mxCell id="PM8lRCLhzHqhRHAJKFOG-41" style="edgeStyle=orthogonalEdgeStyle;rounded=0;orthogonalLoop=1;jettySize=auto;html=1;exitX=0.5;exitY=1;exitDx=0;exitDy=0;entryX=0.5;entryY=0;entryDx=0;entryDy=0;" edge="1" parent="1" source="PM8lRCLhzHqhRHAJKFOG-36" target="PM8lRCLhzHqhRHAJKFOG-38">
          <mxGeometry relative="1" as="geometry" />
        </mxCell>
        <mxCell id="PM8lRCLhzHqhRHAJKFOG-46" value="1" style="edgeLabel;html=1;align=center;verticalAlign=middle;resizable=0;points=[];" vertex="1" connectable="0" parent="PM8lRCLhzHqhRHAJKFOG-41">
          <mxGeometry x="-0.5143" y="-1" relative="1" as="geometry">
            <mxPoint x="11" as="offset" />
          </mxGeometry>
        </mxCell>
        <mxCell id="PM8lRCLhzHqhRHAJKFOG-44" style="edgeStyle=orthogonalEdgeStyle;rounded=0;orthogonalLoop=1;jettySize=auto;html=1;exitX=1;exitY=0.5;exitDx=0;exitDy=0;entryX=0.5;entryY=0;entryDx=0;entryDy=0;" edge="1" parent="1" source="PM8lRCLhzHqhRHAJKFOG-36" target="PM8lRCLhzHqhRHAJKFOG-43">
          <mxGeometry relative="1" as="geometry" />
        </mxCell>
        <mxCell id="PM8lRCLhzHqhRHAJKFOG-45" value="0" style="edgeLabel;html=1;align=center;verticalAlign=middle;resizable=0;points=[];" vertex="1" connectable="0" parent="PM8lRCLhzHqhRHAJKFOG-44">
          <mxGeometry x="-0.7037" y="-2" relative="1" as="geometry">
            <mxPoint x="-27" y="-12" as="offset" />
          </mxGeometry>
        </mxCell>
        <mxCell id="PM8lRCLhzHqhRHAJKFOG-36" value="evenCnt &amp;gt; 0" style="rhombus;whiteSpace=wrap;html=1;strokeWidth=2;fontFamily=JetBrains Mono;fontSize=10;" vertex="1" parent="1">
          <mxGeometry x="400" y="110" width="200" height="60" as="geometry" />
        </mxCell>
        <mxCell id="PM8lRCLhzHqhRHAJKFOG-50" style="edgeStyle=orthogonalEdgeStyle;rounded=0;orthogonalLoop=1;jettySize=auto;html=1;exitX=0.5;exitY=1;exitDx=0;exitDy=0;entryX=0.5;entryY=0;entryDx=0;entryDy=0;" edge="1" parent="1" source="PM8lRCLhzHqhRHAJKFOG-38" target="PM8lRCLhzHqhRHAJKFOG-49">
          <mxGeometry relative="1" as="geometry" />
        </mxCell>
        <mxCell id="PM8lRCLhzHqhRHAJKFOG-38" value="narr[n+2-1] = round(sum//evenCnt)" style="rounded=0;whiteSpace=wrap;html=1;strokeWidth=2;fontFamily=JetBrains Mono;fontSize=10;" vertex="1" parent="1">
          <mxGeometry x="400" y="190" width="200" height="30" as="geometry" />
        </mxCell>
        <mxCell id="PM8lRCLhzHqhRHAJKFOG-42" style="edgeStyle=orthogonalEdgeStyle;rounded=0;orthogonalLoop=1;jettySize=auto;html=1;exitX=0;exitY=0.5;exitDx=0;exitDy=0;exitPerimeter=0;entryX=0;entryY=0.5;entryDx=0;entryDy=0;endArrow=none;endFill=0;dashed=1;" edge="1" parent="1" source="PM8lRCLhzHqhRHAJKFOG-39" target="PM8lRCLhzHqhRHAJKFOG-38">
          <mxGeometry relative="1" as="geometry" />
        </mxCell>
        <mxCell id="PM8lRCLhzHqhRHAJKFOG-39" value="round() - округление числа,&lt;br&gt;// - целочисл. дел." style="strokeWidth=2;html=1;shape=mxgraph.flowchart.annotation_1;align=right;pointerEvents=1;fontFamily=JetBrains Mono;fontSize=10;direction=west;" vertex="1" parent="1">
          <mxGeometry x="370" y="190" width="10" height="30" as="geometry" />
        </mxCell>
        <mxCell id="PM8lRCLhzHqhRHAJKFOG-51" style="edgeStyle=orthogonalEdgeStyle;rounded=0;orthogonalLoop=1;jettySize=auto;html=1;exitX=0.5;exitY=1;exitDx=0;exitDy=0;entryX=0.5;entryY=0;entryDx=0;entryDy=0;" edge="1" parent="1" source="PM8lRCLhzHqhRHAJKFOG-43" target="PM8lRCLhzHqhRHAJKFOG-49">
          <mxGeometry relative="1" as="geometry" />
        </mxCell>
        <mxCell id="PM8lRCLhzHqhRHAJKFOG-43" value="narr[n+2-1] = 0" style="rounded=0;whiteSpace=wrap;html=1;strokeWidth=2;fontFamily=JetBrains Mono;fontSize=10;" vertex="1" parent="1">
          <mxGeometry x="620" y="190" width="200" height="30" as="geometry" />
        </mxCell>
        <mxCell id="PM8lRCLhzHqhRHAJKFOG-62" style="edgeStyle=orthogonalEdgeStyle;rounded=0;orthogonalLoop=1;jettySize=auto;html=1;exitX=0.5;exitY=0;exitDx=0;exitDy=0;entryX=0.5;entryY=0;entryDx=0;entryDy=0;" edge="1" parent="1" source="PM8lRCLhzHqhRHAJKFOG-47" target="PM8lRCLhzHqhRHAJKFOG-61">
          <mxGeometry relative="1" as="geometry" />
        </mxCell>
        <mxCell id="PM8lRCLhzHqhRHAJKFOG-47" value="&lt;div style=&quot;font-size: 10px;&quot;&gt;&lt;br style=&quot;font-size: 10px;&quot;&gt;&lt;/div&gt;&lt;div style=&quot;font-size: 10px;&quot;&gt;Б&lt;/div&gt;" style="shape=loopLimit;whiteSpace=wrap;html=1;size=20;direction=west;strokeWidth=2;fontFamily=JetBrains Mono;fontSize=10;" vertex="1" parent="1">
          <mxGeometry x="400" y="470" width="200" height="41" as="geometry" />
        </mxCell>
        <mxCell id="PM8lRCLhzHqhRHAJKFOG-56" style="edgeStyle=orthogonalEdgeStyle;rounded=0;orthogonalLoop=1;jettySize=auto;html=1;exitX=0.5;exitY=1;exitDx=0;exitDy=0;entryX=0.5;entryY=0;entryDx=0;entryDy=0;" edge="1" parent="1" source="PM8lRCLhzHqhRHAJKFOG-48" target="PM8lRCLhzHqhRHAJKFOG-55">
          <mxGeometry relative="1" as="geometry" />
        </mxCell>
        <mxCell id="PM8lRCLhzHqhRHAJKFOG-48" value="&lt;div style=&quot;font-size: 10px;&quot;&gt;Б&lt;/div&gt;&lt;div style=&quot;font-size: 10px;&quot;&gt;j &amp;gt;= n+2-1&lt;/div&gt;" style="shape=loopLimit;whiteSpace=wrap;html=1;size=18;direction=east;strokeWidth=2;fontFamily=JetBrains Mono;fontSize=10;" vertex="1" parent="1">
          <mxGeometry x="400" y="310" width="200" height="39" as="geometry" />
        </mxCell>
        <mxCell id="PM8lRCLhzHqhRHAJKFOG-52" style="edgeStyle=orthogonalEdgeStyle;rounded=0;orthogonalLoop=1;jettySize=auto;html=1;exitX=0.5;exitY=1;exitDx=0;exitDy=0;entryX=0.5;entryY=0;entryDx=0;entryDy=0;" edge="1" parent="1" source="PM8lRCLhzHqhRHAJKFOG-49" target="PM8lRCLhzHqhRHAJKFOG-48">
          <mxGeometry relative="1" as="geometry" />
        </mxCell>
        <mxCell id="PM8lRCLhzHqhRHAJKFOG-49" value="j = 1" style="rounded=0;whiteSpace=wrap;html=1;strokeWidth=2;fontFamily=JetBrains Mono;fontSize=10;" vertex="1" parent="1">
          <mxGeometry x="400" y="260" width="200" height="30" as="geometry" />
        </mxCell>
        <mxCell id="PM8lRCLhzHqhRHAJKFOG-54" style="edgeStyle=orthogonalEdgeStyle;rounded=0;orthogonalLoop=1;jettySize=auto;html=1;exitX=0.5;exitY=1;exitDx=0;exitDy=0;entryX=0.5;entryY=1;entryDx=0;entryDy=0;" edge="1" parent="1" source="PM8lRCLhzHqhRHAJKFOG-53" target="PM8lRCLhzHqhRHAJKFOG-47">
          <mxGeometry relative="1" as="geometry" />
        </mxCell>
        <mxCell id="PM8lRCLhzHqhRHAJKFOG-53" value="j = j + 1" style="rounded=0;whiteSpace=wrap;html=1;strokeWidth=2;fontFamily=JetBrains Mono;fontSize=10;" vertex="1" parent="1">
          <mxGeometry x="400" y="420" width="200" height="30" as="geometry" />
        </mxCell>
        <mxCell id="PM8lRCLhzHqhRHAJKFOG-57" style="edgeStyle=orthogonalEdgeStyle;rounded=0;orthogonalLoop=1;jettySize=auto;html=1;exitX=0.5;exitY=1;exitDx=0;exitDy=0;entryX=0.5;entryY=0;entryDx=0;entryDy=0;" edge="1" parent="1" source="PM8lRCLhzHqhRHAJKFOG-55" target="PM8lRCLhzHqhRHAJKFOG-53">
          <mxGeometry relative="1" as="geometry" />
        </mxCell>
        <mxCell id="PM8lRCLhzHqhRHAJKFOG-55" value="narr[j] = arr[j - 1]" style="rounded=0;whiteSpace=wrap;html=1;strokeWidth=2;fontFamily=JetBrains Mono;fontSize=10;" vertex="1" parent="1">
          <mxGeometry x="400" y="370" width="200" height="30" as="geometry" />
        </mxCell>
        <mxCell id="PM8lRCLhzHqhRHAJKFOG-76" style="edgeStyle=orthogonalEdgeStyle;rounded=0;orthogonalLoop=1;jettySize=auto;html=1;exitX=0.5;exitY=0;exitDx=0;exitDy=0;entryX=0.5;entryY=0;entryDx=0;entryDy=0;" edge="1" parent="1" source="PM8lRCLhzHqhRHAJKFOG-59" target="XOkHH5ZPfgzeeH3KS9h4-2">
          <mxGeometry relative="1" as="geometry" />
        </mxCell>
        <mxCell id="PM8lRCLhzHqhRHAJKFOG-59" value="&lt;div style=&quot;font-size: 10px;&quot;&gt;&lt;br style=&quot;font-size: 10px;&quot;&gt;&lt;/div&gt;&lt;div style=&quot;font-size: 10px;&quot;&gt;В&lt;/div&gt;" style="shape=loopLimit;whiteSpace=wrap;html=1;size=20;direction=west;strokeWidth=2;fontFamily=JetBrains Mono;fontSize=10;" vertex="1" parent="1">
          <mxGeometry x="400" y="840" width="200" height="41" as="geometry" />
        </mxCell>
        <mxCell id="PM8lRCLhzHqhRHAJKFOG-65" style="edgeStyle=orthogonalEdgeStyle;rounded=0;orthogonalLoop=1;jettySize=auto;html=1;exitX=0.5;exitY=1;exitDx=0;exitDy=0;entryX=0.5;entryY=0;entryDx=0;entryDy=0;" edge="1" parent="1" source="PM8lRCLhzHqhRHAJKFOG-60" target="PM8lRCLhzHqhRHAJKFOG-64">
          <mxGeometry relative="1" as="geometry" />
        </mxCell>
        <mxCell id="PM8lRCLhzHqhRHAJKFOG-60" value="&lt;div style=&quot;font-size: 10px;&quot;&gt;В&lt;/div&gt;&lt;div style=&quot;font-size: 10px;&quot;&gt;k &amp;gt;= n+2&lt;/div&gt;" style="shape=loopLimit;whiteSpace=wrap;html=1;size=18;direction=east;strokeWidth=2;fontFamily=JetBrains Mono;fontSize=10;" vertex="1" parent="1">
          <mxGeometry x="400" y="580" width="200" height="39" as="geometry" />
        </mxCell>
        <mxCell id="PM8lRCLhzHqhRHAJKFOG-63" style="edgeStyle=orthogonalEdgeStyle;rounded=0;orthogonalLoop=1;jettySize=auto;html=1;exitX=0.5;exitY=1;exitDx=0;exitDy=0;entryX=0.5;entryY=0;entryDx=0;entryDy=0;" edge="1" parent="1" source="PM8lRCLhzHqhRHAJKFOG-61" target="PM8lRCLhzHqhRHAJKFOG-60">
          <mxGeometry relative="1" as="geometry" />
        </mxCell>
        <mxCell id="PM8lRCLhzHqhRHAJKFOG-61" value="k = 0" style="rounded=0;whiteSpace=wrap;html=1;strokeWidth=2;fontFamily=JetBrains Mono;fontSize=10;" vertex="1" parent="1">
          <mxGeometry x="400" y="530" width="200" height="30" as="geometry" />
        </mxCell>
        <mxCell id="PM8lRCLhzHqhRHAJKFOG-71" style="edgeStyle=orthogonalEdgeStyle;rounded=0;orthogonalLoop=1;jettySize=auto;html=1;exitX=0.5;exitY=1;exitDx=0;exitDy=0;entryX=0.5;entryY=0;entryDx=0;entryDy=0;" edge="1" parent="1" source="PM8lRCLhzHqhRHAJKFOG-64" target="PM8lRCLhzHqhRHAJKFOG-66">
          <mxGeometry relative="1" as="geometry" />
        </mxCell>
        <mxCell id="PM8lRCLhzHqhRHAJKFOG-64" value="Вывод narr[k]" style="shape=parallelogram;perimeter=parallelogramPerimeter;whiteSpace=wrap;html=1;fixedSize=1;size=30;container=0;strokeWidth=2;fontFamily=JetBrains Mono;fontSize=10;" vertex="1" parent="1">
          <mxGeometry x="400" y="640" width="200" height="30" as="geometry" />
        </mxCell>
        <mxCell id="PM8lRCLhzHqhRHAJKFOG-67" style="edgeStyle=orthogonalEdgeStyle;rounded=0;orthogonalLoop=1;jettySize=auto;html=1;exitX=1;exitY=0.5;exitDx=0;exitDy=0;entryX=0.5;entryY=1;entryDx=0;entryDy=0;" edge="1" parent="1" source="PM8lRCLhzHqhRHAJKFOG-66" target="PM8lRCLhzHqhRHAJKFOG-59">
          <mxGeometry relative="1" as="geometry">
            <Array as="points">
              <mxPoint x="620" y="720" />
              <mxPoint x="620" y="820" />
              <mxPoint x="500" y="820" />
            </Array>
          </mxGeometry>
        </mxCell>
        <mxCell id="PM8lRCLhzHqhRHAJKFOG-70" value="0" style="edgeLabel;html=1;align=center;verticalAlign=middle;resizable=0;points=[];" vertex="1" connectable="0" parent="PM8lRCLhzHqhRHAJKFOG-67">
          <mxGeometry x="-0.912" y="1" relative="1" as="geometry">
            <mxPoint y="-9" as="offset" />
          </mxGeometry>
        </mxCell>
        <mxCell id="PM8lRCLhzHqhRHAJKFOG-73" style="edgeStyle=orthogonalEdgeStyle;rounded=0;orthogonalLoop=1;jettySize=auto;html=1;exitX=0.5;exitY=1;exitDx=0;exitDy=0;entryX=0.5;entryY=0;entryDx=0;entryDy=0;" edge="1" parent="1" source="PM8lRCLhzHqhRHAJKFOG-66" target="PM8lRCLhzHqhRHAJKFOG-72">
          <mxGeometry relative="1" as="geometry" />
        </mxCell>
        <mxCell id="PM8lRCLhzHqhRHAJKFOG-75" value="1" style="edgeLabel;html=1;align=center;verticalAlign=middle;resizable=0;points=[];" vertex="1" connectable="0" parent="PM8lRCLhzHqhRHAJKFOG-73">
          <mxGeometry x="-0.1222" relative="1" as="geometry">
            <mxPoint x="10" as="offset" />
          </mxGeometry>
        </mxCell>
        <mxCell id="PM8lRCLhzHqhRHAJKFOG-66" value="i &amp;gt;= n + 2 - 1" style="rhombus;whiteSpace=wrap;html=1;strokeWidth=2;fontFamily=JetBrains Mono;fontSize=10;" vertex="1" parent="1">
          <mxGeometry x="400" y="690" width="200" height="60" as="geometry" />
        </mxCell>
        <mxCell id="PM8lRCLhzHqhRHAJKFOG-74" style="edgeStyle=orthogonalEdgeStyle;rounded=0;orthogonalLoop=1;jettySize=auto;html=1;exitX=0.5;exitY=1;exitDx=0;exitDy=0;" edge="1" parent="1" source="PM8lRCLhzHqhRHAJKFOG-72">
          <mxGeometry relative="1" as="geometry">
            <mxPoint x="499.8888888888889" y="840" as="targetPoint" />
          </mxGeometry>
        </mxCell>
        <mxCell id="PM8lRCLhzHqhRHAJKFOG-72" value="Вывод &quot; &quot;" style="shape=parallelogram;perimeter=parallelogramPerimeter;whiteSpace=wrap;html=1;fixedSize=1;size=30;container=0;strokeWidth=2;fontFamily=JetBrains Mono;fontSize=10;" vertex="1" parent="1">
          <mxGeometry x="400" y="770" width="200" height="30" as="geometry" />
        </mxCell>
        <mxCell id="PM8lRCLhzHqhRHAJKFOG-81" style="edgeStyle=orthogonalEdgeStyle;rounded=0;orthogonalLoop=1;jettySize=auto;html=1;exitX=0.5;exitY=1;exitDx=0;exitDy=0;entryX=0.5;entryY=0;entryDx=0;entryDy=0;" edge="1" parent="1" source="PM8lRCLhzHqhRHAJKFOG-77" target="PM8lRCLhzHqhRHAJKFOG-34">
          <mxGeometry relative="1" as="geometry" />
        </mxCell>
        <mxCell id="PM8lRCLhzHqhRHAJKFOG-77" value="&lt;font style=&quot;font-size: 10px;&quot;&gt;A1&lt;/font&gt;" style="ellipse;whiteSpace=wrap;html=1;aspect=fixed;strokeWidth=2;fontFamily=JetBrains Mono;fontSize=10;" vertex="1" parent="1">
          <mxGeometry x="485" y="10" width="30" height="30" as="geometry" />
        </mxCell>
        <mxCell id="PM8lRCLhzHqhRHAJKFOG-78" value="&lt;font style=&quot;font-size: 10px;&quot;&gt;A1&lt;/font&gt;" style="ellipse;whiteSpace=wrap;html=1;aspect=fixed;strokeWidth=2;fontFamily=JetBrains Mono;fontSize=10;" vertex="1" parent="1">
          <mxGeometry x="95" y="760" width="30" height="30" as="geometry" />
        </mxCell>
      </root>
    </mxGraphModel>
  </diagram>
  <diagram id="lqqVgsjjTBWX_mjc3oH1" name="19">
    <mxGraphModel dx="925" dy="539" grid="1" gridSize="10" guides="1" tooltips="1" connect="1" arrows="1" fold="1" page="1" pageScale="1" pageWidth="827" pageHeight="1169" math="0" shadow="0">
      <root>
        <mxCell id="0" />
        <mxCell id="1" parent="0" />
        <mxCell id="mJeiIywpE7QeGVE4UQSo-5" style="edgeStyle=orthogonalEdgeStyle;rounded=0;orthogonalLoop=1;jettySize=auto;html=1;exitX=0.5;exitY=1;exitDx=0;exitDy=0;entryX=0.5;entryY=0;entryDx=0;entryDy=0;" edge="1" parent="1" source="mJeiIywpE7QeGVE4UQSo-1" target="mJeiIywpE7QeGVE4UQSo-4">
          <mxGeometry relative="1" as="geometry" />
        </mxCell>
        <mxCell id="mJeiIywpE7QeGVE4UQSo-1" value="Начало" style="rounded=1;whiteSpace=wrap;html=1;arcSize=50;container=0;strokeWidth=2;fontFamily=JetBrains Mono;fontSize=10;" vertex="1" parent="1">
          <mxGeometry x="10" y="10" width="200" height="30" as="geometry" />
        </mxCell>
        <mxCell id="mJeiIywpE7QeGVE4UQSo-2" value="Конец" style="rounded=1;whiteSpace=wrap;html=1;arcSize=50;container=0;strokeWidth=2;fontFamily=JetBrains Mono;fontSize=10;" vertex="1" parent="1">
          <mxGeometry x="840" y="350" width="200" height="30" as="geometry" />
        </mxCell>
        <mxCell id="mJeiIywpE7QeGVE4UQSo-9" style="edgeStyle=orthogonalEdgeStyle;rounded=0;orthogonalLoop=1;jettySize=auto;html=1;exitX=0.5;exitY=1;exitDx=0;exitDy=0;entryX=0.5;entryY=0;entryDx=0;entryDy=0;" edge="1" parent="1" source="mJeiIywpE7QeGVE4UQSo-4" target="mJeiIywpE7QeGVE4UQSo-8">
          <mxGeometry relative="1" as="geometry" />
        </mxCell>
        <mxCell id="mJeiIywpE7QeGVE4UQSo-4" value="Ввод n, m" style="shape=parallelogram;perimeter=parallelogramPerimeter;whiteSpace=wrap;html=1;fixedSize=1;size=30;container=0;strokeWidth=2;fontFamily=JetBrains Mono;fontSize=10;" vertex="1" parent="1">
          <mxGeometry x="10" y="60" width="200" height="30" as="geometry" />
        </mxCell>
        <mxCell id="mJeiIywpE7QeGVE4UQSo-28" style="edgeStyle=orthogonalEdgeStyle;rounded=0;orthogonalLoop=1;jettySize=auto;html=1;exitX=0.5;exitY=0;exitDx=0;exitDy=0;entryX=0.5;entryY=0;entryDx=0;entryDy=0;" edge="1" parent="1" source="mJeiIywpE7QeGVE4UQSo-6" target="mJeiIywpE7QeGVE4UQSo-25">
          <mxGeometry relative="1" as="geometry" />
        </mxCell>
        <mxCell id="mJeiIywpE7QeGVE4UQSo-6" value="&lt;div style=&quot;font-size: 10px;&quot;&gt;&lt;br style=&quot;font-size: 10px;&quot;&gt;&lt;/div&gt;&lt;div style=&quot;font-size: 10px;&quot;&gt;A&lt;/div&gt;" style="shape=loopLimit;whiteSpace=wrap;html=1;size=20;direction=west;strokeWidth=2;fontFamily=JetBrains Mono;fontSize=10;" vertex="1" parent="1">
          <mxGeometry x="10" y="540" width="200" height="41" as="geometry" />
        </mxCell>
        <mxCell id="mJeiIywpE7QeGVE4UQSo-16" style="edgeStyle=orthogonalEdgeStyle;rounded=0;orthogonalLoop=1;jettySize=auto;html=1;exitX=0.5;exitY=1;exitDx=0;exitDy=0;entryX=0.5;entryY=0;entryDx=0;entryDy=0;" edge="1" parent="1" source="mJeiIywpE7QeGVE4UQSo-7" target="mJeiIywpE7QeGVE4UQSo-15">
          <mxGeometry relative="1" as="geometry" />
        </mxCell>
        <mxCell id="mJeiIywpE7QeGVE4UQSo-7" value="&lt;div style=&quot;font-size: 10px;&quot;&gt;A&lt;/div&gt;&lt;div style=&quot;font-size: 10px;&quot;&gt;i &amp;gt;= n&lt;/div&gt;" style="shape=loopLimit;whiteSpace=wrap;html=1;size=18;direction=east;strokeWidth=2;fontFamily=JetBrains Mono;fontSize=10;" vertex="1" parent="1">
          <mxGeometry x="10" y="160" width="200" height="39" as="geometry" />
        </mxCell>
        <mxCell id="mJeiIywpE7QeGVE4UQSo-10" style="edgeStyle=orthogonalEdgeStyle;rounded=0;orthogonalLoop=1;jettySize=auto;html=1;exitX=0.5;exitY=1;exitDx=0;exitDy=0;entryX=0.5;entryY=0;entryDx=0;entryDy=0;" edge="1" parent="1" source="mJeiIywpE7QeGVE4UQSo-8" target="mJeiIywpE7QeGVE4UQSo-7">
          <mxGeometry relative="1" as="geometry" />
        </mxCell>
        <mxCell id="mJeiIywpE7QeGVE4UQSo-8" value="i = 0" style="rounded=0;whiteSpace=wrap;html=1;strokeWidth=2;fontFamily=JetBrains Mono;fontSize=10;" vertex="1" parent="1">
          <mxGeometry x="10" y="110" width="200" height="30" as="geometry" />
        </mxCell>
        <mxCell id="mJeiIywpE7QeGVE4UQSo-12" style="edgeStyle=orthogonalEdgeStyle;rounded=0;orthogonalLoop=1;jettySize=auto;html=1;exitX=0.5;exitY=1;exitDx=0;exitDy=0;entryX=0.5;entryY=1;entryDx=0;entryDy=0;" edge="1" parent="1" source="mJeiIywpE7QeGVE4UQSo-11" target="mJeiIywpE7QeGVE4UQSo-6">
          <mxGeometry relative="1" as="geometry" />
        </mxCell>
        <mxCell id="mJeiIywpE7QeGVE4UQSo-11" value="i = i + 1" style="rounded=0;whiteSpace=wrap;html=1;strokeWidth=2;fontFamily=JetBrains Mono;fontSize=10;" vertex="1" parent="1">
          <mxGeometry x="10" y="490" width="200" height="30" as="geometry" />
        </mxCell>
        <mxCell id="mJeiIywpE7QeGVE4UQSo-18" style="edgeStyle=orthogonalEdgeStyle;rounded=0;orthogonalLoop=1;jettySize=auto;html=1;exitX=0.5;exitY=0;exitDx=0;exitDy=0;entryX=0.5;entryY=0;entryDx=0;entryDy=0;" edge="1" parent="1" source="mJeiIywpE7QeGVE4UQSo-13" target="mJeiIywpE7QeGVE4UQSo-11">
          <mxGeometry relative="1" as="geometry" />
        </mxCell>
        <mxCell id="mJeiIywpE7QeGVE4UQSo-13" value="&lt;div style=&quot;font-size: 10px;&quot;&gt;&lt;br style=&quot;font-size: 10px;&quot;&gt;&lt;/div&gt;&lt;div style=&quot;font-size: 10px;&quot;&gt;Б&lt;/div&gt;" style="shape=loopLimit;whiteSpace=wrap;html=1;size=20;direction=west;strokeWidth=2;fontFamily=JetBrains Mono;fontSize=10;" vertex="1" parent="1">
          <mxGeometry x="10" y="430" width="200" height="41" as="geometry" />
        </mxCell>
        <mxCell id="mJeiIywpE7QeGVE4UQSo-21" style="edgeStyle=orthogonalEdgeStyle;rounded=0;orthogonalLoop=1;jettySize=auto;html=1;exitX=0.5;exitY=1;exitDx=0;exitDy=0;entryX=0.5;entryY=0;entryDx=0;entryDy=0;" edge="1" parent="1" source="mJeiIywpE7QeGVE4UQSo-14" target="mJeiIywpE7QeGVE4UQSo-19">
          <mxGeometry relative="1" as="geometry" />
        </mxCell>
        <mxCell id="mJeiIywpE7QeGVE4UQSo-14" value="&lt;div style=&quot;font-size: 10px;&quot;&gt;Б&lt;/div&gt;&lt;div style=&quot;font-size: 10px;&quot;&gt;j &amp;gt;= m&lt;/div&gt;" style="shape=loopLimit;whiteSpace=wrap;html=1;size=18;direction=east;strokeWidth=2;fontFamily=JetBrains Mono;fontSize=10;" vertex="1" parent="1">
          <mxGeometry x="10" y="270" width="200" height="39" as="geometry" />
        </mxCell>
        <mxCell id="mJeiIywpE7QeGVE4UQSo-17" style="edgeStyle=orthogonalEdgeStyle;rounded=0;orthogonalLoop=1;jettySize=auto;html=1;exitX=0.5;exitY=1;exitDx=0;exitDy=0;entryX=0.5;entryY=0;entryDx=0;entryDy=0;" edge="1" parent="1" source="mJeiIywpE7QeGVE4UQSo-15" target="mJeiIywpE7QeGVE4UQSo-14">
          <mxGeometry relative="1" as="geometry" />
        </mxCell>
        <mxCell id="mJeiIywpE7QeGVE4UQSo-15" value="j = 0" style="rounded=0;whiteSpace=wrap;html=1;strokeWidth=2;fontFamily=JetBrains Mono;fontSize=10;" vertex="1" parent="1">
          <mxGeometry x="10" y="220" width="200" height="30" as="geometry" />
        </mxCell>
        <mxCell id="mJeiIywpE7QeGVE4UQSo-22" style="edgeStyle=orthogonalEdgeStyle;rounded=0;orthogonalLoop=1;jettySize=auto;html=1;exitX=0.5;exitY=1;exitDx=0;exitDy=0;entryX=0.5;entryY=0;entryDx=0;entryDy=0;" edge="1" parent="1" source="mJeiIywpE7QeGVE4UQSo-19" target="mJeiIywpE7QeGVE4UQSo-20">
          <mxGeometry relative="1" as="geometry" />
        </mxCell>
        <mxCell id="mJeiIywpE7QeGVE4UQSo-19" value="Ввод arr[i][j]" style="shape=parallelogram;perimeter=parallelogramPerimeter;whiteSpace=wrap;html=1;fixedSize=1;size=30;container=0;strokeWidth=2;fontFamily=JetBrains Mono;fontSize=10;" vertex="1" parent="1">
          <mxGeometry x="10" y="330" width="200" height="30" as="geometry" />
        </mxCell>
        <mxCell id="mJeiIywpE7QeGVE4UQSo-23" style="edgeStyle=orthogonalEdgeStyle;rounded=0;orthogonalLoop=1;jettySize=auto;html=1;exitX=0.5;exitY=1;exitDx=0;exitDy=0;entryX=0.5;entryY=1;entryDx=0;entryDy=0;" edge="1" parent="1" source="mJeiIywpE7QeGVE4UQSo-20" target="mJeiIywpE7QeGVE4UQSo-13">
          <mxGeometry relative="1" as="geometry" />
        </mxCell>
        <mxCell id="mJeiIywpE7QeGVE4UQSo-20" value="j = j + 1" style="rounded=0;whiteSpace=wrap;html=1;strokeWidth=2;fontFamily=JetBrains Mono;fontSize=10;" vertex="1" parent="1">
          <mxGeometry x="10" y="380" width="200" height="30" as="geometry" />
        </mxCell>
        <mxCell id="mJeiIywpE7QeGVE4UQSo-24" value="&lt;div style=&quot;color: rgb(205, 214, 244); background-color: rgb(30, 30, 46); font-family: &amp;quot;JetBrains Mono&amp;quot;, &amp;quot;JetBrains Mono&amp;quot;, &amp;quot;JetBrains Mono&amp;quot;, Consolas, &amp;quot;Courier New&amp;quot;, monospace; font-size: 14px; line-height: 19px; white-space: pre;&quot;&gt;&lt;div&gt;&lt;span style=&quot;color: #cba6f7;&quot;&gt;double&lt;/span&gt; sum &lt;span style=&quot;color: #94e2d5;&quot;&gt;=&lt;/span&gt; &lt;span style=&quot;color: #fab387;&quot;&gt;0&lt;/span&gt;&lt;span style=&quot;color: #9399b2;&quot;&gt;;&lt;/span&gt;&lt;/div&gt;&lt;div&gt;&amp;nbsp; &amp;nbsp; &lt;span style=&quot;color: #cba6f7;&quot;&gt;for&lt;/span&gt; &lt;span style=&quot;color: #9399b2;&quot;&gt;(&lt;/span&gt;&lt;span style=&quot;color: #cba6f7;&quot;&gt;int&lt;/span&gt; j &lt;span style=&quot;color: #94e2d5;&quot;&gt;=&lt;/span&gt; &lt;span style=&quot;color: #fab387;&quot;&gt;0&lt;/span&gt;&lt;span style=&quot;color: #9399b2;&quot;&gt;;&lt;/span&gt; j &lt;span style=&quot;color: #94e2d5;&quot;&gt;&amp;lt;&lt;/span&gt; m&lt;span style=&quot;color: #9399b2;&quot;&gt;;&lt;/span&gt; j&lt;span style=&quot;color: #94e2d5;&quot;&gt;++&lt;/span&gt;&lt;span style=&quot;color: #9399b2;&quot;&gt;)&lt;/span&gt; &lt;span style=&quot;color: #9399b2;&quot;&gt;{&lt;/span&gt;&lt;/div&gt;&lt;div&gt;&amp;nbsp; &amp;nbsp; &amp;nbsp; &amp;nbsp; sum &lt;span style=&quot;color: #94e2d5;&quot;&gt;+=&lt;/span&gt; arr&lt;span style=&quot;color: #9399b2;&quot;&gt;[&lt;/span&gt;&lt;span style=&quot;color: #fab387;&quot;&gt;0&lt;/span&gt;&lt;span style=&quot;color: #9399b2;&quot;&gt;][&lt;/span&gt;j&lt;span style=&quot;color: #9399b2;&quot;&gt;];&lt;/span&gt;&lt;/div&gt;&lt;div&gt;&amp;nbsp; &amp;nbsp; &lt;span style=&quot;color: #9399b2;&quot;&gt;}&lt;/span&gt;&lt;/div&gt;&lt;div&gt;&amp;nbsp; &amp;nbsp; &lt;span style=&quot;color: #cba6f7;&quot;&gt;double&lt;/span&gt; min_avg &lt;span style=&quot;color: #94e2d5;&quot;&gt;=&lt;/span&gt; sum &lt;span style=&quot;color: #94e2d5;&quot;&gt;/&lt;/span&gt; m&lt;span style=&quot;color: #9399b2;&quot;&gt;;&lt;/span&gt;&lt;/div&gt;&lt;br&gt;&lt;div&gt;&amp;nbsp; &amp;nbsp; &lt;span style=&quot;color: #cba6f7;&quot;&gt;for&lt;/span&gt; &lt;span style=&quot;color: #9399b2;&quot;&gt;(&lt;/span&gt;&lt;span style=&quot;color: #cba6f7;&quot;&gt;int&lt;/span&gt; i &lt;span style=&quot;color: #94e2d5;&quot;&gt;=&lt;/span&gt; &lt;span style=&quot;color: #fab387;&quot;&gt;1&lt;/span&gt;&lt;span style=&quot;color: #9399b2;&quot;&gt;;&lt;/span&gt; i &lt;span style=&quot;color: #94e2d5;&quot;&gt;&amp;lt;&lt;/span&gt; n&lt;span style=&quot;color: #9399b2;&quot;&gt;;&lt;/span&gt; i&lt;span style=&quot;color: #94e2d5;&quot;&gt;++&lt;/span&gt;&lt;span style=&quot;color: #9399b2;&quot;&gt;)&lt;/span&gt; &lt;span style=&quot;color: #9399b2;&quot;&gt;{&lt;/span&gt;&lt;/div&gt;&lt;div&gt;&amp;nbsp; &amp;nbsp; &amp;nbsp; &amp;nbsp; sum &lt;span style=&quot;color: #94e2d5;&quot;&gt;=&lt;/span&gt; &lt;span style=&quot;color: #fab387;&quot;&gt;0&lt;/span&gt;&lt;span style=&quot;color: #9399b2;&quot;&gt;;&lt;/span&gt;&lt;/div&gt;&lt;div&gt;&amp;nbsp; &amp;nbsp; &amp;nbsp; &amp;nbsp; &lt;span style=&quot;color: #cba6f7;&quot;&gt;for&lt;/span&gt; &lt;span style=&quot;color: #9399b2;&quot;&gt;(&lt;/span&gt;&lt;span style=&quot;color: #cba6f7;&quot;&gt;int&lt;/span&gt; j &lt;span style=&quot;color: #94e2d5;&quot;&gt;=&lt;/span&gt; &lt;span style=&quot;color: #fab387;&quot;&gt;0&lt;/span&gt;&lt;span style=&quot;color: #9399b2;&quot;&gt;;&lt;/span&gt; j &lt;span style=&quot;color: #94e2d5;&quot;&gt;&amp;lt;&lt;/span&gt; m&lt;span style=&quot;color: #9399b2;&quot;&gt;;&lt;/span&gt; j&lt;span style=&quot;color: #94e2d5;&quot;&gt;++&lt;/span&gt;&lt;span style=&quot;color: #9399b2;&quot;&gt;)&lt;/span&gt; &lt;span style=&quot;color: #9399b2;&quot;&gt;{&lt;/span&gt;&lt;/div&gt;&lt;div&gt;&amp;nbsp; &amp;nbsp; &amp;nbsp; &amp;nbsp; &amp;nbsp; &amp;nbsp; sum &lt;span style=&quot;color: #94e2d5;&quot;&gt;+=&lt;/span&gt; arr&lt;span style=&quot;color: #9399b2;&quot;&gt;[&lt;/span&gt;i&lt;span style=&quot;color: #9399b2;&quot;&gt;][&lt;/span&gt;j&lt;span style=&quot;color: #9399b2;&quot;&gt;];&lt;/span&gt;&lt;/div&gt;&lt;div&gt;&amp;nbsp; &amp;nbsp; &amp;nbsp; &amp;nbsp; &lt;span style=&quot;color: #9399b2;&quot;&gt;}&lt;/span&gt;&lt;/div&gt;&lt;div&gt;&amp;nbsp; &amp;nbsp; &amp;nbsp; &amp;nbsp; &lt;span style=&quot;color: #cba6f7;&quot;&gt;double&lt;/span&gt; avg &lt;span style=&quot;color: #94e2d5;&quot;&gt;=&lt;/span&gt; sum &lt;span style=&quot;color: #94e2d5;&quot;&gt;/&lt;/span&gt; m&lt;span style=&quot;color: #9399b2;&quot;&gt;;&lt;/span&gt;&lt;/div&gt;&lt;div&gt;&amp;nbsp; &amp;nbsp; &amp;nbsp; &amp;nbsp; &lt;span style=&quot;color: #cba6f7;&quot;&gt;if&lt;/span&gt; &lt;span style=&quot;color: #9399b2;&quot;&gt;(&lt;/span&gt;avg &lt;span style=&quot;color: #94e2d5;&quot;&gt;&amp;lt;&lt;/span&gt; min_avg&lt;span style=&quot;color: #9399b2;&quot;&gt;)&lt;/span&gt; &lt;span style=&quot;color: #9399b2;&quot;&gt;{&lt;/span&gt;&lt;/div&gt;&lt;div&gt;&amp;nbsp; &amp;nbsp; &amp;nbsp; &amp;nbsp; &amp;nbsp; &amp;nbsp; min_avg &lt;span style=&quot;color: #94e2d5;&quot;&gt;=&lt;/span&gt; avg&lt;span style=&quot;color: #9399b2;&quot;&gt;;&lt;/span&gt;&lt;/div&gt;&lt;div&gt;&amp;nbsp; &amp;nbsp; &amp;nbsp; &amp;nbsp; &lt;span style=&quot;color: #9399b2;&quot;&gt;}&lt;/span&gt;&lt;/div&gt;&lt;div&gt;&amp;nbsp; &amp;nbsp; &lt;span style=&quot;color: #9399b2;&quot;&gt;}&lt;/span&gt;&lt;/div&gt;&lt;br&gt;&lt;div&gt;&amp;nbsp; &amp;nbsp; &lt;span style=&quot;color: #89b4fa;font-style: italic;&quot;&gt;printf&lt;/span&gt;&lt;span style=&quot;color: #9399b2;&quot;&gt;(&lt;/span&gt;&lt;span style=&quot;color: #a6e3a1;&quot;&gt;&quot;%.2f&lt;/span&gt;&lt;span style=&quot;color: #f5c2e7;&quot;&gt;\n&lt;/span&gt;&lt;span style=&quot;color: #a6e3a1;&quot;&gt;&quot;&lt;/span&gt;&lt;span style=&quot;color: #9399b2;&quot;&gt;,&lt;/span&gt; min_avg&lt;span style=&quot;color: #9399b2;&quot;&gt;);&lt;/span&gt;&lt;/div&gt;&lt;/div&gt;" style="text;html=1;whiteSpace=wrap;overflow=hidden;rounded=0;" vertex="1" parent="1">
          <mxGeometry x="420" y="500" width="320" height="350" as="geometry" />
        </mxCell>
        <mxCell id="ZHYtJnkvBBi5splhUZ9L-2" style="edgeStyle=orthogonalEdgeStyle;rounded=0;orthogonalLoop=1;jettySize=auto;html=1;exitX=0.5;exitY=1;exitDx=0;exitDy=0;entryX=0.5;entryY=0;entryDx=0;entryDy=0;" edge="1" parent="1" source="mJeiIywpE7QeGVE4UQSo-25" target="ZHYtJnkvBBi5splhUZ9L-1">
          <mxGeometry relative="1" as="geometry" />
        </mxCell>
        <mxCell id="mJeiIywpE7QeGVE4UQSo-25" value="sum = 0" style="rounded=0;whiteSpace=wrap;html=1;strokeWidth=2;fontFamily=JetBrains Mono;fontSize=10;" vertex="1" parent="1">
          <mxGeometry x="10" y="600" width="200" height="30" as="geometry" />
        </mxCell>
        <mxCell id="ZHYtJnkvBBi5splhUZ9L-10" style="edgeStyle=orthogonalEdgeStyle;rounded=0;orthogonalLoop=1;jettySize=auto;html=1;exitX=0.5;exitY=0;exitDx=0;exitDy=0;entryX=0.5;entryY=0;entryDx=0;entryDy=0;" edge="1" parent="1" source="mJeiIywpE7QeGVE4UQSo-26" target="ZHYtJnkvBBi5splhUZ9L-9">
          <mxGeometry relative="1" as="geometry" />
        </mxCell>
        <mxCell id="mJeiIywpE7QeGVE4UQSo-26" value="&lt;div style=&quot;font-size: 10px;&quot;&gt;&lt;div&gt;&lt;br&gt;Нах. мин суммы&lt;/div&gt;&lt;/div&gt;" style="shape=loopLimit;whiteSpace=wrap;html=1;size=20;direction=west;strokeWidth=2;fontFamily=JetBrains Mono;fontSize=10;" vertex="1" parent="1">
          <mxGeometry x="10" y="860" width="200" height="41" as="geometry" />
        </mxCell>
        <mxCell id="ZHYtJnkvBBi5splhUZ9L-5" style="edgeStyle=orthogonalEdgeStyle;rounded=0;orthogonalLoop=1;jettySize=auto;html=1;exitX=0.5;exitY=1;exitDx=0;exitDy=0;entryX=0.5;entryY=0;entryDx=0;entryDy=0;" edge="1" parent="1" source="mJeiIywpE7QeGVE4UQSo-27" target="ZHYtJnkvBBi5splhUZ9L-4">
          <mxGeometry relative="1" as="geometry" />
        </mxCell>
        <mxCell id="mJeiIywpE7QeGVE4UQSo-27" value="&lt;div style=&quot;font-size: 10px;&quot;&gt;Нах. мин суммы&lt;/div&gt;&lt;div style=&quot;font-size: 10px;&quot;&gt;i &amp;gt;= n&lt;/div&gt;" style="shape=loopLimit;whiteSpace=wrap;html=1;size=18;direction=east;strokeWidth=2;fontFamily=JetBrains Mono;fontSize=10;" vertex="1" parent="1">
          <mxGeometry x="10" y="700" width="200" height="39" as="geometry" />
        </mxCell>
        <mxCell id="ZHYtJnkvBBi5splhUZ9L-3" style="edgeStyle=orthogonalEdgeStyle;rounded=0;orthogonalLoop=1;jettySize=auto;html=1;exitX=0.5;exitY=1;exitDx=0;exitDy=0;entryX=0.5;entryY=0;entryDx=0;entryDy=0;" edge="1" parent="1" source="ZHYtJnkvBBi5splhUZ9L-1" target="mJeiIywpE7QeGVE4UQSo-27">
          <mxGeometry relative="1" as="geometry" />
        </mxCell>
        <mxCell id="ZHYtJnkvBBi5splhUZ9L-1" value="i = 0" style="rounded=0;whiteSpace=wrap;html=1;strokeWidth=2;fontFamily=JetBrains Mono;fontSize=10;" vertex="1" parent="1">
          <mxGeometry x="10" y="650" width="200" height="30" as="geometry" />
        </mxCell>
        <mxCell id="ZHYtJnkvBBi5splhUZ9L-7" style="edgeStyle=orthogonalEdgeStyle;rounded=0;orthogonalLoop=1;jettySize=auto;html=1;exitX=0.5;exitY=1;exitDx=0;exitDy=0;entryX=0.5;entryY=0;entryDx=0;entryDy=0;" edge="1" parent="1" source="ZHYtJnkvBBi5splhUZ9L-4" target="ZHYtJnkvBBi5splhUZ9L-6">
          <mxGeometry relative="1" as="geometry" />
        </mxCell>
        <mxCell id="ZHYtJnkvBBi5splhUZ9L-4" value="sum = sum + arr[0][i]" style="rounded=0;whiteSpace=wrap;html=1;strokeWidth=2;fontFamily=JetBrains Mono;fontSize=10;" vertex="1" parent="1">
          <mxGeometry x="10" y="760" width="200" height="30" as="geometry" />
        </mxCell>
        <mxCell id="ZHYtJnkvBBi5splhUZ9L-8" style="edgeStyle=orthogonalEdgeStyle;rounded=0;orthogonalLoop=1;jettySize=auto;html=1;exitX=0.5;exitY=1;exitDx=0;exitDy=0;entryX=0.5;entryY=1;entryDx=0;entryDy=0;" edge="1" parent="1" source="ZHYtJnkvBBi5splhUZ9L-6" target="mJeiIywpE7QeGVE4UQSo-26">
          <mxGeometry relative="1" as="geometry" />
        </mxCell>
        <mxCell id="ZHYtJnkvBBi5splhUZ9L-6" value="i = i + 1" style="rounded=0;whiteSpace=wrap;html=1;strokeWidth=2;fontFamily=JetBrains Mono;fontSize=10;" vertex="1" parent="1">
          <mxGeometry x="10" y="810" width="200" height="30" as="geometry" />
        </mxCell>
        <mxCell id="ZHYtJnkvBBi5splhUZ9L-9" value="min_avg = sum / m" style="rounded=0;whiteSpace=wrap;html=1;strokeWidth=2;fontFamily=JetBrains Mono;fontSize=10;" vertex="1" parent="1">
          <mxGeometry x="10" y="920" width="200" height="30" as="geometry" />
        </mxCell>
        <mxCell id="ZHYtJnkvBBi5splhUZ9L-11" value="&lt;div style=&quot;font-size: 10px;&quot;&gt;&lt;br style=&quot;font-size: 10px;&quot;&gt;&lt;/div&gt;&lt;div style=&quot;font-size: 10px;&quot;&gt;Мин. ср.&lt;/div&gt;" style="shape=loopLimit;whiteSpace=wrap;html=1;size=20;direction=west;strokeWidth=2;fontFamily=JetBrains Mono;fontSize=10;" vertex="1" parent="1">
          <mxGeometry x="10" y="1050" width="200" height="41" as="geometry" />
        </mxCell>
        <mxCell id="ZHYtJnkvBBi5splhUZ9L-12" value="&lt;div style=&quot;font-size: 10px;&quot;&gt;Мин. ср.&lt;/div&gt;&lt;div style=&quot;font-size: 10px;&quot;&gt;&lt;br style=&quot;font-size: 10px;&quot;&gt;&lt;/div&gt;" style="shape=loopLimit;whiteSpace=wrap;html=1;size=18;direction=east;strokeWidth=2;fontFamily=JetBrains Mono;fontSize=10;" vertex="1" parent="1">
          <mxGeometry x="10" y="970" width="200" height="39" as="geometry" />
        </mxCell>
      </root>
    </mxGraphModel>
  </diagram>
</mxfile>
